<svg id="application" xmlns="http://www.w3.org/2000/svg" width="89" height="89" viewBox="0 0 89 89">
  <path id="Path_8369" data-name="Path 8369" d="M22,20h5.742v2.871H22Z" transform="translate(9.581 8.71)" fill="#007bff"/>
  <path id="Path_8370" data-name="Path 8370" d="M20,56h8.613v2.871H20Z" transform="translate(8.71 24.387)" fill="#007bff"/>
  <path id="Path_8371" data-name="Path 8371" d="M70.25,39.441a1.994,1.994,0,0,1-1.212-1.161,1.974,1.974,0,0,1,.052-1.639l.629-1.255L64.194,29.86l-1.253.629a1.994,1.994,0,0,1-1.671.037,1.973,1.973,0,0,1-1.13-1.2L59.7,28h-7.81l-.444,1.331a2.039,2.039,0,0,1-2.8,1.16l-1.255-.629-5.525,5.525.629,1.253a2.041,2.041,0,0,1-1.16,2.8L40,39.884v7.81l1.331.444A1.994,1.994,0,0,1,42.542,49.3a1.974,1.974,0,0,1-.052,1.639l-.629,1.255,5.525,5.525,1.253-.629a2.041,2.041,0,0,1,2.8,1.16l.444,1.331h7.81l.444-1.331A1.994,1.994,0,0,1,61.3,57.038a1.963,1.963,0,0,1,1.639.052l1.255.629,5.525-5.525L69.09,50.94a1.994,1.994,0,0,1-.039-1.671,1.971,1.971,0,0,1,1.2-1.13l1.331-.444v-7.81Zm-1.54,6.237a4.926,4.926,0,0,0-2.449,5.913l-2.67,2.67a4.926,4.926,0,0,0-5.913,2.449H53.9a4.926,4.926,0,0,0-5.913-2.449l-2.67-2.67a4.924,4.924,0,0,0-2.449-5.913V41.9A4.926,4.926,0,0,0,45.32,35.99l2.67-2.67A4.926,4.926,0,0,0,53.9,30.871h3.775a4.926,4.926,0,0,0,5.913,2.449l2.67,2.67A4.926,4.926,0,0,0,68.71,41.9Z" transform="translate(17.419 12.194)" fill="#007bff"/>
  <path id="Path_8372" data-name="Path 8372" d="M54.048,32A10.048,10.048,0,1,0,64.1,42.048,10.059,10.059,0,0,0,54.048,32Zm0,17.226a7.177,7.177,0,1,1,7.177-7.177A7.186,7.186,0,0,1,54.048,49.226Z" transform="translate(19.161 13.935)" fill="#007bff"/>
  <path id="Path_8373" data-name="Path 8373" d="M52.306,36a4.306,4.306,0,1,0,4.306,4.306A4.312,4.312,0,0,0,52.306,36Zm0,5.742a1.435,1.435,0,1,1,1.435-1.435A1.438,1.438,0,0,1,52.306,41.742Z" transform="translate(20.903 15.677)" fill="#007bff"/>
  <path id="Path_8374" data-name="Path 8374" d="M48.806,60.29a4.306,4.306,0,1,1,0-8.613h5.742V47.86l-.357-.406a12.949,12.949,0,0,0-2.512-2.183V40.194h8.613A14.355,14.355,0,1,0,58.4,11.612a20.088,20.088,0,0,0-37.116,1.682A9.944,9.944,0,0,0,9.012,20.15a10.049,10.049,0,0,0,1.036,20.044h4.306V83.258A5.748,5.748,0,0,0,20.1,89H45.935a5.748,5.748,0,0,0,5.742-5.742V66.7a12.882,12.882,0,0,0,2.515-2.185l.359-.408,0-3.814Zm0-11.484a7.177,7.177,0,0,0,0,14.355H51.52a10.032,10.032,0,0,1-16.33-3.409l-.363-.9h-17.6V53.113h17.6l.363-.9a10.032,10.032,0,0,1,16.33-3.409Zm0-14.355H17.226V28.71A2.874,2.874,0,0,1,20.1,25.839H45.935a2.874,2.874,0,0,1,2.871,2.871ZM44.5,43.065a12.861,12.861,0,0,0-11.57,7.177h-15.7V37.323H48.806v6.5A12.829,12.829,0,0,0,44.5,43.065ZM10.048,37.323a7.178,7.178,0,1,1,.093-14.355l1.236.022.205-1.22a7.18,7.18,0,0,1,13.848-1.194l2.707-.956a10.013,10.013,0,0,0-4.21-5.173A17.212,17.212,0,0,1,56.2,13.752l.449,1.133,1.191-.26a11.482,11.482,0,1,1,2.453,22.7H51.677V28.71a5.748,5.748,0,0,0-5.742-5.742H20.1a5.748,5.748,0,0,0-5.742,5.742v8.613ZM45.935,86.129H20.1a2.874,2.874,0,0,1-2.871-2.871V77.516H48.806v5.742A2.874,2.874,0,0,1,45.935,86.129Zm2.871-11.484H17.226V61.726h15.7A12.863,12.863,0,0,0,48.806,68.15Z" transform="translate(0 0)" fill="#007bff"/>
  <path id="Path_8375" data-name="Path 8375" d="M29.936,6.871a11.5,11.5,0,0,1,10.831,7.655l2.707-.956A14.381,14.381,0,0,0,29.936,4a14.22,14.22,0,0,0-6.381,1.493l1.278,2.571A11.378,11.378,0,0,1,29.936,6.871Z" transform="translate(10.258 1.742)" fill="#007bff"/>
  <path id="Path_8376" data-name="Path 8376" d="M23.966,8.687l-1.913-2.14A14.512,14.512,0,0,0,19.685,9.27l2.386,1.6A11.475,11.475,0,0,1,23.966,8.687Z" transform="translate(8.573 2.851)" fill="#007bff"/>
  <path id="Path_8377" data-name="Path 8377" d="M50.613,20.613A8.622,8.622,0,0,0,42,12v2.871a5.742,5.742,0,0,1,0,11.484v2.871A8.622,8.622,0,0,0,50.613,20.613Z" transform="translate(18.29 5.226)" fill="#007bff"/>
  <path id="Path_8378" data-name="Path 8378" d="M7.742,32H4.871v2.871H2v2.871H4.871v2.871H7.742V37.742h2.871V34.871H7.742Z" transform="translate(0.871 13.935)" fill="#007bff"/>
  <path id="Path_8379" data-name="Path 8379" d="M7.742,40H4.871v2.871H2v2.871H4.871v2.871H7.742V45.742h2.871V42.871H7.742Z" transform="translate(0.871 17.419)" fill="#007bff"/>
  <path id="Path_8380" data-name="Path 8380" d="M7.742,48H4.871v2.871H2v2.871H4.871v2.871H7.742V53.742h2.871V50.871H7.742Z" transform="translate(0.871 20.903)" fill="#007bff"/>
  <path id="Path_8381" data-name="Path 8381" d="M56.871,12.613h2.871V9.742h2.871V6.871H59.742V4H56.871V6.871H54V9.742h2.871Z" transform="translate(23.516 1.742)" fill="#007bff"/>
  <path id="Path_8382" data-name="Path 8382" d="M56.871,20.613h2.871V17.742h2.871V14.871H59.742V12H56.871v2.871H54v2.871h2.871Z" transform="translate(23.516 5.226)" fill="#007bff"/>
  <path id="Path_8383" data-name="Path 8383" d="M56.871,28.613h2.871V25.742h2.871V22.871H59.742V20H56.871v2.871H54v2.871h2.871Z" transform="translate(23.516 8.71)" fill="#007bff"/>
</svg>
