<svg xmlns="http://www.w3.org/2000/svg" width="685.465" height="510.754" viewBox="0 0 685.465 510.754">
  <g id="At_work-rafiki" data-name="At work-rafiki" transform="translate(0 -55)">
    <g id="freepik--background-complete--inject-61" transform="translate(0 55)">
      <rect id="Rectangle_3975" data-name="Rectangle 3975" width="685.465" height="0.343" transform="translate(0 448.842)" fill="#e6e6e6"/>
      <rect id="Rectangle_3976" data-name="Rectangle 3976" width="47.16" height="0.343" transform="translate(108.934 459.837)" fill="#e6e6e6"/>
      <rect id="Rectangle_3977" data-name="Rectangle 3977" width="14.093" height="0.343" transform="translate(165.128 459.837)" fill="#e6e6e6"/>
      <rect id="Rectangle_3978" data-name="Rectangle 3978" width="26.541" height="0.343" transform="translate(222.214 453.106)" fill="#e6e6e6"/>
      <rect id="Rectangle_3979" data-name="Rectangle 3979" width="59.21" height="0.343" transform="translate(531.126 467.446)" fill="#e6e6e6"/>
      <rect id="Rectangle_3980" data-name="Rectangle 3980" width="8.678" height="0.343" transform="translate(602.551 467.446)" fill="#e6e6e6"/>
      <rect id="Rectangle_3981" data-name="Rectangle 3981" width="128.429" height="0.343" transform="translate(417.681 455.409)" fill="#e6e6e6"/>
      <path id="Path_13658" data-name="Path 13658" d="M310.737,442.7H46.024a7.828,7.828,0,0,1-7.814-7.828V62.759A7.828,7.828,0,0,1,46.024,55H310.737a7.828,7.828,0,0,1,7.828,7.828V434.871A7.828,7.828,0,0,1,310.737,442.7ZM46.024,55.274a7.485,7.485,0,0,0-7.472,7.485V434.871a7.485,7.485,0,0,0,7.472,7.485H310.737a7.5,7.5,0,0,0,7.485-7.485V62.759a7.5,7.5,0,0,0-7.485-7.485Z" transform="translate(14.173 -55)" fill="#e6e6e6"/>
      <path id="Path_13659" data-name="Path 13659" d="M527.055,442.7H262.328a7.842,7.842,0,0,1-7.828-7.828V62.759A7.842,7.842,0,0,1,262.328,55H527.055a7.828,7.828,0,0,1,7.8,7.759V434.871A7.828,7.828,0,0,1,527.055,442.7ZM262.328,55.274a7.5,7.5,0,0,0-7.485,7.485V434.871a7.5,7.5,0,0,0,7.485,7.485H527.055a7.5,7.5,0,0,0,7.485-7.485V62.759a7.5,7.5,0,0,0-7.485-7.485Z" transform="translate(94.402 -55)" fill="#e6e6e6"/>
      <rect id="Rectangle_3982" data-name="Rectangle 3982" width="96.061" height="186.844" transform="translate(478.386 261.998)" fill="#f5f5f5"/>
      <rect id="Rectangle_3983" data-name="Rectangle 3983" width="7.924" height="186.844" transform="translate(566.523 261.998)" fill="#f0f0f0"/>
      <rect id="Rectangle_3984" data-name="Rectangle 3984" width="221.172" height="40.36" transform="translate(485.789 307.691) rotate(180)" fill="#e0e0e0"/>
      <path id="Path_13660" data-name="Path 13660" d="M286.318,443.147H191.491a1.371,1.371,0,1,1,0-2.742h94.827c13.709,0,15.533-4,15.533-19.878V220.371a1.371,1.371,0,1,1,2.742,0V420.527C304.593,437.5,301.96,443.147,286.318,443.147Z" transform="translate(70.521 5.832)" fill="#e0e0e0"/>
      <rect id="Rectangle_3985" data-name="Rectangle 3985" width="299.164" height="14.011" transform="translate(572.281 276.736) rotate(180)" fill="#f0f0f0"/>
      <rect id="Rectangle_3986" data-name="Rectangle 3986" width="96.061" height="186.844" transform="translate(179.222 261.998)" fill="#f5f5f5"/>
      <rect id="Rectangle_3987" data-name="Rectangle 3987" width="7.924" height="186.844" transform="translate(267.345 261.998)" fill="#f0f0f0"/>
      <rect id="Rectangle_3988" data-name="Rectangle 3988" width="332.725" height="82.434" transform="translate(207.257 116.118) rotate(90)" fill="#fafafa"/>
      <rect id="Rectangle_3989" data-name="Rectangle 3989" width="73.386" height="73.386" transform="translate(202.733 125.838) rotate(90)" fill="#f5f5f5"/>
      <path id="Path_13661" data-name="Path 13661" d="M109.26,146.07h32.546a7.609,7.609,0,0,1-7.609,7.609H116.924a7.609,7.609,0,0,1-7.663-7.609Z" transform="translate(40.528 -21.219)" fill="#e0e0e0"/>
      <rect id="Rectangle_3990" data-name="Rectangle 3990" width="73.386" height="73.386" transform="translate(202.719 205.804) rotate(90)" fill="#f5f5f5"/>
      <rect id="Rectangle_3991" data-name="Rectangle 3991" width="73.386" height="73.386" transform="translate(202.733 285.77) rotate(90)" fill="#f5f5f5"/>
      <rect id="Rectangle_3992" data-name="Rectangle 3992" width="73.386" height="73.386" transform="translate(202.733 365.75) rotate(90)" fill="#f5f5f5"/>
      <path id="Path_13662" data-name="Path 13662" d="M109.26,204.41h32.546a7.622,7.622,0,0,1-7.609,7.609H116.924a7.622,7.622,0,0,1-7.663-7.609Z" transform="translate(40.528 0.421)" fill="#e0e0e0"/>
      <path id="Path_13663" data-name="Path 13663" d="M109.26,262.74h32.546a7.609,7.609,0,0,1-7.609,7.609H116.924a7.609,7.609,0,0,1-7.663-7.609Z" transform="translate(40.528 22.057)" fill="#e0e0e0"/>
      <path id="Path_13664" data-name="Path 13664" d="M109.26,321.07h32.546a7.609,7.609,0,0,1-7.609,7.609H116.924a7.609,7.609,0,0,1-7.663-7.609Z" transform="translate(40.528 43.693)" fill="#e0e0e0"/>
      <rect id="Rectangle_3993" data-name="Rectangle 3993" width="332.725" height="41.169" transform="translate(124.823 116.118) rotate(90)" fill="#f0f0f0"/>
      <path id="Path_13665" data-name="Path 13665" d="M269.995,257.023H249.28l5.031-40.333H275.04Z" transform="translate(92.465 4.976)" fill="#f0f0f0"/>
      <path id="Path_13666" data-name="Path 13666" d="M273.348,257.023H252.62l5.045-40.333H278.38Z" transform="translate(93.704 4.976)" fill="#f5f5f5"/>
      <path id="Path_13667" data-name="Path 13667" d="M304.99,247.345H290.005l-2.865-4.565h14.971Z" transform="translate(106.509 14.653)" fill="#f0f0f0"/>
      <path id="Path_13668" data-name="Path 13668" d="M384.032,247.345H293.345l-2.865-4.565H371.8Z" transform="translate(107.748 14.653)" fill="#fafafa"/>
      <path id="Path_13669" data-name="Path 13669" d="M219.6,237.67h6.553a11.571,11.571,0,0,1,11.571,11.571H208a11.571,11.571,0,0,1,11.6-11.571Z" transform="translate(77.153 12.758)" fill="#f0f0f0"/>
      <path id="Path_13670" data-name="Path 13670" d="M275.175,236.856H254.46l2.522-20.166H277.7Z" transform="translate(94.387 4.976)" fill="#f0f0f0"/>
      <path id="Path_13671" data-name="Path 13671" d="M217.595,253.433H364.284a2.029,2.029,0,0,0,2.015-2.289L355,160.772a2.029,2.029,0,0,0-2.015-1.782H206.339a2.029,2.029,0,0,0-2.015,2.276l11.3,90.385A2.029,2.029,0,0,0,217.595,253.433Z" transform="translate(75.784 -16.427)" fill="#f0f0f0"/>
      <path id="Path_13672" data-name="Path 13672" d="M219.226,253.433H365.819a2.029,2.029,0,0,0,2.015-2.289l-11.3-90.372a2.043,2.043,0,0,0-2.015-1.782H207.929a2.029,2.029,0,0,0-2.015,2.276l11.3,90.385a2.029,2.029,0,0,0,2.015,1.782Z" transform="translate(76.374 -16.427)" fill="#f5f5f5"/>
      <path id="Path_13673" data-name="Path 13673" d="M361.823,247.25l-10.57-84.586a.576.576,0,0,0-.576-.494H209.924a.548.548,0,0,0-.562.631l10.57,84.6a.562.562,0,0,0,.562.493H361.261a.576.576,0,0,0,.562-.644Z" transform="translate(77.656 -15.248)" fill="#e0e0e0"/>
      <path id="Path_13674" data-name="Path 13674" d="M0,0H33.752V.425a3.359,3.359,0,0,1-3.359,3.359H3.359A3.359,3.359,0,0,1,0,.425Z" transform="translate(385.903 261.998) rotate(180)" fill="#fafafa"/>
      <path id="Path_13675" data-name="Path 13675" d="M0,0H22.895V.425a3.359,3.359,0,0,1-3.359,3.359H3.359A3.359,3.359,0,0,1,0,.425Z" transform="translate(356.085 261.998) rotate(180)" fill="#f0f0f0"/>
      <path id="Path_13676" data-name="Path 13676" d="M128.371,117.457v-.069c.315-1.056.617-2.125.877-3.194a5.566,5.566,0,0,0,4.3,2.591h.37c2.289-.219,4.483-2.44,5.868-5.936a.507.507,0,0,0,0-.4.535.535,0,0,0-.315-.26,12.05,12.05,0,0,0-9.692,1.686c.206-1.014.384-2.043.535-3.057a6.073,6.073,0,0,0,1.1.11c3.729,0,6.471-3.331,6.608-3.5a.494.494,0,0,0-.206-.768,6.855,6.855,0,0,0-5.607-.219A4.976,4.976,0,0,0,130,106.681a12.256,12.256,0,0,0-9.72-8.308.5.5,0,0,0-.589.452c-.192,3.386-.082,7.54,2.454,9.514a5.785,5.785,0,0,0,3.674,1.124,13.381,13.381,0,0,0,3.482-.548,55.17,55.17,0,0,1-1.577,7.252,19.193,19.193,0,0,0-10.021-7.047.507.507,0,0,0-.6.356c-.768,2.92-.37,5.292,1.138,6.855a7.677,7.677,0,0,0,5.676,1.947,17,17,0,0,0,3.29-.343c-.631,2-1.371,3.962-2.07,5.826-1.522-1.371-6-4.771-10.885-3.345a.521.521,0,0,0-.3.26.507.507,0,0,0,0,.4c1.371,3.235,2.838,5.031,4.73,5.648a4.908,4.908,0,0,0,1.563.247,8.911,8.911,0,0,0,4.113-1.206c-1.042,2.481-2.152,4.8-3.208,6.855a9.953,9.953,0,0,0-9.83-2.6.48.48,0,0,0-.384.521,5.95,5.95,0,0,0,3.551,4.771,5.73,5.73,0,0,0,2.289.466,6.772,6.772,0,0,0,3.126-.809c-1.069,1.988-2.056,3.647-2.824,4.908h-9.322c-1.481-2.536-3.194-5.689-4.867-9.226a8.884,8.884,0,0,0,2.4.37,6.512,6.512,0,0,0,6.389-8.13.48.48,0,0,0-.535-.343,11.913,11.913,0,0,0-9.213,5.991c-1.1-2.468-2.166-5.086-3.1-7.787a8.664,8.664,0,0,0,3.88,1.124,4.661,4.661,0,0,0,1.59-.26c2.742-.9,4.318-4.209,5.662-7.636a.452.452,0,0,0,0-.4.507.507,0,0,0-.315-.26c-5.484-1.535-9.994,3.743-11.392,5.635A67.259,67.259,0,0,1,96.428,112a19.191,19.191,0,0,0,3.5.356,8.527,8.527,0,0,0,6.416-2.248c1.659-1.755,2.056-4.387,1.165-7.595a.48.48,0,0,0-.6-.343,21,21,0,0,0-10.844,7.855l-.206-1.248a.521.521,0,0,0-.137-.288,6.018,6.018,0,0,0-3.112-3.77,7.513,7.513,0,0,0-6.142.329.535.535,0,0,0-.3.343.48.48,0,0,0,.11.425c.137.178,3.153,3.743,7.211,3.743a7.13,7.13,0,0,0,1.3-.137c.178,1.165.4,2.331.644,3.482a13.243,13.243,0,0,0-10.721-1.727.481.481,0,0,0-.315.672c1.577,3.811,4.017,6.224,6.539,6.43h.343c1.275,0,3-.59,4.757-2.934a77.352,77.352,0,0,0,2.5,7.869c-2.372-1.124-7.7-3.057-11.516-.11a.48.48,0,0,0-.1.685c2.468,3.359,4.743,4.99,6.978,4.99h0c1.851,0,3.619-1.165,5.388-3.468,1.014,2.523,2.111,4.935,3.194,7.156-2.372-1.467-4.976-1.234-8.047.7a.48.48,0,0,0-.233.411.452.452,0,0,0,.206.411,12.146,12.146,0,0,0,6.238,2.262,5.484,5.484,0,0,0,3.249-.987c.877,1.686,1.741,3.235,2.536,4.62h-4.236V142.3h1.535L105,155.075h18.768l1.261-12.777h1.549v-2.413h-8.431c.932-1.549,2.125-3.619,3.4-6.046a.466.466,0,0,0,.082-.165c.329-.617.644-1.248.973-1.906a6.334,6.334,0,0,0,5.072,2.838,4.864,4.864,0,0,0,.631,0,6.087,6.087,0,0,0,5.018-3.921.48.48,0,0,0-.219-.589,10.405,10.405,0,0,0-9.487-.384c.713-1.494,1.371-3.1,2.084-4.757a.4.4,0,0,0,.1-.219c.192-.466.37-.932.562-1.371,1.631,2.056,3.249,3.071,4.935,3.071h0c2.043,0,4.113-1.508,6.334-4.62a.494.494,0,0,0-.1-.685c-3.5-2.618-8.226-.823-10.447.219.452-1.234.864-2.481,1.248-3.756Z" transform="translate(31.288 -38.916)" fill="#e0e0e0"/>
      <rect id="Rectangle_3994" data-name="Rectangle 3994" width="70.109" height="76.978" transform="translate(481.649 72.755)" fill="#e0e0e0"/>
      <path id="Path_13677" data-name="Path 13677" d="M408.021,113.248a.384.384,0,0,1-.178,0c-.165-.11-16.725-9.953-21.935-9.953s-21.044,9.843-21.208,9.939a.329.329,0,0,1-.466-.11.343.343,0,0,1,.11-.466c.658-.411,16.108-10.049,21.565-10.049s21.661,9.6,22.346,10.049a.319.319,0,0,1-.233.59Z" transform="translate(135.087 -37.34)" fill="#ebebeb"/>
      <rect id="Rectangle_3995" data-name="Rectangle 3995" width="72.413" height="76.978" transform="translate(486.927 72.755)" fill="#f5f5f5"/>
      <rect id="Rectangle_3996" data-name="Rectangle 3996" width="64.845" height="60.28" transform="translate(553.28 78.815) rotate(90)" fill="#fff"/>
      <circle id="Ellipse_855" data-name="Ellipse 855" cx="16.52" cy="16.52" r="16.52" transform="translate(499.773 111.237) rotate(-45)" fill="#e0e0e0"/>
      <path id="Path_13678" data-name="Path 13678" d="M380.57,354.73h61.445a21.523,21.523,0,0,0,21.537-21.1l2.3-112.5a15.7,15.7,0,0,0-15.7-16.012H411.635a15.683,15.683,0,0,0-15.588,13.915Z" transform="translate(141.165 0.684)" fill="#e6e6e6"/>
      <path id="Path_13679" data-name="Path 13679" d="M0,0H65.476a3.071,3.071,0,0,1,3.071,3.071v.288a8.418,8.418,0,0,1-8.418,8.418H0Z" transform="translate(555.268 355.413) rotate(180)" fill="#e6e6e6"/>
      <path id="Path_13680" data-name="Path 13680" d="M421.817,409.585a1.371,1.371,0,0,1-1.371-1.083l-19.193-92.51H367.8L348.61,408.5a1.4,1.4,0,1,1-2.742-.562l19.44-93.593a1.371,1.371,0,0,1,1.371-1.1h35.644a1.371,1.371,0,0,1,1.371,1.1L423.12,407.94a1.371,1.371,0,0,1-1.056,1.618,1.03,1.03,0,0,1-.247.027Z" transform="translate(128.282 40.792)" fill="#e6e6e6"/>
      <path id="Path_13681" data-name="Path 13681" d="M386.421,409.578a.929.929,0,0,1-.274,0,1.371,1.371,0,0,1-1.069-1.618l19.44-93.593a1.371,1.371,0,0,1,1.371-1.1h35.644a1.371,1.371,0,0,1,1.371,1.1l19.426,93.593a1.4,1.4,0,1,1-2.742.562l-19.193-92.51H406.917l-19.193,92.51A1.371,1.371,0,0,1,386.421,409.578Z" transform="translate(142.826 40.8)" fill="#e6e6e6"/>
    </g>
    <g id="freepik--Shadow--inject-61" transform="translate(76.923 534.716)">
      <ellipse id="Ellipse_856" data-name="Ellipse 856" cx="265.81" cy="15.519" rx="265.81" ry="15.519" fill="#f5f5f5"/>
    </g>
    <g id="freepik--Character--inject-61" transform="translate(187.881 181.043)">
      <path id="Path_13682" data-name="Path 13682" d="M294.964,443.117a1.864,1.864,0,0,1-1.823-1.494L267.093,313.359H221.729L195.681,441.623a1.864,1.864,0,0,1-3.647-.74l26.349-129.758a1.878,1.878,0,0,1,1.823-1.494H268.6a1.864,1.864,0,0,1,1.823,1.494l26.363,129.759a1.864,1.864,0,0,1-1.453,2.193Z" transform="translate(-116.656 -86.593)" fill="#007bff"/>
      <path id="Path_13683" data-name="Path 13683" d="M241.867,443.117a1.878,1.878,0,0,1-1.823-1.494L214,313.359H168.632L142.584,441.623a1.864,1.864,0,1,1-3.647-.74L165.3,311.124a1.864,1.864,0,0,1,1.823-1.494h48.394a1.851,1.851,0,0,1,1.81,1.494L243.69,440.883a1.864,1.864,0,0,1-1.453,2.193Z" transform="translate(-136.37 -86.593)" fill="#007bff"/>
      <path id="Path_13684" data-name="Path 13684" d="M252.73,358.9H169.378a29.23,29.23,0,0,1-29.228-28.645l-3.1-126.668a21.291,21.291,0,0,1,21.277-21.729h52.26a21.3,21.3,0,0,1,21.153,18.891Z" transform="translate(-137.047 -133.987)" fill="#007bff"/>
      <path id="Path_13685" data-name="Path 13685" d="M188.27,299.3h81.57a11.42,11.42,0,0,1,11.42,11.42v.4a4.113,4.113,0,0,1-4.113,4.113H188.27Z" transform="translate(-118.046 -90.425)" fill="#007bff"/>
      <g id="Group_12789" data-name="Group 12789" transform="translate(0 47.873)" opacity="0.3">
        <path id="Path_13686" data-name="Path 13686" d="M294.964,443.117a1.864,1.864,0,0,1-1.823-1.494L267.093,313.359H221.729L195.681,441.623a1.864,1.864,0,0,1-3.647-.74l26.349-129.758a1.878,1.878,0,0,1,1.823-1.494H268.6a1.864,1.864,0,0,1,1.823,1.494l26.363,129.759a1.864,1.864,0,0,1-1.453,2.193Z" transform="translate(-116.656 -134.466)"/>
        <path id="Path_13687" data-name="Path 13687" d="M241.867,443.117a1.878,1.878,0,0,1-1.823-1.494L214,313.359H168.632L142.584,441.623a1.864,1.864,0,1,1-3.647-.74L165.3,311.124a1.864,1.864,0,0,1,1.823-1.494h48.394a1.851,1.851,0,0,1,1.81,1.494L243.69,440.883a1.864,1.864,0,0,1-1.453,2.193Z" transform="translate(-136.37 -134.466)"/>
        <path id="Path_13688" data-name="Path 13688" d="M252.73,358.9H169.378a29.23,29.23,0,0,1-29.228-28.645l-3.1-126.668a21.291,21.291,0,0,1,21.277-21.729h52.26a21.3,21.3,0,0,1,21.153,18.891Z" transform="translate(-137.047 -181.86)"/>
        <path id="Path_13689" data-name="Path 13689" d="M188.27,299.3h81.57a11.42,11.42,0,0,1,11.42,11.42v.4a4.113,4.113,0,0,1-4.113,4.113H188.27Z" transform="translate(-118.046 -138.298)"/>
      </g>
      <path id="Path_13690" data-name="Path 13690" d="M216.642,178.537s11.653,15.217,4.113,45.515S174.308,237.9,171.95,210.589c-2.742-32.189,33.4-9.994,39.757-38.619Z" transform="translate(-124.155 -137.656)" fill="#263238"/>
      <path id="Path_13691" data-name="Path 13691" d="M199.647,170.17c-5.059,3.564-7.06,8.747-1.467,13.819s13.572,4.908,15.985,2.824,1.933-12.667,1.933-12.667Z" transform="translate(-115.618 -138.323)" fill="#007bff"/>
      <path id="Path_13692" data-name="Path 13692" d="M199.647,170.17c-5.059,3.564-7.06,8.747-1.467,13.819s13.572,4.908,15.985,2.824,1.933-12.667,1.933-12.667Z" transform="translate(-115.618 -138.323)" fill="#fff" opacity="0.8"/>
      <path id="Path_13693" data-name="Path 13693" d="M248.894,219.36c.137.617.37,1.577.589,2.385l.658,2.577c.466,1.727.973,3.455,1.508,5.182,1.014,3.482,2.139,6.951,3.318,10.419s2.385,6.855,3.7,10.364c.644,1.714,1.289,3.441,1.974,5.155l.8,2.056a4.114,4.114,0,0,0,.617.973,18.178,18.178,0,0,0,6.951,4.387,63.883,63.883,0,0,0,9.871,3.071c3.482.809,7.06,1.481,10.68,2.043s7.334,1.014,10.9,1.371l.123,7.376a114.333,114.333,0,0,1-23.525,0,69.22,69.22,0,0,1-12.078-2.344,40.652,40.652,0,0,1-6.224-2.454,23.84,23.84,0,0,1-6.251-4.4,17.3,17.3,0,0,1-2.742-3.551c-.206-.329-.384-.7-.576-1.042l-.356-.74-.631-1.371c-.85-1.741-1.7-3.482-2.481-5.251-1.59-3.537-3.139-7.1-4.524-10.734s-2.742-7.293-3.893-10.967c-.562-1.892-1.11-3.77-1.618-5.7l-.754-2.893c-.219-1.042-.425-1.906-.644-3.139Z" transform="translate(-100.98 -120.077)" fill="#e58a7b"/>
      <path id="Path_13694" data-name="Path 13694" d="M246.415,208.257c5.881,1.494,9.98,25.678,9.98,25.678L240.2,244.9s-15.533-24.4-10.967-30.86C233.912,207.407,237.833,206.118,246.415,208.257Z" transform="translate(-103.162 -124.548)" fill="#007bff"/>
      <path id="Path_13695" data-name="Path 13695" d="M246.415,208.257c5.881,1.494,9.98,25.678,9.98,25.678L240.2,244.9s-15.533-24.4-10.967-30.86C233.912,207.407,237.833,206.118,246.415,208.257Z" transform="translate(-103.162 -124.548)" fill="#fff" opacity="0.5"/>
      <path id="Path_13696" data-name="Path 13696" d="M243.809,212.44,229.73,223.6a124.214,124.214,0,0,0,9.967,19.495l11.228-7.636Z" transform="translate(-102.668 -122.644)" fill="#007bff" opacity="0.2"/>
      <path id="Path_13697" data-name="Path 13697" d="M261.83,209.117s6.855,2.385-6.855,86.053H197.095c.973-23.566,1-38.1-10.255-86.478a171.7,171.7,0,0,1,24.581-3.235,184.957,184.957,0,0,1,26.308,0C249.025,206.54,261.83,209.117,261.83,209.117Z" transform="translate(-118.577 -125.408)" fill="#007bff"/>
      <path id="Path_13698" data-name="Path 13698" d="M261.83,209.117s6.855,2.385-6.855,86.053H197.095c.973-23.566,1-38.1-10.255-86.478a171.7,171.7,0,0,1,24.581-3.235,184.957,184.957,0,0,1,26.308,0C249.025,206.54,261.83,209.117,261.83,209.117Z" transform="translate(-118.577 -125.408)" fill="#fff" opacity="0.5"/>
      <path id="Path_13699" data-name="Path 13699" d="M281.364,258.545l10.1-10.255,1.371,14.45s-7.581,5.127-12.818,2.372Z" transform="translate(-84.014 -109.346)" fill="#e58a7b"/>
      <path id="Path_13700" data-name="Path 13700" d="M300.29,247.18l.452,12.146-11.022,3.825-1.33-14.45Z" transform="translate(-80.909 -109.758)" fill="#e58a7b"/>
      <path id="Path_13701" data-name="Path 13701" d="M284.46,406.236h14.258l2.193-33.026H286.654Z" transform="translate(-82.367 -63.01)" fill="#e58a7b"/>
      <path id="Path_13702" data-name="Path 13702" d="M244.21,406.236h14.258l4.579-33.026H248.789Z" transform="translate(-97.297 -63.01)" fill="#e58a7b"/>
      <path id="Path_13703" data-name="Path 13703" d="M260.4,396.09H244.374a1.124,1.124,0,0,0-1.138.973l-1.823,12.681a2.3,2.3,0,0,0,2.289,2.536c5.58-.1,8.226-.425,15.313-.425,4.332,0,15.45.452,21.441.452s6.306-5.922,3.811-6.457c-11.173-2.413-17.726-5.717-21.5-8.884a3.66,3.66,0,0,0-2.372-.877Z" transform="translate(-98.338 -54.523)" fill="#263238"/>
      <path id="Path_13704" data-name="Path 13704" d="M300.8,396.09h-16a1.138,1.138,0,0,0-1.138.973l-1.823,12.681a2.3,2.3,0,0,0,2.289,2.536c5.58-.1,8.226-.425,15.313-.425,4.346,0,13.3.452,19.289.452s6.306-5.922,3.811-6.457c-11.173-2.413-15.574-5.717-19.33-8.884a3.715,3.715,0,0,0-2.413-.877Z" transform="translate(-83.342 -54.523)" fill="#263238"/>
      <path id="Path_13705" data-name="Path 13705" d="M236.635,162.72c5.127.329,7.732,26.048-7.307,24.553S236.635,162.72,236.635,162.72Z" transform="translate(-104.747 -141.087)" fill="#263238"/>
      <path id="Path_13706" data-name="Path 13706" d="M300.626,373.21l-1.138,17.027H285.23l1.124-17.027Z" transform="translate(-82.081 -63.01)" fill="#cf6f64"/>
      <path id="Path_13707" data-name="Path 13707" d="M248.192,373.21h14.271l-2.372,17.027H245.82Z" transform="translate(-96.699 -63.01)" fill="#cf6f64"/>
      <path id="Path_13708" data-name="Path 13708" d="M191.06,229.384c1.371,7.019,2.344,13.079,3.085,18.535l3.386-26.2Z" transform="translate(-117.012 -119.202)" fill="#007bff" opacity="0.2"/>
      <path id="Path_13709" data-name="Path 13709" d="M207.375,183.77c1.659,8.459,3.318,23.964-2.6,29.612,0,0,2.317,8.582,18.041,8.582,17.287,0,8.226-8.582,8.226-8.582-9.446-2.248-9.2-9.254-7.554-15.821Z" transform="translate(-111.926 -133.279)" fill="#e58a7b"/>
      <path id="Path_13710" data-name="Path 13710" d="M215.65,213.871l5.264-1.892-.7-1.439Z" transform="translate(-107.89 -123.349)" fill="#263238"/>
      <path id="Path_13711" data-name="Path 13711" d="M224.439,212.819l-4.949-.8,1.069-1.6Z" transform="translate(-106.466 -123.393)" fill="#263238"/>
      <path id="Path_13712" data-name="Path 13712" d="M207.183,202.5l-3.578,3.482a.589.589,0,0,0,0,.823l15.08,17.178a16.972,16.972,0,0,1,6.142-10.337c-12.475-4.716-15.725-9.6-16.835-10.967a.48.48,0,0,0-.809-.178Z" transform="translate(-112.42 -126.388)" fill="#007bff"/>
      <path id="Path_13713" data-name="Path 13713" d="M222.491,204.382l4.442,1.206a.781.781,0,0,1,.548.562,33.19,33.19,0,0,1-.685,17.013c-.631-2.331-2.742-7.91-6.526-10.5,4.113-2.838,2.454-6.5,1.864-7.883a.3.3,0,0,1,.356-.4Z" transform="translate(-106.177 -125.636)" fill="#007bff"/>
      <path id="Path_13714" data-name="Path 13714" d="M211.56,187.87l9.6,8.157a28.392,28.392,0,0,0-.809,4.661c-3.606-.521-8.555-4.469-8.938-8.226A12.461,12.461,0,0,1,211.56,187.87Z" transform="translate(-109.517 -131.758)" fill="#cf6f64"/>
      <path id="Path_13715" data-name="Path 13715" d="M206.343,172.192c-1.631,14.052-2.632,19.974,3.126,28.365,8.637,12.626,26.267,11.557,32.066-1.727,5.223-11.955,7.005-32.9-5.607-40.909a19.3,19.3,0,0,0-29.585,14.271Z" transform="translate(-111.813 -143.992)" fill="#e58a7b"/>
      <path id="Path_13716" data-name="Path 13716" d="M241.722,151.517c-23.237-9.172-40.689,1.179-44.295,15.889-5.662,22.84,12.421,24.444,12.421,24.444l2.262-5.84c3.249,1.96,12.338,1.1,9.6-15.862-1.618-9.6,10.529,3.77,25.938,2.276C251.743,172.026,257.35,157.686,241.722,151.517Z" transform="translate(-115.057 -146.526)" fill="#263238"/>
      <path id="Path_13717" data-name="Path 13717" d="M241.234,157.578c-3.057-4.7-9.309-8.733-22.264-10.638,0,0,6.731,1.522,8.911,6.443S244.922,163.24,241.234,157.578Z" transform="translate(-106.659 -146.94)" fill="#263238"/>
      <path id="Path_13718" data-name="Path 13718" d="M202.747,177.648a10.3,10.3,0,0,0,2.509,7.485c2.4,2.742,5.552,1.056,6.539-2.235.877-2.975.7-7.965-2.509-9.473S203.007,174.3,202.747,177.648Z" transform="translate(-112.686 -137.287)" fill="#e58a7b"/>
      <path id="Path_13719" data-name="Path 13719" d="M248.095,270.81s95.609,8.9,94.676,52.37c-.973,45.241-10.652,101.75-10.652,101.75H312.364s-1.686-47.818-2.262-92.36c-.288-23.2-92.675-27.844-92.675-27.844L205.5,270.81Z" transform="translate(-111.655 -100.993)" fill="#263238"/>
      <path id="Path_13720" data-name="Path 13720" d="M237.6,270.81s61.788,20.5,63.351,45.858c2.865,46.694-17.658,108.3-17.658,108.3H263.841s1.11-40.854,3.427-83.161c2.934-53.165-90.865-.74-72.289-70.959Z" transform="translate(-116.462 -100.993)" fill="#263238"/>
      <path id="Path_13721" data-name="Path 13721" d="M220.844,173.593c-.206,1.124.233,2.152.973,2.289s1.494-.685,1.7-1.81-.233-2.166-.973-2.289S221.077,172.455,220.844,173.593Z" transform="translate(-105.983 -137.73)" fill="#263238"/>
      <path id="Path_13722" data-name="Path 13722" d="M230.174,175.263c-.206,1.124.233,2.152.973,2.289s1.508-.685,1.714-1.81-.233-2.166-.973-2.289S230.379,174.125,230.174,175.263Z" transform="translate(-102.522 -137.11)" fill="#263238"/>
      <path id="Path_13723" data-name="Path 13723" d="M231.16,173.532l2.865-.3S232.312,175.108,231.16,173.532Z" transform="translate(-102.137 -137.188)" fill="#263238"/>
      <path id="Path_13724" data-name="Path 13724" d="M227.811,175.74a31.011,31.011,0,0,0,2.742,7.951,4.963,4.963,0,0,1-4.113,0Z" transform="translate(-103.888 -136.257)" fill="#df5753"/>
      <path id="Path_13725" data-name="Path 13725" d="M224.926,185.682h0a9.692,9.692,0,0,1-7.1-5.141.219.219,0,0,1,.11-.288.233.233,0,0,1,.288.123,9.226,9.226,0,0,0,6.7,4.881.233.233,0,0,1,.178.26A.219.219,0,0,1,224.926,185.682Z" transform="translate(-107.091 -134.588)" fill="#263238"/>
      <path id="Path_13726" data-name="Path 13726" d="M218.761,170.107a.4.4,0,0,1-.315-.137.411.411,0,0,1,0-.6,6.444,6.444,0,0,1,5.676-1.727.439.439,0,0,1,.3.521.425.425,0,0,1-.521.315,5.566,5.566,0,0,0-4.88,1.522A.466.466,0,0,1,218.761,170.107Z" transform="translate(-106.902 -139.302)" fill="#263238"/>
      <path id="Path_13727" data-name="Path 13727" d="M236.511,172.257a.411.411,0,0,1-.4-.26,5.635,5.635,0,0,0-3.866-3.345.432.432,0,1,1,.151-.85,6.4,6.4,0,0,1,4.5,3.852.439.439,0,0,1-.219.576Z" transform="translate(-101.868 -139.204)" fill="#263238"/>
      <path id="Path_13728" data-name="Path 13728" d="M199.835,224.086c-1.248,4.113-2.591,8.226-3.784,12.448s-2.454,8.335-3.537,12.517-2.111,8.322-2.879,12.338c-.37,2.029-.713,4.044-.9,5.936-.11.946-.164,1.837-.178,2.66,0,.192,0,0-.137-.315a3.441,3.441,0,0,0-.685-1c-.7-.6-.96-.494-.644-.4a6.432,6.432,0,0,0,1.755.178,29.927,29.927,0,0,0,5.484-.7,102.259,102.259,0,0,0,12.05-3.441c8.1-2.742,16.328-6.087,24.334-9.5l3.537,6.457a192.124,192.124,0,0,1-23.758,13.271,101.106,101.106,0,0,1-13.147,5.114,40.635,40.635,0,0,1-7.677,1.549,19.193,19.193,0,0,1-4.881-.123,12.463,12.463,0,0,1-3.112-.891,10.763,10.763,0,0,1-3.427-2.358,11.146,11.146,0,0,1-3.057-7.4,34.947,34.947,0,0,1,0-3.976c.1-2.536.329-4.935.644-7.28.658-4.689,1.508-9.213,2.55-13.709s2.152-8.842,3.372-13.2,2.536-8.637,4.113-13Z" transform="translate(-122.921 -120.114)" fill="#e58a7b"/>
      <path id="Path_13729" data-name="Path 13729" d="M259.884,398.767a16.653,16.653,0,0,1-3.743-.521.233.233,0,0,1-.082-.425c.48-.315,4.757-3.085,6.389-2.358a1.028,1.028,0,0,1,.6.877,1.8,1.8,0,0,1-.521,1.7,4,4,0,0,1-2.646.727Zm-3.085-.85c2.646.548,4.634.48,5.4-.233a1.371,1.371,0,0,0,.384-1.275.59.59,0,0,0-.343-.507C261.2,395.435,258.307,396.984,256.8,397.917Z" transform="translate(-92.941 -54.8)" fill="#007bff"/>
      <path id="Path_13730" data-name="Path 13730" d="M256.2,399.156h-.123a.247.247,0,0,1-.123-.219c0-.164,0-4.222,1.535-5.566a1.6,1.6,0,0,1,1.371-.425,1.069,1.069,0,0,1,1.056.85c.288,1.481-2.1,4.51-3.592,5.36Zm2.413-5.785a1.179,1.179,0,0,0-.809.329c-1.083.96-1.3,3.674-1.371,4.757,1.371-.987,3.208-3.482,2.975-4.593,0-.178-.137-.411-.631-.48Z" transform="translate(-92.942 -55.697)" fill="#007bff"/>
      <path id="Path_13731" data-name="Path 13731" d="M300.846,398.765a24.945,24.945,0,0,1-4.483-.507.261.261,0,0,1-.192-.206.233.233,0,0,1,.137-.247c.631-.329,6.265-3.208,7.979-2.276a1.015,1.015,0,0,1,.521.823,1.755,1.755,0,0,1-.576,1.549,5.25,5.25,0,0,1-3.386.864Zm-3.688-.85c1.837.315,5.484.768,6.745-.357a1.371,1.371,0,0,0,.425-1.165.521.521,0,0,0-.274-.452c-1.124-.6-4.908,1-6.9,1.974Z" transform="translate(-78.024 -54.799)" fill="#007bff"/>
      <path id="Path_13732" data-name="Path 13732" d="M296.417,399.166a.233.233,0,0,1-.137,0,.288.288,0,0,1-.11-.219c0-.164.343-3.962,2.1-5.484a2.357,2.357,0,0,1,1.8-.548c.877.082,1.124.521,1.193.864.247,1.577-3.071,4.593-4.743,5.347Zm3.386-5.785a1.81,1.81,0,0,0-1.22.466c-1.289,1.069-1.741,3.633-1.878,4.661,1.8-1,4.25-3.578,4.113-4.634,0-.11,0-.411-.754-.48Z" transform="translate(-78.023 -55.707)" fill="#007bff"/>
      <path id="Path_13733" data-name="Path 13733" d="M216.806,246.277l13.517-3.427-6.443,12.983s-9.144.4-12.16-4.7Z" transform="translate(-109.348 -111.364)" fill="#e58a7b"/>
      <path id="Path_13734" data-name="Path 13734" d="M237.96,247.772l-5.977,10.584-11.392-2.523,6.443-12.983Z" transform="translate(-106.058 -111.364)" fill="#e58a7b"/>
      <path id="Path_13735" data-name="Path 13735" d="M221.82,171.862l2.865-.3S222.917,173.438,221.82,171.862Z" transform="translate(-105.602 -137.808)" fill="#263238"/>
      <path id="Path_13736" data-name="Path 13736" d="M193.828,268.446l-.466,5.182c-.192.411.274.823.946.823H252.9c.521,0,.946-.26.987-.59l.521-5.182c0-.356-.425-.658-.987-.658H194.774A1.069,1.069,0,0,0,193.828,268.446Z" transform="translate(-116.174 -102.029)" fill="#007bff"/>
      <path id="Path_13737" data-name="Path 13737" d="M200.011,275.138h-1.577c-.315,0-.548-.164-.535-.356l.74-6.745c0-.192.3-.356.617-.356h1.522c.315,0,.548.164.535.356l-.74,6.745C200.587,274.973,200.313,275.138,200.011,275.138Z" transform="translate(-114.475 -102.154)" fill="#263238"/>
      <path id="Path_13738" data-name="Path 13738" d="M234.131,275.138h-1.577c-.315,0-.548-.164-.535-.356l.74-6.745c0-.192.3-.356.617-.356h1.563c.315,0,.548.164.535.356l-.74,6.745C234.735,274.973,234.433,275.138,234.131,275.138Z" transform="translate(-101.818 -102.154)" fill="#263238"/>
      <path id="Path_13739" data-name="Path 13739" d="M217.071,275.138h-1.577c-.315,0-.548-.164-.535-.356l.74-6.745c0-.192.3-.356.617-.356h1.563c.315,0,.548.164.535.356l-.74,6.745C217.647,274.973,217.387,275.138,217.071,275.138Z" transform="translate(-108.147 -102.154)" fill="#263238"/>
      <path id="Path_13740" data-name="Path 13740" d="M190.3,207.816c-5.813,1.768-12.777,21.743-12.777,21.743l18.713,18.274s12.009-18.85,9.6-26.349C203.266,213.669,196.919,205.814,190.3,207.816Z" transform="translate(-122.034 -124.477)" fill="#007bff"/>
      <path id="Path_13741" data-name="Path 13741" d="M190.3,207.816c-5.813,1.768-12.777,21.743-12.777,21.743l18.713,18.274s12.009-18.85,9.6-26.349C203.266,213.669,196.919,205.814,190.3,207.816Z" transform="translate(-122.034 -124.477)" fill="#fff" opacity="0.5"/>
    </g>
    <g id="freepik--Desk--inject-61" transform="translate(246.726 333.299)">
      <rect id="Rectangle_3997" data-name="Rectangle 3997" width="109.071" height="212.151" transform="translate(211.301 3.318)" fill="#007bff"/>
      <rect id="Rectangle_3998" data-name="Rectangle 3998" width="109.071" height="212.151" transform="translate(211.301 3.318)" fill="#fff" opacity="0.6"/>
      <rect id="Rectangle_3999" data-name="Rectangle 3999" width="109.071" height="212.151" transform="translate(0 3.318)" fill="#007bff"/>
      <rect id="Rectangle_4000" data-name="Rectangle 4000" width="109.071" height="212.151" transform="translate(0 3.318)" fill="#fff" opacity="0.6"/>
      <rect id="Rectangle_4001" data-name="Rectangle 4001" width="8.993" height="212.151" transform="translate(315.465 3.318)" fill="#007bff"/>
      <rect id="Rectangle_4002" data-name="Rectangle 4002" width="8.993" height="212.151" transform="translate(315.465 3.318)" opacity="0.3"/>
      <rect id="Rectangle_4003" data-name="Rectangle 4003" width="216.867" height="15.916" transform="translate(327.241 19.234) rotate(180)" fill="#007bff"/>
      <rect id="Rectangle_4004" data-name="Rectangle 4004" width="216.867" height="15.916" transform="translate(327.241 19.234) rotate(180)" opacity="0.3"/>
      <rect id="Rectangle_4005" data-name="Rectangle 4005" width="8.993" height="212.151" transform="translate(104.177 3.318)" fill="#007bff"/>
      <rect id="Rectangle_4006" data-name="Rectangle 4006" width="8.993" height="212.151" transform="translate(104.177 3.318)" opacity="0.3"/>
      <rect id="Rectangle_4007" data-name="Rectangle 4007" width="210.109" height="45.83" transform="translate(319.961 54.069) rotate(180)" fill="#007bff"/>
      <rect id="Rectangle_4008" data-name="Rectangle 4008" width="210.109" height="45.83" transform="translate(319.961 54.069) rotate(180)" opacity="0.3"/>
      <path id="Path_13742" data-name="Path 13742" d="M442.892,479.638H382.338a15.519,15.519,0,0,1-15.505-15.505V273.08a13.709,13.709,0,0,0-13.709-13.709H335V258h18.11a15.08,15.08,0,0,1,15.08,15.08V464.133a14.148,14.148,0,0,0,14.134,14.134h60.568a4.894,4.894,0,0,0,2.92-8.829l.809-1.1a6.265,6.265,0,0,1-3.729,11.3Z" transform="translate(-122.465 -258)" fill="#007bff"/>
      <path id="Path_13743" data-name="Path 13743" d="M442.892,479.638H382.338a15.519,15.519,0,0,1-15.505-15.505V273.08a13.709,13.709,0,0,0-13.709-13.709H335V258h18.11a15.08,15.08,0,0,1,15.08,15.08V464.133a14.148,14.148,0,0,0,14.134,14.134h60.568a4.894,4.894,0,0,0,2.92-8.829l.809-1.1a6.265,6.265,0,0,1-3.729,11.3Z" transform="translate(-122.465 -258)" opacity="0.3"/>
      <rect id="Rectangle_4009" data-name="Rectangle 4009" width="1.371" height="26.5" transform="translate(327.885 65.914)" fill="#007bff"/>
      <rect id="Rectangle_4010" data-name="Rectangle 4010" width="1.371" height="26.5" transform="translate(327.885 65.914)" opacity="0.3"/>
      <rect id="Rectangle_4011" data-name="Rectangle 4011" width="1.371" height="6.964" transform="translate(327.885 50.272)" fill="#007bff"/>
      <rect id="Rectangle_4012" data-name="Rectangle 4012" width="1.371" height="6.964" transform="translate(327.885 50.272)" opacity="0.3"/>
    </g>
    <g id="freepik--Computer--inject-61" transform="translate(322.031 273.279)">
      <path id="Path_13744" data-name="Path 13744" d="M378.385,214.22H276.744L262.02,274.239H363.647Z" transform="translate(-224.84 -214.22)" fill="#007bff"/>
      <path id="Path_13745" data-name="Path 13745" d="M378.385,214.22H276.744L262.02,274.239H363.647Z" transform="translate(-224.84 -214.22)" fill="#fff" opacity="0.4"/>
      <path id="Path_13746" data-name="Path 13746" d="M275.192,258l-.411,3.318H234.9l.411-3.318Z" transform="translate(-234.9 -197.981)" fill="#007bff"/>
      <path id="Path_13747" data-name="Path 13747" d="M275.192,258l-.411,3.318H234.9l.411-3.318Z" transform="translate(-234.9 -197.981)" fill="#fff" opacity="0.4"/>
      <path id="Path_13748" data-name="Path 13748" d="M366.042,258l-.411,3.318H263.99L264.4,258Z" transform="translate(-224.11 -197.981)" fill="#007bff"/>
      <path id="Path_13749" data-name="Path 13749" d="M366.042,258l-.411,3.318H263.99L264.4,258Z" transform="translate(-224.11 -197.981)" opacity="0.5"/>
      <path id="Path_13750" data-name="Path 13750" d="M380.665,214.22H279.024L264.3,274.239H365.927Z" transform="translate(-223.995 -214.22)" fill="#007bff"/>
      <path id="Path_13751" data-name="Path 13751" d="M380.665,214.22H279.024L264.3,274.239H365.927Z" transform="translate(-223.995 -214.22)" opacity="0.5"/>
    </g>
    <g id="freepik--Plant--inject-61" transform="translate(496.167 275.185)">
      <path id="Path_13752" data-name="Path 13752" d="M379.224,261.92s-14.957-25.787,5.744-46.31c0,0,5.415,3.537,5.333,8.226s-5.8,5.95-4.579,9.9,6.635,7.855,3.085,11.132.576,6.183.329,10.186S379.224,261.92,379.224,261.92Z" transform="translate(-357.439 -215.61)" fill="#007bff"/>
      <path id="Path_13753" data-name="Path 13753" d="M384.841,262.5s6.06-29.187-20.1-42.115c0,0-4.031,5.059-2.454,9.6s7.376,3.811,7.458,7.965-3.811,9.528.589,11.516,1.371,6.06,2.893,9.788S384.841,262.5,384.841,262.5Z" transform="translate(-361.919 -213.837)" fill="#007bff"/>
      <path id="Path_13754" data-name="Path 13754" d="M384.841,262.5s6.06-29.187-20.1-42.115c0,0-4.031,5.059-2.454,9.6s7.376,3.811,7.458,7.965-3.811,9.528.589,11.516,1.371,6.06,2.893,9.788S384.841,262.5,384.841,262.5Z" transform="translate(-361.919 -213.837)" opacity="0.5"/>
      <path id="Path_13755" data-name="Path 13755" d="M361.92,246.39s.507,19.193,19.577,19.193S401.06,246.39,401.06,246.39Z" transform="translate(-361.92 -204.193)" fill="#007bff"/>
      <path id="Path_13756" data-name="Path 13756" d="M361.92,246.39s.507,19.193,19.577,19.193S401.06,246.39,401.06,246.39Z" transform="translate(-361.92 -204.193)" opacity="0.5"/>
    </g>
    <g id="freepik--Graphics--inject-61" transform="translate(361.089 122.176)">
      <path id="Path_13757" data-name="Path 13757" d="M295.963,160.354,279.677,139.31,263.39,160.354h7.664v27.24H288.3v-27.24Z" transform="translate(-263.39 -90.902)" fill="#007bff"/>
      <path id="Path_13758" data-name="Path 13758" d="M322,183.1a38.386,38.386,0,0,1,38.386-38.386V154.7a28.365,28.365,0,0,0-28.378,28.365Z" transform="translate(-241.65 -88.899)" fill="#007bff"/>
      <path id="Path_13759" data-name="Path 13759" d="M322,172.71h10.008a28.378,28.378,0,0,0,28.378,28.378,28.076,28.076,0,0,0,14.175-3.811l5.018,8.733A38.386,38.386,0,0,1,322,172.765Z" transform="translate(-241.65 -78.513)" fill="#007bff"/>
      <path id="Path_13760" data-name="Path 13760" d="M322,172.71h10.008a28.378,28.378,0,0,0,28.378,28.378,28.076,28.076,0,0,0,14.175-3.811l5.018,8.733A38.386,38.386,0,0,1,322,172.765Z" transform="translate(-241.65 -78.513)" fill="#fff" opacity="0.5"/>
      <path id="Path_13761" data-name="Path 13761" d="M350,154.712V144.69A38.386,38.386,0,0,1,369.193,216.4l-5-8.678A28.365,28.365,0,0,0,350,154.712Z" transform="translate(-231.264 -88.907)" fill="#007bff"/>
      <path id="Path_13762" data-name="Path 13762" d="M350,154.712V144.69A38.386,38.386,0,0,1,369.193,216.4l-5-8.678A28.365,28.365,0,0,0,350,154.712Z" transform="translate(-231.264 -88.907)" opacity="0.7"/>
      <path id="Path_13763" data-name="Path 13763" d="M334.445,104H299.472a4.7,4.7,0,0,0-4.7,4.7v64.667a4.7,4.7,0,0,0,4.7,4.661h44.761a4.7,4.7,0,0,0,4.689-4.7V118.491Z" transform="translate(-251.75 -104)" fill="#263238"/>
      <path id="Path_13764" data-name="Path 13764" d="M330.634,154.419H301.556a2.056,2.056,0,0,1-2.056-2.056h0a2.056,2.056,0,0,1,2.056-2.043h29.091a2.056,2.056,0,0,1,2.056,2.043h0a2.07,2.07,0,0,1-2.07,2.056Z" transform="translate(-249.996 -86.819)" fill="#007bff"/>
      <path id="Path_13765" data-name="Path 13765" d="M316.924,112.839H301.556A2.056,2.056,0,0,1,299.5,110.8h0a2.056,2.056,0,0,1,2.056-2.056h15.382a2.056,2.056,0,0,1,2.056,2.056h0a2.056,2.056,0,0,1-2.07,2.043Z" transform="translate(-249.996 -102.242)" fill="#007bff"/>
      <path id="Path_13766" data-name="Path 13766" d="M326.973,118.779H301.556a2.056,2.056,0,0,1-2.056-2.043h0a2.056,2.056,0,0,1,2.056-2.056h25.431a2.056,2.056,0,0,1,2.043,2.056h0a2.043,2.043,0,0,1-2.056,2.043Z" transform="translate(-249.996 -100.038)" fill="#007bff"/>
      <path id="Path_13767" data-name="Path 13767" d="M338.654,124.719h-37.1a2.056,2.056,0,0,1-2.056-2.043h0a2.056,2.056,0,0,1,2.056-2.056h37.111a2.056,2.056,0,0,1,2.056,2.056h0a2.056,2.056,0,0,1-2.07,2.043Z" transform="translate(-249.996 -97.835)" fill="#007bff"/>
      <path id="Path_13768" data-name="Path 13768" d="M334.455,130.659H312.876a2.056,2.056,0,0,1-2.056-2.043h0a2.056,2.056,0,0,1,2.056-2.056h21.578a2.056,2.056,0,0,1,2.056,2.056h0A2.056,2.056,0,0,1,334.455,130.659Z" transform="translate(-245.797 -95.632)" fill="#007bff"/>
      <path id="Path_13769" data-name="Path 13769" d="M307.177,130.659h-5.621a2.056,2.056,0,0,1-2.056-2.043h0a2.056,2.056,0,0,1,2.056-2.056h5.634a2.056,2.056,0,0,1,2.056,2.056h0A2.056,2.056,0,0,1,307.177,130.659Z" transform="translate(-249.996 -95.632)" fill="#007bff"/>
      <path id="Path_13770" data-name="Path 13770" d="M338.654,136.6h-37.1a2.056,2.056,0,0,1-2.056-2.056h0a2.056,2.056,0,0,1,2.056-2.043h37.111a2.056,2.056,0,0,1,2.056,2.043h0a2.056,2.056,0,0,1-2.07,2.056Z" transform="translate(-249.996 -93.429)" fill="#007bff"/>
      <path id="Path_13771" data-name="Path 13771" d="M324.328,142.539H301.556a2.056,2.056,0,0,1-2.056-2.056h0a2.056,2.056,0,0,1,2.056-2.043h22.785a2.056,2.056,0,0,1,2.056,2.043h0a2.056,2.056,0,0,1-2.07,2.056Z" transform="translate(-249.996 -91.225)" fill="#007bff"/>
      <path id="Path_13772" data-name="Path 13772" d="M330.26,142.539h-6.087a2.056,2.056,0,0,1-2.043-2.056h0a2.043,2.043,0,0,1,2.043-2.043h6.087a2.056,2.056,0,0,1,2.056,2.043h0A2.056,2.056,0,0,1,330.26,142.539Z" transform="translate(-241.602 -91.225)" fill="#007bff"/>
      <path id="Path_13773" data-name="Path 13773" d="M338.654,148.479h-37.1a2.056,2.056,0,0,1-2.056-2.056h0a2.056,2.056,0,0,1,2.056-2.043h37.111a2.056,2.056,0,0,1,2.056,2.043h0a2.056,2.056,0,0,1-2.07,2.056Z" transform="translate(-249.996 -89.022)" fill="#007bff"/>
      <g id="Group_12790" data-name="Group 12790" transform="translate(49.504 63.501)" opacity="0.5">
        <path id="Path_13774" data-name="Path 13774" d="M330.634,154.419H301.556a2.056,2.056,0,0,1-2.056-2.056h0a2.056,2.056,0,0,1,2.056-2.043h29.091a2.056,2.056,0,0,1,2.056,2.043h0a2.07,2.07,0,0,1-2.07,2.056Z" transform="translate(-299.5 -150.32)" fill="#fff"/>
      </g>
      <g id="Group_12791" data-name="Group 12791" transform="translate(49.504 6.498)" opacity="0.5">
        <path id="Path_13775" data-name="Path 13775" d="M316.924,112.839H301.556A2.056,2.056,0,0,1,299.5,110.8h0a2.056,2.056,0,0,1,2.056-2.056h15.382a2.056,2.056,0,0,1,2.056,2.056h0a2.056,2.056,0,0,1-2.07,2.043Z" transform="translate(-299.5 -108.74)" fill="#fff"/>
      </g>
      <g id="Group_12792" data-name="Group 12792" transform="translate(49.504 14.642)" opacity="0.5">
        <path id="Path_13776" data-name="Path 13776" d="M326.973,118.779H301.556a2.056,2.056,0,0,1-2.056-2.043h0a2.056,2.056,0,0,1,2.056-2.056h25.431a2.056,2.056,0,0,1,2.043,2.056h0a2.043,2.043,0,0,1-2.056,2.043Z" transform="translate(-299.5 -114.68)" fill="#fff"/>
      </g>
      <g id="Group_12793" data-name="Group 12793" transform="translate(49.504 22.785)" opacity="0.5">
        <path id="Path_13777" data-name="Path 13777" d="M338.654,124.719h-37.1a2.056,2.056,0,0,1-2.056-2.043h0a2.056,2.056,0,0,1,2.056-2.056h37.111a2.056,2.056,0,0,1,2.056,2.056h0a2.056,2.056,0,0,1-2.07,2.043Z" transform="translate(-299.5 -120.62)" fill="#fff"/>
      </g>
      <g id="Group_12794" data-name="Group 12794" transform="translate(65.023 30.928)" opacity="0.5">
        <path id="Path_13778" data-name="Path 13778" d="M334.455,130.659H312.876a2.056,2.056,0,0,1-2.056-2.043h0a2.056,2.056,0,0,1,2.056-2.056h21.578a2.056,2.056,0,0,1,2.056,2.056h0A2.056,2.056,0,0,1,334.455,130.659Z" transform="translate(-310.82 -126.56)" fill="#fff"/>
      </g>
      <g id="Group_12795" data-name="Group 12795" transform="translate(49.504 30.928)" opacity="0.5">
        <path id="Path_13779" data-name="Path 13779" d="M307.177,130.659h-5.621a2.056,2.056,0,0,1-2.056-2.043h0a2.056,2.056,0,0,1,2.056-2.056h5.634a2.056,2.056,0,0,1,2.056,2.056h0A2.056,2.056,0,0,1,307.177,130.659Z" transform="translate(-299.5 -126.56)" fill="#fff"/>
      </g>
      <g id="Group_12796" data-name="Group 12796" transform="translate(49.504 39.071)" opacity="0.5">
        <path id="Path_13780" data-name="Path 13780" d="M338.654,136.6h-37.1a2.056,2.056,0,0,1-2.056-2.056h0a2.056,2.056,0,0,1,2.056-2.043h37.111a2.056,2.056,0,0,1,2.056,2.043h0a2.056,2.056,0,0,1-2.07,2.056Z" transform="translate(-299.5 -132.5)" fill="#fff"/>
      </g>
      <g id="Group_12797" data-name="Group 12797" transform="translate(49.504 47.215)" opacity="0.5">
        <path id="Path_13781" data-name="Path 13781" d="M324.328,142.539H301.556a2.056,2.056,0,0,1-2.056-2.056h0a2.056,2.056,0,0,1,2.056-2.043h22.785a2.056,2.056,0,0,1,2.056,2.043h0a2.056,2.056,0,0,1-2.07,2.056Z" transform="translate(-299.5 -138.44)" fill="#fff"/>
      </g>
      <g id="Group_12798" data-name="Group 12798" transform="translate(80.528 47.215)" opacity="0.5">
        <path id="Path_13782" data-name="Path 13782" d="M330.26,142.539h-6.087a2.056,2.056,0,0,1-2.043-2.056h0a2.043,2.043,0,0,1,2.043-2.043h6.087a2.056,2.056,0,0,1,2.056,2.043h0A2.056,2.056,0,0,1,330.26,142.539Z" transform="translate(-322.13 -138.44)" fill="#fff"/>
      </g>
      <g id="Group_12799" data-name="Group 12799" transform="translate(49.504 55.358)" opacity="0.5">
        <path id="Path_13783" data-name="Path 13783" d="M338.654,148.479h-37.1a2.056,2.056,0,0,1-2.056-2.056h0a2.056,2.056,0,0,1,2.056-2.043h37.111a2.056,2.056,0,0,1,2.056,2.043h0a2.056,2.056,0,0,1-2.07,2.056Z" transform="translate(-299.5 -144.38)" fill="#fff"/>
      </g>
      <path id="Path_13784" data-name="Path 13784" d="M323.71,104v9.788a4.689,4.689,0,0,0,4.7,4.7h9.775Z" transform="translate(-241.016 -104)" fill="#007bff"/>
      <path id="Path_13785" data-name="Path 13785" d="M323.71,104v9.788a4.689,4.689,0,0,0,4.7,4.7h9.775Z" transform="translate(-241.016 -104)" fill="#fff" opacity="0.5"/>
    </g>
  </g>
</svg>
