<svg xmlns="http://www.w3.org/2000/svg" width="153.55" height="92.333" viewBox="0 0 153.55 92.333">
  <g id="bangalore" transform="translate(1.5 1.5)">
    <path id="Path_8112" data-name="Path 8112" d="M72.519,17.637c15.011,6.078,13.049,13.32,13.049,13.32,0,3.284-2.374,5.947-5.314,5.947H64.794c-2.925,0-5.307-2.663-5.307-5.947C59.486,30.957,57.509,23.715,72.519,17.637Z" transform="translate(2.203 -10.844)" fill="none" stroke="#007bff" stroke-miterlimit="10" stroke-width="3"/>
    <path id="Path_8113" data-name="Path 8113" d="M68.163,19.369V13.1" transform="translate(6.554 -13.098)" fill="none" stroke="#007bff" stroke-linecap="round" stroke-linejoin="round" stroke-miterlimit="10" stroke-width="3"/>
    <path id="Path_8114" data-name="Path 8114" d="M57.94,40.145H89.662V30.511H57.94Z" transform="translate(1.478 -4.45)" fill="none" stroke="#007bff" stroke-miterlimit="10" stroke-width="3"/>
    <path id="Path_8115" data-name="Path 8115" d="M49.167,85.5h9.845V46.961H49.167Z" transform="translate(-2.878 3.719)" fill="none" stroke="#007bff" stroke-miterlimit="10" stroke-width="3"/>
    <path id="Path_8116" data-name="Path 8116" d="M55.362,39.81c8.751,3.374,7.608,7.4,7.608,7.4a3.141,3.141,0,0,1-.854,2.283,3.28,3.28,0,0,1-2.253,1.026H50.848a3.278,3.278,0,0,1-2.244-1.03,3.139,3.139,0,0,1-.849-2.279S46.6,43.184,55.362,39.81Z" transform="translate(-3.605 0.167)" fill="none" stroke="#007bff" stroke-miterlimit="10" stroke-width="3"/>
    <path id="Path_8117" data-name="Path 8117" d="M52.924,41.038V37.124" transform="translate(-1.013 -1.166)" fill="none" stroke="#007bff" stroke-linecap="round" stroke-linejoin="round" stroke-miterlimit="10" stroke-width="3"/>
    <path id="Path_8118" data-name="Path 8118" d="M80.594,85.5h9.845V46.961H80.594Z" transform="translate(12.728 3.719)" fill="none" stroke="#007bff" stroke-miterlimit="10" stroke-width="3"/>
    <path id="Path_8119" data-name="Path 8119" d="M86.794,39.81c8.751,3.374,7.608,7.4,7.608,7.4a3.137,3.137,0,0,1-.851,2.282A3.276,3.276,0,0,1,91.3,50.514H82.284a2.53,2.53,0,0,1-.389-.028,3.3,3.3,0,0,1-1.98-1.146,3.174,3.174,0,0,1-.729-2.135s-.64-2.248,2.7-4.8a19.842,19.842,0,0,1,4.907-2.6Z" transform="translate(12.004 0.167)" fill="none" stroke="#007bff" stroke-miterlimit="10" stroke-width="3"/>
    <path id="Path_8120" data-name="Path 8120" d="M84.185,41.038V37.124" transform="translate(14.511 -1.166)" fill="none" stroke="#007bff" stroke-linecap="round" stroke-linejoin="round" stroke-miterlimit="10" stroke-width="3"/>
    <path id="Path_8121" data-name="Path 8121" d="M92.168,50.785H55.7" transform="translate(0.368 5.618)" fill="none" stroke="#007bff" stroke-miterlimit="10" stroke-width="3"/>
    <path id="Path_8122" data-name="Path 8122" d="M92.168,50.785H55.7" transform="translate(0.368 5.618)" fill="none" stroke="#007bff" stroke-miterlimit="10" stroke-width="3"/>
    <path id="Path_8123" data-name="Path 8123" d="M55.746,42.283c0-4.553,3.829-5.334,8.551-5.334H84.381c4.728,0,8.556.781,8.556,5.334v1.089H55.746Z" transform="translate(0.389 -1.253)" fill="none" stroke="#007bff" stroke-miterlimit="10" stroke-width="3"/>
    <path id="Path_8124" data-name="Path 8124" d="M55.362,39.81a19.922,19.922,0,0,1,4.886,2.579c3.37,2.554,2.726,4.817,2.726,4.817a3.177,3.177,0,0,1-.729,2.134,3.307,3.307,0,0,1-1.979,1.147,2.648,2.648,0,0,1-.4.028h-9.02a3.278,3.278,0,0,1-2.244-1.03,3.139,3.139,0,0,1-.849-2.279S46.6,43.184,55.362,39.81Z" transform="translate(-3.605 0.167)" fill="none" stroke="#007bff" stroke-miterlimit="10" stroke-width="3"/>
    <path id="Path_8125" data-name="Path 8125" d="M55.746,49.793A3.2,3.2,0,0,0,57.673,48.7a3.07,3.07,0,0,0,.725-2.059s.645-2.173-2.652-4.624v-.778H92.937v.8c-3.264,2.445-2.638,4.6-2.638,4.6a3.062,3.062,0,0,0,.717,2.058,3.187,3.187,0,0,0,1.921,1.092v5.365H55.746Z" transform="translate(0.389 0.879)" fill="none" stroke="#007bff" stroke-miterlimit="10" stroke-width="3"/>
    <path id="Path_8126" data-name="Path 8126" d="M55.746,83.721H92.937V50.539H55.746Z" transform="translate(0.389 5.495)" fill="none" stroke="#007bff" stroke-miterlimit="10" stroke-width="3"/>
    <path id="Path_8127" data-name="Path 8127" d="M68.873,50.539H55.746V83.721H68.873Z" transform="translate(0.389 5.495)" fill="none"/>
    <path id="Path_8128" data-name="Path 8128" d="M68.143,50.9H56.111V83.01H68.143Z" transform="translate(0.569 5.674)" fill="none" stroke="#007bff" stroke-miterlimit="10" stroke-width="3"/>
    <path id="Path_8129" data-name="Path 8129" d="M76.909,50.539H63.783V83.721H76.909Z" transform="translate(4.379 5.495)" fill="none"/>
    <path id="Path_8130" data-name="Path 8130" d="M76.184,50.9H64.151V83.01H76.184Z" transform="translate(4.563 5.674)" fill="none" stroke="#007bff" stroke-miterlimit="10" stroke-width="3"/>
    <path id="Path_8131" data-name="Path 8131" d="M84.95,50.539H71.824V83.721H84.95Z" transform="translate(8.373 5.495)" fill="none"/>
    <path id="Path_8132" data-name="Path 8132" d="M84.226,50.9H72.193V83.01H84.226Z" transform="translate(8.556 5.674)" fill="none" stroke="#007bff" stroke-miterlimit="10" stroke-width="3"/>
    <path id="Path_8133" data-name="Path 8133" d="M55.746,74.84H92.937V68.418H55.746Z" transform="translate(0.389 14.374)" fill="none" stroke="#007bff" stroke-miterlimit="10" stroke-width="3"/>
    <path id="Path_8134" data-name="Path 8134" d="M63.1,44.606v5.042" transform="translate(4.04 2.549)" fill="none" stroke="#007bff" stroke-miterlimit="10" stroke-width="3"/>
    <path id="Path_8135" data-name="Path 8135" d="M68.1,44.606v5.042" transform="translate(6.522 2.549)" fill="none" stroke="#007bff" stroke-miterlimit="10" stroke-width="3"/>
    <path id="Path_8136" data-name="Path 8136" d="M73.828,44.606v5.042" transform="translate(9.368 2.549)" fill="none" stroke="#007bff" stroke-miterlimit="10" stroke-width="3"/>
    <path id="Path_8137" data-name="Path 8137" d="M116.178,56.258H87.173" transform="translate(15.995 8.336)" fill="none" stroke="#007bff" stroke-miterlimit="10" stroke-width="3"/>
    <path id="Path_8138" data-name="Path 8138" d="M87.173,59.1h28.441V50.539H87.173Z" transform="translate(15.995 5.495)" fill="none" stroke="#007bff" stroke-miterlimit="10" stroke-width="3"/>
    <path id="Path_8139" data-name="Path 8139" d="M87.173,80.877h28.441V56.258H87.173Z" transform="translate(15.995 8.336)" fill="none" stroke="#007bff" stroke-miterlimit="10" stroke-width="3"/>
    <path id="Path_8140" data-name="Path 8140" d="M106.174,85.5h9.845V46.961h-9.845Z" transform="translate(25.431 3.719)" fill="none" stroke="#007bff" stroke-miterlimit="10" stroke-width="3"/>
    <path id="Path_8141" data-name="Path 8141" d="M112.372,39.81c-8.751,3.374-7.607,7.4-7.607,7.4a3.128,3.128,0,0,0,.852,2.283,3.233,3.233,0,0,0,1.021.732,3.3,3.3,0,0,0,1.23.294h9.016a3.273,3.273,0,0,0,2.246-1.028,3.14,3.14,0,0,0,.852-2.281S121.125,43.184,112.372,39.81Z" transform="translate(24.707 0.167)" fill="none" stroke="#007bff" stroke-miterlimit="10" stroke-width="3"/>
    <path id="Path_8142" data-name="Path 8142" d="M109.6,41.038V37.124" transform="translate(27.131 -1.166)" fill="none" stroke="#007bff" stroke-linecap="round" stroke-linejoin="round" stroke-miterlimit="10" stroke-width="3"/>
    <path id="Path_8143" data-name="Path 8143" d="M100.035,60.551h3.12a2.9,2.9,0,0,1,.856,1,2.843,2.843,0,0,1,.322,1.263V65.9h-5.47V62.809a2.84,2.84,0,0,1,.319-1.261,2.908,2.908,0,0,1,.852-1Z" transform="translate(21.8 10.467)" fill="none" stroke="#007bff" stroke-miterlimit="10" stroke-width="3"/>
    <path id="Path_8144" data-name="Path 8144" d="M98.863,74.84h5.47V68.418h-5.47Z" transform="translate(21.8 14.374)" fill="none" stroke="#007bff" stroke-miterlimit="10" stroke-width="3"/>
    <path id="Path_8145" data-name="Path 8145" d="M92,60.551H95.12a2.89,2.89,0,0,1,.855,1,2.822,2.822,0,0,1,.318,1.263V65.9H90.825V62.809a2.824,2.824,0,0,1,.318-1.262,2.89,2.89,0,0,1,.854-1Z" transform="translate(17.808 10.467)" fill="none" stroke="#007bff" stroke-miterlimit="10" stroke-width="3"/>
    <path id="Path_8146" data-name="Path 8146" d="M90.825,74.84h5.469V68.418H90.825Z" transform="translate(17.808 14.374)" fill="none" stroke="#007bff" stroke-miterlimit="10" stroke-width="3"/>
    <path id="Path_8147" data-name="Path 8147" d="M87.173,59.1h9.845V50.539H87.173Z" transform="translate(15.995 5.495)" fill="none" stroke="#007bff" stroke-miterlimit="10" stroke-width="3"/>
    <path id="Path_8148" data-name="Path 8148" d="M93.752,59.1H102.5V50.539H93.752Z" transform="translate(19.262 5.495)" fill="none" stroke="#007bff" stroke-miterlimit="10" stroke-width="3"/>
    <path id="Path_8149" data-name="Path 8149" d="M99.6,59.1h9.844V50.539H99.6Z" transform="translate(22.165 5.495)" fill="none" stroke="#007bff" stroke-miterlimit="10" stroke-width="3"/>
    <path id="Path_8150" data-name="Path 8150" d="M48.711,73.9H106.33v-3.47H48.711Z" transform="translate(-3.105 15.375)" fill="none" stroke="#007bff" stroke-miterlimit="10" stroke-width="3"/>
    <path id="Path_8151" data-name="Path 8151" d="M30.165,56.258h29" transform="translate(-12.315 8.336)" fill="none" stroke="#007bff" stroke-miterlimit="10" stroke-width="3"/>
    <path id="Path_8152" data-name="Path 8152" d="M30.165,80.877H58.6V56.258H30.165Z" transform="translate(-12.315 8.336)" fill="none" stroke="#007bff" stroke-miterlimit="10" stroke-width="3"/>
    <path id="Path_8153" data-name="Path 8153" d="M30.165,59.1H58.6V50.539H30.165Z" transform="translate(-12.315 5.495)" fill="none" stroke="#007bff" stroke-miterlimit="10" stroke-width="3"/>
    <path id="Path_8154" data-name="Path 8154" d="M23.586,85.5H33.43V46.961H23.586Z" transform="translate(-15.582 3.719)" fill="none" stroke="#007bff" stroke-miterlimit="10" stroke-width="3"/>
    <path id="Path_8155" data-name="Path 8155" d="M29.78,39.81c8.751,3.374,7.606,7.4,7.606,7.4a3.134,3.134,0,0,1-.849,2.282,3.273,3.273,0,0,1-2.25,1.026H25.269a3.281,3.281,0,0,1-2.246-1.029,3.141,3.141,0,0,1-.851-2.279S21.029,43.184,29.78,39.81Z" transform="translate(-16.309 0.167)" fill="none" stroke="#007bff" stroke-miterlimit="10" stroke-width="3"/>
    <path id="Path_8156" data-name="Path 8156" d="M26.746,41.038V37.124" transform="translate(-14.013 -1.166)" fill="none" stroke="#007bff" stroke-linecap="round" stroke-linejoin="round" stroke-miterlimit="10" stroke-width="3"/>
    <path id="Path_8157" data-name="Path 8157" d="M38.117,60.551H34.989a2.89,2.89,0,0,0-.855,1,2.823,2.823,0,0,0-.318,1.263V65.9h5.469V62.809a2.829,2.829,0,0,0-.317-1.262,2.893,2.893,0,0,0-.852-1Z" transform="translate(-10.502 10.467)" fill="none" stroke="#007bff" stroke-miterlimit="10" stroke-width="3"/>
    <path id="Path_8158" data-name="Path 8158" d="M33.816,74.84h5.469V68.418H33.816Z" transform="translate(-10.502 14.374)" fill="none" stroke="#007bff" stroke-miterlimit="10" stroke-width="3"/>
    <path id="Path_8159" data-name="Path 8159" d="M46.155,60.551H43.031a2.89,2.89,0,0,0-.855,1,2.825,2.825,0,0,0-.318,1.263V65.9h5.469V62.809a2.824,2.824,0,0,0-.318-1.262,2.89,2.89,0,0,0-.854-1Z" transform="translate(-6.509 10.467)" fill="none" stroke="#007bff" stroke-miterlimit="10" stroke-width="3"/>
    <path id="Path_8160" data-name="Path 8160" d="M41.857,74.84h5.469V68.418H41.857Z" transform="translate(-6.509 14.374)" fill="none" stroke="#007bff" stroke-miterlimit="10" stroke-width="3"/>
    <path id="Path_8161" data-name="Path 8161" d="M30.165,59.1h9.845V50.539H30.165Z" transform="translate(-12.315 5.495)" fill="none" stroke="#007bff" stroke-miterlimit="10" stroke-width="3"/>
    <path id="Path_8162" data-name="Path 8162" d="M36.743,59.1h8.751V50.539H36.743Z" transform="translate(-9.048 5.495)" fill="none" stroke="#007bff" stroke-miterlimit="10" stroke-width="3"/>
    <path id="Path_8163" data-name="Path 8163" d="M42.589,59.1h9.845V50.539H42.589Z" transform="translate(-6.146 5.495)" fill="none" stroke="#007bff" stroke-miterlimit="10" stroke-width="3"/>
    <path id="Path_8164" data-name="Path 8164" d="M18.238,72.789h150.55" transform="translate(-18.238 16.545)" fill="none" stroke="#007bff" stroke-linecap="round" stroke-linejoin="round" stroke-width="3"/>
  </g>
</svg>
