<svg xmlns="http://www.w3.org/2000/svg" width="1861.94" height="399.345" viewBox="0 0 1861.94 399.345">
  <g id="bg-patterns" transform="translate(-30.578 -945.769)">
    <g id="Group_7064" data-name="Group 7064" transform="translate(133.25 1201.197)" opacity="0.51">
      <g id="Group_7063" data-name="Group 7063" transform="translate(0.001 0)">
        <g id="Group_7056" data-name="Group 7056">
          <g id="Group_7054" data-name="Group 7054">
            <path id="Path_7999" data-name="Path 7999" d="M40.771,224.19a.993.993,0,1,1-.994-.993A.993.993,0,0,1,40.771,224.19Z" transform="translate(-38.784 -223.197)" stroke="#007bff" stroke-width="1"/>
            <circle id="Ellipse_775" data-name="Ellipse 775" cx="0.993" cy="0.993" r="0.993" transform="translate(14.957)" stroke="#007bff" stroke-width="1"/>
            <circle id="Ellipse_776" data-name="Ellipse 776" cx="0.993" cy="0.993" r="0.993" transform="translate(29.913)" stroke="#007bff" stroke-width="1"/>
            <circle id="Ellipse_777" data-name="Ellipse 777" cx="0.993" cy="0.993" r="0.993" transform="translate(44.869)" stroke="#007bff" stroke-width="1"/>
            <circle id="Ellipse_778" data-name="Ellipse 778" cx="0.993" cy="0.993" r="0.993" transform="translate(59.825)" stroke="#007bff" stroke-width="1"/>
          </g>
          <g id="Group_7055" data-name="Group 7055" transform="translate(7.478 11.392)">
            <path id="Path_8000" data-name="Path 8000" d="M48.249,235.583a.993.993,0,1,1-.993-.994A.994.994,0,0,1,48.249,235.583Z" transform="translate(-46.262 -234.589)" stroke="#007bff" stroke-width="1"/>
            <path id="Path_8001" data-name="Path 8001" d="M63.205,235.583a.993.993,0,1,1-.993-.994A.994.994,0,0,1,63.205,235.583Z" transform="translate(-46.262 -234.589)" stroke="#007bff" stroke-width="1"/>
            <path id="Path_8002" data-name="Path 8002" d="M78.161,235.583a.993.993,0,1,1-.993-.994A.993.993,0,0,1,78.161,235.583Z" transform="translate(-46.262 -234.589)" stroke="#007bff" stroke-width="1"/>
            <path id="Path_8003" data-name="Path 8003" d="M93.117,235.583a.993.993,0,1,1-.993-.994A.993.993,0,0,1,93.117,235.583Z" transform="translate(-46.262 -234.589)" stroke="#007bff" stroke-width="1"/>
          </g>
        </g>
        <g id="Group_7059" data-name="Group 7059" transform="translate(0 22.843)">
          <g id="Group_7057" data-name="Group 7057">
            <path id="Path_8004" data-name="Path 8004" d="M40.771,247.033a.993.993,0,1,1-.994-.993A.994.994,0,0,1,40.771,247.033Z" transform="translate(-38.784 -246.04)" stroke="#007bff" stroke-width="1"/>
            <circle id="Ellipse_779" data-name="Ellipse 779" cx="0.993" cy="0.993" r="0.993" transform="translate(14.957 0)" stroke="#007bff" stroke-width="1"/>
            <circle id="Ellipse_780" data-name="Ellipse 780" cx="0.993" cy="0.993" r="0.993" transform="translate(29.913 0)" stroke="#007bff" stroke-width="1"/>
            <circle id="Ellipse_781" data-name="Ellipse 781" cx="0.993" cy="0.993" r="0.993" transform="translate(44.869 0)" stroke="#007bff" stroke-width="1"/>
            <circle id="Ellipse_782" data-name="Ellipse 782" cx="0.993" cy="0.993" r="0.993" transform="translate(59.825 0)" stroke="#007bff" stroke-width="1"/>
          </g>
          <g id="Group_7058" data-name="Group 7058" transform="translate(7.478 11.393)">
            <path id="Path_8005" data-name="Path 8005" d="M48.249,258.426a.993.993,0,1,1-.993-.993A.994.994,0,0,1,48.249,258.426Z" transform="translate(-46.262 -257.433)" stroke="#007bff" stroke-width="1"/>
            <path id="Path_8006" data-name="Path 8006" d="M63.205,258.426a.993.993,0,1,1-.993-.993A.994.994,0,0,1,63.205,258.426Z" transform="translate(-46.262 -257.433)" stroke="#007bff" stroke-width="1"/>
            <path id="Path_8007" data-name="Path 8007" d="M78.161,258.426a.993.993,0,1,1-.993-.993A.993.993,0,0,1,78.161,258.426Z" transform="translate(-46.262 -257.433)" stroke="#007bff" stroke-width="1"/>
            <path id="Path_8008" data-name="Path 8008" d="M93.117,258.426a.993.993,0,1,1-.993-.993A.993.993,0,0,1,93.117,258.426Z" transform="translate(-46.262 -257.433)" stroke="#007bff" stroke-width="1"/>
          </g>
        </g>
        <g id="Group_7062" data-name="Group 7062" transform="translate(0 45.686)">
          <g id="Group_7060" data-name="Group 7060">
            <path id="Path_8009" data-name="Path 8009" d="M40.771,269.877a.993.993,0,1,1-.994-.994A.994.994,0,0,1,40.771,269.877Z" transform="translate(-38.784 -268.883)" stroke="#007bff" stroke-width="1"/>
            <circle id="Ellipse_783" data-name="Ellipse 783" cx="0.993" cy="0.993" r="0.993" transform="translate(14.957 0.001)" stroke="#007bff" stroke-width="1"/>
            <circle id="Ellipse_784" data-name="Ellipse 784" cx="0.993" cy="0.993" r="0.993" transform="translate(29.913 0.001)" stroke="#007bff" stroke-width="1"/>
            <circle id="Ellipse_785" data-name="Ellipse 785" cx="0.993" cy="0.993" r="0.993" transform="translate(44.869 0.001)" stroke="#007bff" stroke-width="1"/>
            <circle id="Ellipse_786" data-name="Ellipse 786" cx="0.993" cy="0.993" r="0.993" transform="translate(59.825 0.001)" stroke="#007bff" stroke-width="1"/>
          </g>
          <g id="Group_7061" data-name="Group 7061" transform="translate(7.478 11.393)">
            <circle id="Ellipse_787" data-name="Ellipse 787" cx="0.993" cy="0.993" r="0.993" stroke="#007bff" stroke-width="1"/>
            <circle id="Ellipse_788" data-name="Ellipse 788" cx="0.993" cy="0.993" r="0.993" transform="translate(14.956)" stroke="#007bff" stroke-width="1"/>
            <circle id="Ellipse_789" data-name="Ellipse 789" cx="0.993" cy="0.993" r="0.993" transform="translate(29.912)" stroke="#007bff" stroke-width="1"/>
            <path id="Path_8010" data-name="Path 8010" d="M93.117,281.269a.993.993,0,1,1-.993-.993A.992.992,0,0,1,93.117,281.269Z" transform="translate(-46.262 -280.276)" stroke="#007bff" stroke-width="1"/>
          </g>
        </g>
      </g>
    </g>
    <g id="Group_7075" data-name="Group 7075" transform="translate(872.953 960.962)" opacity="0.51">
      <g id="Group_7074" data-name="Group 7074" transform="translate(0.001 0)">
        <g id="Group_7067" data-name="Group 7067">
          <g id="Group_7065" data-name="Group 7065">
            <path id="Path_8011" data-name="Path 8011" d="M315.175-16.045a.994.994,0,0,1-.993.994.993.993,0,0,1-.993-.994.993.993,0,0,1,.993-.993A.994.994,0,0,1,315.175-16.045Z" transform="translate(-313.189 17.038)" stroke="#007bff" stroke-width="1"/>
            <path id="Path_8012" data-name="Path 8012" d="M330.131-16.045a.993.993,0,0,1-.993.994.994.994,0,0,1-.993-.994.994.994,0,0,1,.993-.993A.993.993,0,0,1,330.131-16.045Z" transform="translate(-313.189 17.038)" stroke="#007bff" stroke-width="1"/>
            <path id="Path_8013" data-name="Path 8013" d="M345.087-16.045a.993.993,0,0,1-.993.994.994.994,0,0,1-.993-.994.994.994,0,0,1,.993-.993A.993.993,0,0,1,345.087-16.045Z" transform="translate(-313.189 17.038)" stroke="#007bff" stroke-width="1"/>
            <path id="Path_8014" data-name="Path 8014" d="M360.044-16.045a.994.994,0,0,1-.993.994.994.994,0,0,1-.994-.994.994.994,0,0,1,.994-.993A.994.994,0,0,1,360.044-16.045Z" transform="translate(-313.189 17.038)" stroke="#007bff" stroke-width="1"/>
            <path id="Path_8015" data-name="Path 8015" d="M375-16.045a.994.994,0,0,1-.993.994.993.993,0,0,1-.993-.994.993.993,0,0,1,.993-.993A.994.994,0,0,1,375-16.045Z" transform="translate(-313.189 17.038)" stroke="#007bff" stroke-width="1"/>
          </g>
          <g id="Group_7066" data-name="Group 7066" transform="translate(7.478 11.393)">
            <circle id="Ellipse_790" data-name="Ellipse 790" cx="0.993" cy="0.993" r="0.993" stroke="#007bff" stroke-width="1"/>
            <path id="Path_8016" data-name="Path 8016" d="M337.609-4.652a.993.993,0,0,1-.993.993.994.994,0,0,1-.993-.993.993.993,0,0,1,.993-.993A.992.992,0,0,1,337.609-4.652Z" transform="translate(-320.667 5.645)" stroke="#007bff" stroke-width="1"/>
            <circle id="Ellipse_791" data-name="Ellipse 791" cx="0.993" cy="0.993" r="0.993" transform="translate(29.912 0)" stroke="#007bff" stroke-width="1"/>
            <circle id="Ellipse_792" data-name="Ellipse 792" cx="0.993" cy="0.993" r="0.993" transform="translate(44.869 0)" stroke="#007bff" stroke-width="1"/>
          </g>
        </g>
        <g id="Group_7070" data-name="Group 7070" transform="translate(0 22.844)">
          <g id="Group_7068" data-name="Group 7068">
            <path id="Path_8017" data-name="Path 8017" d="M315.175,6.8a.993.993,0,1,1-.993-.993A.994.994,0,0,1,315.175,6.8Z" transform="translate(-313.189 -5.806)" stroke="#007bff" stroke-width="1"/>
            <path id="Path_8018" data-name="Path 8018" d="M330.131,6.8a.993.993,0,1,1-.993-.993A.993.993,0,0,1,330.131,6.8Z" transform="translate(-313.189 -5.806)" stroke="#007bff" stroke-width="1"/>
            <path id="Path_8019" data-name="Path 8019" d="M345.087,6.8a.993.993,0,1,1-.993-.993A.993.993,0,0,1,345.087,6.8Z" transform="translate(-313.189 -5.806)" stroke="#007bff" stroke-width="1"/>
            <path id="Path_8020" data-name="Path 8020" d="M360.044,6.8a.993.993,0,1,1-.993-.993A.994.994,0,0,1,360.044,6.8Z" transform="translate(-313.189 -5.806)" stroke="#007bff" stroke-width="1"/>
            <path id="Path_8021" data-name="Path 8021" d="M375,6.8a.993.993,0,1,1-.993-.993A.994.994,0,0,1,375,6.8Z" transform="translate(-313.189 -5.806)" stroke="#007bff" stroke-width="1"/>
          </g>
          <g id="Group_7069" data-name="Group 7069" transform="translate(7.478 11.392)">
            <circle id="Ellipse_793" data-name="Ellipse 793" cx="0.993" cy="0.993" r="0.993" stroke="#007bff" stroke-width="1"/>
            <path id="Path_8022" data-name="Path 8022" d="M337.609,18.191a.993.993,0,1,1-.993-.993A.992.992,0,0,1,337.609,18.191Z" transform="translate(-320.667 -17.198)" stroke="#007bff" stroke-width="1"/>
            <circle id="Ellipse_794" data-name="Ellipse 794" cx="0.993" cy="0.993" r="0.993" transform="translate(29.912 0)" stroke="#007bff" stroke-width="1"/>
            <circle id="Ellipse_795" data-name="Ellipse 795" cx="0.993" cy="0.993" r="0.993" transform="translate(44.869 0)" stroke="#007bff" stroke-width="1"/>
          </g>
        </g>
        <g id="Group_7073" data-name="Group 7073" transform="translate(0 45.687)">
          <g id="Group_7071" data-name="Group 7071">
            <path id="Path_8023" data-name="Path 8023" d="M315.175,29.642a.993.993,0,1,1-.993-.993A.993.993,0,0,1,315.175,29.642Z" transform="translate(-313.189 -28.649)" stroke="#007bff" stroke-width="1"/>
            <path id="Path_8024" data-name="Path 8024" d="M330.131,29.642a.993.993,0,1,1-.993-.993A.992.992,0,0,1,330.131,29.642Z" transform="translate(-313.189 -28.649)" stroke="#007bff" stroke-width="1"/>
            <path id="Path_8025" data-name="Path 8025" d="M345.087,29.642a.993.993,0,1,1-.993-.993A.992.992,0,0,1,345.087,29.642Z" transform="translate(-313.189 -28.649)" stroke="#007bff" stroke-width="1"/>
            <path id="Path_8026" data-name="Path 8026" d="M360.044,29.642a.993.993,0,1,1-.993-.993A.993.993,0,0,1,360.044,29.642Z" transform="translate(-313.189 -28.649)" stroke="#007bff" stroke-width="1"/>
            <path id="Path_8027" data-name="Path 8027" d="M375,29.642a.993.993,0,1,1-.993-.993A.993.993,0,0,1,375,29.642Z" transform="translate(-313.189 -28.649)" stroke="#007bff" stroke-width="1"/>
          </g>
          <g id="Group_7072" data-name="Group 7072" transform="translate(7.478 11.392)">
            <circle id="Ellipse_796" data-name="Ellipse 796" cx="0.993" cy="0.993" r="0.993" transform="translate(0 0)" stroke="#007bff" stroke-width="1"/>
            <path id="Path_8028" data-name="Path 8028" d="M337.609,41.034a.993.993,0,1,1-.993-.993A.993.993,0,0,1,337.609,41.034Z" transform="translate(-320.667 -40.041)" stroke="#007bff" stroke-width="1"/>
            <circle id="Ellipse_797" data-name="Ellipse 797" cx="0.993" cy="0.993" r="0.993" transform="translate(29.912 0)" stroke="#007bff" stroke-width="1"/>
            <circle id="Ellipse_798" data-name="Ellipse 798" cx="0.993" cy="0.993" r="0.993" transform="translate(44.869 0)" stroke="#007bff" stroke-width="1"/>
          </g>
        </g>
      </g>
    </g>
    <g id="Group_7086" data-name="Group 7086" transform="translate(1830.205 1062.443)" opacity="0.51">
      <g id="Group_7085" data-name="Group 7085" transform="translate(0 0)">
        <g id="Group_7078" data-name="Group 7078">
          <g id="Group_7076" data-name="Group 7076">
            <path id="Path_8029" data-name="Path 8029" d="M730.6,85.437a.993.993,0,1,1-.993-.994A.994.994,0,0,1,730.6,85.437Z" transform="translate(-728.616 -84.443)" stroke="#007bff" stroke-width="1"/>
            <path id="Path_8030" data-name="Path 8030" d="M745.559,85.437a.993.993,0,1,1-.993-.994A.994.994,0,0,1,745.559,85.437Z" transform="translate(-728.616 -84.443)" stroke="#007bff" stroke-width="1"/>
            <path id="Path_8031" data-name="Path 8031" d="M760.515,85.437a.993.993,0,1,1-.993-.994A.993.993,0,0,1,760.515,85.437Z" transform="translate(-728.616 -84.443)" stroke="#007bff" stroke-width="1"/>
            <path id="Path_8032" data-name="Path 8032" d="M775.471,85.437a.993.993,0,1,1-.993-.994A.993.993,0,0,1,775.471,85.437Z" transform="translate(-728.616 -84.443)" stroke="#007bff" stroke-width="1"/>
            <path id="Path_8033" data-name="Path 8033" d="M790.428,85.437a.993.993,0,1,1-.994-.994A.994.994,0,0,1,790.428,85.437Z" transform="translate(-728.616 -84.443)" stroke="#007bff" stroke-width="1"/>
          </g>
          <g id="Group_7077" data-name="Group 7077" transform="translate(7.478 11.393)">
            <circle id="Ellipse_799" data-name="Ellipse 799" cx="0.993" cy="0.993" r="0.993" stroke="#007bff" stroke-width="1"/>
            <circle id="Ellipse_800" data-name="Ellipse 800" cx="0.993" cy="0.993" r="0.993" transform="translate(14.956)" stroke="#007bff" stroke-width="1"/>
            <path id="Path_8034" data-name="Path 8034" d="M767.993,96.829a.993.993,0,1,1-.993-.993A.992.992,0,0,1,767.993,96.829Z" transform="translate(-736.094 -95.836)" stroke="#007bff" stroke-width="1"/>
            <circle id="Ellipse_801" data-name="Ellipse 801" cx="0.993" cy="0.993" r="0.993" transform="translate(44.869)" stroke="#007bff" stroke-width="1"/>
          </g>
        </g>
        <g id="Group_7081" data-name="Group 7081" transform="translate(0 22.844)">
          <g id="Group_7079" data-name="Group 7079">
            <path id="Path_8035" data-name="Path 8035" d="M730.6,108.28a.993.993,0,1,1-.993-.993A.994.994,0,0,1,730.6,108.28Z" transform="translate(-728.616 -107.287)" stroke="#007bff" stroke-width="1"/>
            <path id="Path_8036" data-name="Path 8036" d="M745.559,108.28a.993.993,0,1,1-.993-.993A.994.994,0,0,1,745.559,108.28Z" transform="translate(-728.616 -107.287)" stroke="#007bff" stroke-width="1"/>
            <path id="Path_8037" data-name="Path 8037" d="M760.515,108.28a.993.993,0,1,1-.993-.993A.993.993,0,0,1,760.515,108.28Z" transform="translate(-728.616 -107.287)" stroke="#007bff" stroke-width="1"/>
            <path id="Path_8038" data-name="Path 8038" d="M775.471,108.28a.993.993,0,1,1-.993-.993A.993.993,0,0,1,775.471,108.28Z" transform="translate(-728.616 -107.287)" stroke="#007bff" stroke-width="1"/>
            <path id="Path_8039" data-name="Path 8039" d="M790.428,108.28a.993.993,0,1,1-.994-.993A.994.994,0,0,1,790.428,108.28Z" transform="translate(-728.616 -107.287)" stroke="#007bff" stroke-width="1"/>
          </g>
          <g id="Group_7080" data-name="Group 7080" transform="translate(7.478 11.392)">
            <circle id="Ellipse_802" data-name="Ellipse 802" cx="0.993" cy="0.993" r="0.993" transform="translate(0 0)" stroke="#007bff" stroke-width="1"/>
            <circle id="Ellipse_803" data-name="Ellipse 803" cx="0.993" cy="0.993" r="0.993" transform="translate(14.956 0)" stroke="#007bff" stroke-width="1"/>
            <path id="Path_8040" data-name="Path 8040" d="M767.993,119.672a.993.993,0,1,1-.993-.993A.993.993,0,0,1,767.993,119.672Z" transform="translate(-736.094 -118.679)" stroke="#007bff" stroke-width="1"/>
            <circle id="Ellipse_804" data-name="Ellipse 804" cx="0.993" cy="0.993" r="0.993" transform="translate(44.869 0)" stroke="#007bff" stroke-width="1"/>
          </g>
        </g>
        <g id="Group_7084" data-name="Group 7084" transform="translate(0 45.687)">
          <g id="Group_7082" data-name="Group 7082">
            <path id="Path_8041" data-name="Path 8041" d="M730.6,131.123a.993.993,0,1,1-.993-.993A.993.993,0,0,1,730.6,131.123Z" transform="translate(-728.616 -130.13)" stroke="#007bff" stroke-width="1"/>
            <path id="Path_8042" data-name="Path 8042" d="M745.559,131.123a.993.993,0,1,1-.993-.993A.993.993,0,0,1,745.559,131.123Z" transform="translate(-728.616 -130.13)" stroke="#007bff" stroke-width="1"/>
            <path id="Path_8043" data-name="Path 8043" d="M760.515,131.123a.993.993,0,1,1-.993-.993A.992.992,0,0,1,760.515,131.123Z" transform="translate(-728.616 -130.13)" stroke="#007bff" stroke-width="1"/>
            <path id="Path_8044" data-name="Path 8044" d="M775.471,131.123a.993.993,0,1,1-.993-.993A.992.992,0,0,1,775.471,131.123Z" transform="translate(-728.616 -130.13)" stroke="#007bff" stroke-width="1"/>
            <path id="Path_8045" data-name="Path 8045" d="M790.428,131.123a.993.993,0,1,1-.994-.993A.993.993,0,0,1,790.428,131.123Z" transform="translate(-728.616 -130.13)" stroke="#007bff" stroke-width="1"/>
          </g>
          <g id="Group_7083" data-name="Group 7083" transform="translate(7.478 11.392)">
            <circle id="Ellipse_805" data-name="Ellipse 805" cx="0.993" cy="0.993" r="0.993" transform="translate(0 0)" stroke="#007bff" stroke-width="1"/>
            <circle id="Ellipse_806" data-name="Ellipse 806" cx="0.993" cy="0.993" r="0.993" transform="translate(14.956 0)" stroke="#007bff" stroke-width="1"/>
            <path id="Path_8046" data-name="Path 8046" d="M767.993,142.516a.993.993,0,1,1-.993-.994A.993.993,0,0,1,767.993,142.516Z" transform="translate(-736.094 -141.522)" stroke="#007bff" stroke-width="1"/>
            <circle id="Ellipse_807" data-name="Ellipse 807" cx="0.993" cy="0.993" r="0.993" transform="translate(44.869 0)" stroke="#007bff" stroke-width="1"/>
          </g>
        </g>
      </g>
    </g>
    <g id="Group_7097" data-name="Group 7097" transform="translate(1372.728 1257.615)" opacity="0.51">
      <g id="Group_7096" data-name="Group 7096" transform="translate(0)">
        <g id="Group_7089" data-name="Group 7089">
          <g id="Group_7087" data-name="Group 7087">
            <path id="Path_8047" data-name="Path 8047" d="M572.243,366.153a.993.993,0,1,1-.993-.993A.992.992,0,0,1,572.243,366.153Z" transform="translate(-570.257 -365.16)" stroke="#007bff" stroke-width="1"/>
            <circle id="Ellipse_808" data-name="Ellipse 808" cx="0.993" cy="0.993" r="0.993" transform="translate(14.956)" stroke="#007bff" stroke-width="1"/>
            <circle id="Ellipse_809" data-name="Ellipse 809" cx="0.993" cy="0.993" r="0.993" transform="translate(29.912)" stroke="#007bff" stroke-width="1"/>
            <circle id="Ellipse_810" data-name="Ellipse 810" cx="0.993" cy="0.993" r="0.993" transform="translate(44.869)" stroke="#007bff" stroke-width="1"/>
            <path id="Path_8048" data-name="Path 8048" d="M632.068,366.153a.993.993,0,1,1-.993-.993A.992.992,0,0,1,632.068,366.153Z" transform="translate(-570.257 -365.16)" stroke="#007bff" stroke-width="1"/>
          </g>
          <g id="Group_7088" data-name="Group 7088" transform="translate(7.478 11.392)">
            <path id="Path_8049" data-name="Path 8049" d="M579.721,377.546a.993.993,0,1,1-.993-.994A.993.993,0,0,1,579.721,377.546Z" transform="translate(-577.735 -376.552)" stroke="#007bff" stroke-width="1"/>
            <circle id="Ellipse_811" data-name="Ellipse 811" cx="0.993" cy="0.993" r="0.993" transform="translate(14.956 0)" stroke="#007bff" stroke-width="1"/>
            <circle id="Ellipse_812" data-name="Ellipse 812" cx="0.993" cy="0.993" r="0.993" transform="translate(29.913 0)" stroke="#007bff" stroke-width="1"/>
            <path id="Path_8050" data-name="Path 8050" d="M624.59,377.546a.993.993,0,1,1-.993-.994A.993.993,0,0,1,624.59,377.546Z" transform="translate(-577.735 -376.552)" stroke="#007bff" stroke-width="1"/>
          </g>
        </g>
        <g id="Group_7092" data-name="Group 7092" transform="translate(0 22.843)">
          <g id="Group_7090" data-name="Group 7090">
            <path id="Path_8051" data-name="Path 8051" d="M572.243,389a.993.993,0,1,1-.993-.994A.993.993,0,0,1,572.243,389Z" transform="translate(-570.257 -388.003)" stroke="#007bff" stroke-width="1"/>
            <circle id="Ellipse_813" data-name="Ellipse 813" cx="0.993" cy="0.993" r="0.993" transform="translate(14.956 0)" stroke="#007bff" stroke-width="1"/>
            <circle id="Ellipse_814" data-name="Ellipse 814" cx="0.993" cy="0.993" r="0.993" transform="translate(29.912 0)" stroke="#007bff" stroke-width="1"/>
            <circle id="Ellipse_815" data-name="Ellipse 815" cx="0.993" cy="0.993" r="0.993" transform="translate(44.869 0)" stroke="#007bff" stroke-width="1"/>
            <path id="Path_8052" data-name="Path 8052" d="M632.068,389a.993.993,0,1,1-.993-.994A.993.993,0,0,1,632.068,389Z" transform="translate(-570.257 -388.003)" stroke="#007bff" stroke-width="1"/>
          </g>
          <g id="Group_7091" data-name="Group 7091" transform="translate(7.478 11.393)">
            <path id="Path_8053" data-name="Path 8053" d="M579.721,400.389a.993.993,0,1,1-.993-.993A.992.992,0,0,1,579.721,400.389Z" transform="translate(-577.735 -399.396)" stroke="#007bff" stroke-width="1"/>
            <circle id="Ellipse_816" data-name="Ellipse 816" cx="0.993" cy="0.993" r="0.993" transform="translate(14.956)" stroke="#007bff" stroke-width="1"/>
            <circle id="Ellipse_817" data-name="Ellipse 817" cx="0.993" cy="0.993" r="0.993" transform="translate(29.913)" stroke="#007bff" stroke-width="1"/>
            <path id="Path_8054" data-name="Path 8054" d="M624.59,400.389a.993.993,0,1,1-.993-.993A.992.992,0,0,1,624.59,400.389Z" transform="translate(-577.735 -399.396)" stroke="#007bff" stroke-width="1"/>
          </g>
        </g>
        <g id="Group_7095" data-name="Group 7095" transform="translate(0 45.687)">
          <g id="Group_7093" data-name="Group 7093">
            <path id="Path_8055" data-name="Path 8055" d="M572.243,411.84a.993.993,0,1,1-.993-.993A.993.993,0,0,1,572.243,411.84Z" transform="translate(-570.257 -410.847)" stroke="#007bff" stroke-width="1"/>
            <circle id="Ellipse_818" data-name="Ellipse 818" cx="0.993" cy="0.993" r="0.993" transform="translate(14.956)" stroke="#007bff" stroke-width="1"/>
            <circle id="Ellipse_819" data-name="Ellipse 819" cx="0.993" cy="0.993" r="0.993" transform="translate(29.912)" stroke="#007bff" stroke-width="1"/>
            <circle id="Ellipse_820" data-name="Ellipse 820" cx="0.993" cy="0.993" r="0.993" transform="translate(44.869)" stroke="#007bff" stroke-width="1"/>
            <path id="Path_8056" data-name="Path 8056" d="M632.068,411.84a.993.993,0,1,1-.993-.993A.993.993,0,0,1,632.068,411.84Z" transform="translate(-570.257 -410.847)" stroke="#007bff" stroke-width="1"/>
          </g>
          <g id="Group_7094" data-name="Group 7094" transform="translate(7.478 11.392)">
            <path id="Path_8057" data-name="Path 8057" d="M579.721,423.232a.993.993,0,1,1-.993-.993A.993.993,0,0,1,579.721,423.232Z" transform="translate(-577.735 -422.239)" stroke="#007bff" stroke-width="1"/>
            <circle id="Ellipse_821" data-name="Ellipse 821" cx="0.993" cy="0.993" r="0.993" transform="translate(14.956 0)" stroke="#007bff" stroke-width="1"/>
            <circle id="Ellipse_822" data-name="Ellipse 822" cx="0.993" cy="0.993" r="0.993" transform="translate(29.913 0)" stroke="#007bff" stroke-width="1"/>
            <path id="Path_8058" data-name="Path 8058" d="M624.59,423.232a.993.993,0,1,1-.993-.993A.993.993,0,0,1,624.59,423.232Z" transform="translate(-577.735 -422.239)" stroke="#007bff" stroke-width="1"/>
          </g>
        </g>
      </g>
    </g>
    <g id="Group_7108" data-name="Group 7108" transform="translate(675.094 1258.667)" opacity="0.51">
      <g id="Group_7107" data-name="Group 7107" transform="translate(0)">
        <g id="Group_7100" data-name="Group 7100">
          <g id="Group_7098" data-name="Group 7098">
            <circle id="Ellipse_823" data-name="Ellipse 823" cx="0.993" cy="0.993" r="0.993" stroke="#007bff" stroke-width="1"/>
            <path id="Path_8059" data-name="Path 8059" d="M256.971,475.7a.993.993,0,1,1-.993-.993A.992.992,0,0,1,256.971,475.7Z" transform="translate(-240.029 -474.709)" stroke="#007bff" stroke-width="1"/>
            <circle id="Ellipse_824" data-name="Ellipse 824" cx="0.993" cy="0.993" r="0.993" transform="translate(29.913)" stroke="#007bff" stroke-width="1"/>
            <circle id="Ellipse_825" data-name="Ellipse 825" cx="0.993" cy="0.993" r="0.993" transform="translate(44.869)" stroke="#007bff" stroke-width="1"/>
            <circle id="Ellipse_826" data-name="Ellipse 826" cx="0.993" cy="0.993" r="0.993" transform="translate(59.825)" stroke="#007bff" stroke-width="1"/>
          </g>
          <g id="Group_7099" data-name="Group 7099" transform="translate(7.478 11.392)">
            <circle id="Ellipse_827" data-name="Ellipse 827" cx="0.993" cy="0.993" r="0.993" transform="translate(0 0)" stroke="#007bff" stroke-width="1"/>
            <path id="Path_8060" data-name="Path 8060" d="M264.45,487.094a.993.993,0,1,1-.994-.993A.994.994,0,0,1,264.45,487.094Z" transform="translate(-247.507 -486.101)" stroke="#007bff" stroke-width="1"/>
            <circle id="Ellipse_828" data-name="Ellipse 828" cx="0.993" cy="0.993" r="0.993" transform="translate(29.912 0)" stroke="#007bff" stroke-width="1"/>
            <circle id="Ellipse_829" data-name="Ellipse 829" cx="0.993" cy="0.993" r="0.993" transform="translate(44.869 0)" stroke="#007bff" stroke-width="1"/>
          </g>
        </g>
        <g id="Group_7103" data-name="Group 7103" transform="translate(0 22.843)">
          <g id="Group_7101" data-name="Group 7101">
            <circle id="Ellipse_830" data-name="Ellipse 830" cx="0.993" cy="0.993" r="0.993" transform="translate(0 0)" stroke="#007bff" stroke-width="1"/>
            <path id="Path_8061" data-name="Path 8061" d="M256.971,498.545a.993.993,0,1,1-.993-.993A.993.993,0,0,1,256.971,498.545Z" transform="translate(-240.029 -497.552)" stroke="#007bff" stroke-width="1"/>
            <circle id="Ellipse_831" data-name="Ellipse 831" cx="0.993" cy="0.993" r="0.993" transform="translate(29.913 0)" stroke="#007bff" stroke-width="1"/>
            <circle id="Ellipse_832" data-name="Ellipse 832" cx="0.993" cy="0.993" r="0.993" transform="translate(44.869 0)" stroke="#007bff" stroke-width="1"/>
            <circle id="Ellipse_833" data-name="Ellipse 833" cx="0.993" cy="0.993" r="0.993" transform="translate(59.825 0)" stroke="#007bff" stroke-width="1"/>
          </g>
          <g id="Group_7102" data-name="Group 7102" transform="translate(7.478 11.392)">
            <circle id="Ellipse_834" data-name="Ellipse 834" cx="0.993" cy="0.993" r="0.993" transform="translate(0 0)" stroke="#007bff" stroke-width="1"/>
            <path id="Path_8062" data-name="Path 8062" d="M264.45,509.938a.993.993,0,1,1-.994-.994A.994.994,0,0,1,264.45,509.938Z" transform="translate(-247.507 -508.944)" stroke="#007bff" stroke-width="1"/>
            <circle id="Ellipse_835" data-name="Ellipse 835" cx="0.993" cy="0.993" r="0.993" transform="translate(29.912 0)" stroke="#007bff" stroke-width="1"/>
            <circle id="Ellipse_836" data-name="Ellipse 836" cx="0.993" cy="0.993" r="0.993" transform="translate(44.869 0)" stroke="#007bff" stroke-width="1"/>
          </g>
        </g>
        <g id="Group_7106" data-name="Group 7106" transform="translate(0 45.686)">
          <g id="Group_7104" data-name="Group 7104">
            <circle id="Ellipse_837" data-name="Ellipse 837" cx="0.993" cy="0.993" r="0.993" transform="translate(0 0)" stroke="#007bff" stroke-width="1"/>
            <path id="Path_8063" data-name="Path 8063" d="M256.971,521.389a.993.993,0,1,1-.993-.994A.993.993,0,0,1,256.971,521.389Z" transform="translate(-240.029 -520.395)" stroke="#007bff" stroke-width="1"/>
            <circle id="Ellipse_838" data-name="Ellipse 838" cx="0.993" cy="0.993" r="0.993" transform="translate(29.913 0)" stroke="#007bff" stroke-width="1"/>
            <circle id="Ellipse_839" data-name="Ellipse 839" cx="0.993" cy="0.993" r="0.993" transform="translate(44.869 0)" stroke="#007bff" stroke-width="1"/>
            <circle id="Ellipse_840" data-name="Ellipse 840" cx="0.993" cy="0.993" r="0.993" transform="translate(59.825 0)" stroke="#007bff" stroke-width="1"/>
          </g>
          <g id="Group_7105" data-name="Group 7105" transform="translate(7.478 11.393)">
            <circle id="Ellipse_841" data-name="Ellipse 841" cx="0.993" cy="0.993" r="0.993" stroke="#007bff" stroke-width="1"/>
            <path id="Path_8064" data-name="Path 8064" d="M264.45,532.781a.993.993,0,1,1-.994-.993A.994.994,0,0,1,264.45,532.781Z" transform="translate(-247.507 -531.788)" stroke="#007bff" stroke-width="1"/>
            <circle id="Ellipse_842" data-name="Ellipse 842" cx="0.993" cy="0.993" r="0.993" transform="translate(29.912)" stroke="#007bff" stroke-width="1"/>
            <circle id="Ellipse_843" data-name="Ellipse 843" cx="0.993" cy="0.993" r="0.993" transform="translate(44.869)" stroke="#007bff" stroke-width="1"/>
          </g>
        </g>
      </g>
    </g>
    <path id="Path_8065" data-name="Path 8065" d="M209.11,88.975H156.189V36.054H209.11Zm-44.779-8.142h36.637V44.2H164.331Z" transform="translate(357.793 978)" fill="none" stroke="#007bff" stroke-miterlimit="10" stroke-width="0.25"/>
    <path id="Path_8066" data-name="Path 8066" d="M604.2,524.013H551.275V471.092H604.2Zm-44.78-8.142h36.638V479.233H559.416Z" transform="translate(611.594 760.063)" fill="none" stroke="#007bff" stroke-miterlimit="10" stroke-width="0.25"/>
    <path id="Path_8067" data-name="Path 8067" d="M776.461,362.548H723.539V309.627h52.922Zm-44.78-8.141h36.638V317.769H731.681Z" transform="translate(1101.59 978)" fill="none" stroke="#007bff" stroke-miterlimit="10" stroke-width="0.25"/>
    <path id="Path_8068" data-name="Path 8068" d="M580.386,20.815H527.465V-32.106h52.921Zm-44.779-8.142h36.638V-23.964H535.607Z" transform="translate(823.246 978)" fill="none" stroke="#007bff" stroke-miterlimit="10" stroke-width="0.25"/>
    <path id="Path_8069" data-name="Path 8069" d="M137.981,528.254H85.06V475.333h52.921ZM93.2,520.112h36.637V483.475H93.2Z" transform="translate(924.176 646.176)" fill="none" stroke="#007bff" stroke-miterlimit="10" stroke-width="0.25"/>
    <path id="Path_8070" data-name="Path 8070" d="M253.644,115.742c7.511-3.242,10.675,4.087,18.186.844s4.348-10.571,11.859-13.813,10.675,4.086,18.186.844,4.349-10.572,11.862-13.815,10.676,4.086,18.188.843" transform="translate(492.533 978)" fill="none" stroke="#007bff" stroke-miterlimit="10" stroke-width="0.166"/>
    <path id="Path_8071" data-name="Path 8071" d="M-31.685,55.024c7.512-3.242,10.675,4.087,18.186.844S-9.151,45.3-1.64,42.055s10.675,4.086,18.186.844S20.9,32.327,28.408,29.084s10.676,4.086,18.188.843" transform="translate(94.467 978)" fill="none" stroke="#007bff" stroke-miterlimit="10" stroke-width="0.166"/>
    <path id="Path_8072" data-name="Path 8072" d="M581.8,104.181c7.511-3.242,10.674,4.086,18.186.844s4.347-10.571,11.858-13.814,10.675,4.087,18.187.844,4.349-10.571,11.861-13.814,10.676,4.085,18.188.842" transform="translate(917.334 978)" fill="none" stroke="#007bff" stroke-miterlimit="10" stroke-width="0.166"/>
    <path id="Path_8073" data-name="Path 8073" d="M544.449,307.456c7.511-3.243,10.674,4.086,18.186.844s4.347-10.571,11.858-13.813,10.675,4.086,18.187.843,4.349-10.571,11.861-13.814,10.676,4.085,18.189.842" transform="translate(868.988 978)" fill="none" stroke="#007bff" stroke-miterlimit="10" stroke-width="0.166"/>
    <path id="Path_8074" data-name="Path 8074" d="M724.129,475.686c7.511-3.243,10.675,4.086,18.186.844s4.347-10.571,11.859-13.814,10.675,4.086,18.186.844,4.349-10.572,11.861-13.814,10.676,4.085,18.189.842" transform="translate(508.59 684.832)" fill="none" stroke="#007bff" stroke-miterlimit="10" stroke-width="0.166"/>
    <path id="Path_8075" data-name="Path 8075" d="M435.246,7.745c7.512-3.242,10.675,4.087,18.186.844S457.78-1.982,465.291-5.224s10.675,4.086,18.186.844,4.349-10.572,11.862-13.815,10.676,4.086,18.188.843" transform="translate(727.623 978)" fill="none" stroke="#007bff" stroke-miterlimit="10" stroke-width="0.166"/>
    <path id="Path_8076" data-name="Path 8076" d="M335.86,465.358c7.511-3.243,10.674,4.086,18.185.844s4.348-10.571,11.859-13.814,10.675,4.086,18.186.844,4.349-10.572,11.862-13.815,10.676,4.086,18.188.843" transform="translate(520.625 863.873)" fill="none" stroke="#007bff" stroke-miterlimit="10" stroke-width="0.166"/>
    <path id="Path_8077" data-name="Path 8077" d="M-53.856,510.194c7.511-3.242,10.675,4.087,18.186.844s4.348-10.571,11.859-13.813,10.675,4.086,18.186.844S-1.276,487.5,6.236,484.254s10.676,4.086,18.189.843" transform="translate(84.467 784.479)" fill="none" stroke="#007bff" stroke-miterlimit="10" stroke-width="0.166"/>
    <path id="Path_8078" data-name="Path 8078" d="M120.841,377.211c7.511-3.242,10.674,4.086,18.186.844s4.347-10.571,11.858-13.813,10.675,4.086,18.187.843,4.349-10.571,11.861-13.814,10.676,4.086,18.188.843" transform="translate(291.615 966.259)" fill="none" stroke="#007bff" stroke-miterlimit="10" stroke-width="0.166"/>
    <path id="Path_8107" data-name="Path 8107" d="M0,0Z" transform="translate(94 978)" fill="none" stroke="#007bff" stroke-width="1"/>
  </g>
</svg>
