<svg xmlns="http://www.w3.org/2000/svg" width="85.504" height="86.929" viewBox="0 0 85.504 86.929">
  <g id="bullhorn" transform="translate(-2 -1)">
    <path id="Path_8384" data-name="Path 8384" d="M51.877,63.351h-2.85V49.386a1.425,1.425,0,0,0-2.85,0V63.351H9.125V34.85H20.982a1.425,1.425,0,1,0,0-2.85H7.7a1.425,1.425,0,0,0-1.425,1.425V63.351H3.425A1.425,1.425,0,0,0,2,64.776v2.85a7.125,7.125,0,0,0,7.125,7.125H46.177A7.125,7.125,0,0,0,53.3,67.627v-2.85A1.425,1.425,0,0,0,51.877,63.351Zm-1.425,4.275A4.275,4.275,0,0,1,46.177,71.9h-2.85V70.477a1.425,1.425,0,0,0-2.85,0V71.9H14.826V70.477a1.425,1.425,0,0,0-2.85,0V71.9H9.125A4.275,4.275,0,0,1,4.85,67.627V66.2h45.6Z" transform="translate(0 13.177)" fill="#007bff"/>
    <path id="Path_8385" data-name="Path 8385" d="M56.125,8.85h2.85a1.425,1.425,0,1,0,0-2.85h-2.85a4.275,4.275,0,0,0-4.275,4.275V11.7H50.425a1.425,1.425,0,1,0,0,2.85H51.85v4.275a1.425,1.425,0,1,0,2.85,0V14.55h1.425a1.425,1.425,0,0,0,0-2.85H54.7V10.275A1.425,1.425,0,0,1,56.125,8.85Z" transform="translate(19.978 2.125)" fill="#007bff"/>
    <path id="Path_8386" data-name="Path 8386" d="M65.376,2h-17.1A4.275,4.275,0,0,0,44,6.275v2.85a1.425,1.425,0,1,0,2.85,0V6.275A1.425,1.425,0,0,1,48.275,4.85h17.1A1.425,1.425,0,0,1,66.8,6.275v17.1A1.425,1.425,0,0,1,65.376,24.8h-17.1a1.425,1.425,0,0,1-1.425-1.425v-8.55a1.425,1.425,0,1,0-2.85,0v8.55a4.275,4.275,0,0,0,4.275,4.275h17.1a4.275,4.275,0,0,0,4.275-4.275V6.275A4.275,4.275,0,0,0,65.376,2Z" transform="translate(17.853 0.425)" fill="#007bff"/>
    <path id="Path_8387" data-name="Path 8387" d="M49,43.7A5.7,5.7,0,1,0,54.7,38,5.7,5.7,0,0,0,49,43.7Zm8.55,0a2.85,2.85,0,1,1-2.85-2.85A2.85,2.85,0,0,1,57.55,43.7Z" transform="translate(19.978 15.727)" fill="#007bff"/>
    <path id="Path_8388" data-name="Path 8388" d="M65.376,33h-17.1A4.275,4.275,0,0,0,44,37.275v17.1a4.275,4.275,0,0,0,4.275,4.275h17.1a4.275,4.275,0,0,0,4.275-4.275v-2.85a1.425,1.425,0,1,0-2.85,0v2.85A1.425,1.425,0,0,1,65.376,55.8h-17.1a1.425,1.425,0,0,1-1.425-1.425v-17.1a1.425,1.425,0,0,1,1.425-1.425h17.1A1.425,1.425,0,0,1,66.8,37.275v8.55a1.425,1.425,0,1,0,2.85,0v-8.55A4.275,4.275,0,0,0,65.376,33Z" transform="translate(17.853 13.602)" fill="#007bff"/>
    <path id="Path_8389" data-name="Path 8389" d="M24.67,17.185a1.418,1.418,0,0,0,1.4.057l8.55-4.275a1.425,1.425,0,0,0,0-2.537l-8.55-4.275A1.425,1.425,0,0,0,24,7.424v8.55A1.425,1.425,0,0,0,24.67,17.185Zm2.18-7.453L30.783,11.7,26.85,13.666Z" transform="translate(9.351 2.127)" fill="#007bff"/>
    <path id="Path_8390" data-name="Path 8390" d="M30.826,26.651A12.826,12.826,0,1,0,18,13.826,12.826,12.826,0,0,0,30.826,26.651Zm0-22.8a9.975,9.975,0,1,1-9.975,9.975A9.975,9.975,0,0,1,30.826,3.85Z" transform="translate(6.801)" fill="#007bff"/>
    <path id="Path_8391" data-name="Path 8391" d="M37.425,25.55a1.425,1.425,0,0,0,1.14-.57l4.275-5.7a1.425,1.425,0,0,0-2.28-1.71l-4.275,5.7a1.425,1.425,0,0,0,1.14,2.28Z" transform="translate(14.452 6.801)" fill="#007bff"/>
    <path id="Path_8392" data-name="Path 8392" d="M39.285,28.555a1.425,1.425,0,0,0,2,.285l5.7-4.275a1.425,1.425,0,0,0-1.71-2.28l-5.7,4.275a1.425,1.425,0,0,0-.285,2Z" transform="translate(15.727 8.926)" fill="#007bff"/>
    <path id="Path_8393" data-name="Path 8393" d="M52.02,29.15a1.425,1.425,0,0,0-1.71-1.14l-7.125,1.425a1.432,1.432,0,0,0,.285,2.85h.285L50.88,30.86a1.425,1.425,0,0,0,1.14-1.71Z" transform="translate(16.958 11.467)" fill="#007bff"/>
    <path id="Path_8394" data-name="Path 8394" d="M3.425,36.651h17.1a1.425,1.425,0,0,0,1.425-1.425v-22.8A1.425,1.425,0,0,0,20.526,11H3.425A1.425,1.425,0,0,0,2,12.425v22.8A1.425,1.425,0,0,0,3.425,36.651ZM4.85,13.85H19.1V33.8H4.85Z" transform="translate(0 4.251)" fill="#007bff"/>
    <path id="Path_8395" data-name="Path 8395" d="M12.275,15H9.425a1.425,1.425,0,1,0,0,2.85h2.85a1.425,1.425,0,0,0,0-2.85Z" transform="translate(2.55 5.951)" fill="#007bff"/>
    <path id="Path_8396" data-name="Path 8396" d="M13.125,19h-5.7a1.425,1.425,0,1,0,0,2.85h5.7a1.425,1.425,0,1,0,0-2.85Z" transform="translate(1.7 7.651)" fill="#007bff"/>
    <path id="Path_8397" data-name="Path 8397" d="M13.125,23h-5.7a1.425,1.425,0,1,0,0,2.85h5.7a1.425,1.425,0,1,0,0-2.85Z" transform="translate(1.7 9.351)" fill="#007bff"/>
    <path id="Path_8398" data-name="Path 8398" d="M47.633,31.122a1.43,1.43,0,1,0-2.48,1.425L51.438,43.42l-22.8,8.55h-.214l-3.705,2.138-2.465,1.425a2.846,2.846,0,0,1-3.89-1.04l-2.85-4.931A2.85,2.85,0,0,1,16.581,45.8l4.931-2.85,3.563,6.171a1.43,1.43,0,1,0,2.48-1.425l-3.677-6.356L41.762,26.59l.584,1.012a1.43,1.43,0,0,0,2.48-1.425L43.4,23.711a1.444,1.444,0,0,0-2.152-.385L21.3,39.772l-6.071,3.506a5.7,5.7,0,0,0-2.622,6.456l-1.425.812a4.272,4.272,0,0,0,2.138,7.98,4.361,4.361,0,0,0,2.138-.57l1.425-.812a5.529,5.529,0,0,0,2.494,1.482,5.4,5.4,0,0,0,1.5.2,5.615,5.615,0,0,0,2.85-.77l1.24-.713,2.85,4.945a4.271,4.271,0,1,0,7.4-4.275L32.613,53.5l21.376-8.023a1.429,1.429,0,0,0,.741-2.038ZM13.973,55.476a1.424,1.424,0,1,1-1.425-2.465l1.24-.713,1.425,2.465Zm18.754,3.99a1.424,1.424,0,0,1-2.465,1.425l-2.85-4.945,2.366-1.354h.114Z" transform="translate(2.99 9.352)" fill="#007bff"/>
  </g>
</svg>
