<svg xmlns="http://www.w3.org/2000/svg" width="150.407" height="93.015" viewBox="0 0 150.407 93.015">
  <g id="chennai" transform="translate(1.5 1.5)">
    <path id="Path_8165" data-name="Path 8165" d="M26.769,85.419H45.041V52.977H26.769Z" transform="translate(-19.236 5.749)" fill="none"/>
    <path id="Path_8166" data-name="Path 8166" d="M26.769,84.261H45.041V52.977H26.769Z" transform="translate(-19.236 5.749)" fill="none" stroke="#007bff" stroke-linecap="round" stroke-linejoin="round" stroke-miterlimit="10" stroke-width="3"/>
    <path id="Path_8167" data-name="Path 8167" d="M32.387,44.4,26.769,58.3H45.041L39.428,44.4Z" transform="translate(-19.236 0.426)" fill="none"/>
    <path id="Path_8168" data-name="Path 8168" d="M45.041,58.3H26.769l5.618-13.9h7.041Z" transform="translate(-19.236 0.426)" fill="none" stroke="#007bff" stroke-linecap="round" stroke-linejoin="round" stroke-miterlimit="10" stroke-width="3"/>
    <path id="Path_8169" data-name="Path 8169" d="M30.292,46.174h6.852V42.7l-.2-1.158H30.292Z" transform="translate(-17.05 -1.348)" fill="none"/>
    <path id="Path_8170" data-name="Path 8170" d="M30.292,46.174h6.852V41.539H30.292Z" transform="translate(-17.05 -1.348)" fill="none" stroke="#007bff" stroke-linecap="round" stroke-linejoin="round" stroke-miterlimit="10" stroke-width="3"/>
    <path id="Path_8171" data-name="Path 8171" d="M26.769,70.356H45.041V52.977H26.769Z" transform="translate(-19.236 5.749)" fill="none"/>
    <path id="Path_8172" data-name="Path 8172" d="M26.769,70.356H45.041V52.977H26.769Z" transform="translate(-19.236 5.749)" fill="none" stroke="#007bff" stroke-linecap="round" stroke-linejoin="round" stroke-miterlimit="10" stroke-width="3"/>
    <path id="Path_8173" data-name="Path 8173" d="M30.2,76.092v-7.2c0-1.347,1.586-2.437,3.551-2.437s3.551,1.09,3.551,2.437v7.2Z" transform="translate(-17.11 14.113)" fill="none"/>
    <path id="Path_8174" data-name="Path 8174" d="M30.2,75.9V68.842c0-1.321,1.586-2.388,3.551-2.388S37.3,67.521,37.3,68.842V75.9Z" transform="translate(-17.11 14.113)" fill="none" stroke="#007bff" stroke-linecap="round" stroke-linejoin="round" stroke-miterlimit="10" stroke-width="3"/>
    <path id="Path_8175" data-name="Path 8175" d="M30.2,68.747v-10.6c0-1.419,1.586-2.566,3.551-2.566S37.3,56.725,37.3,58.145v10.6Z" transform="translate(-17.11 7.364)" fill="none"/>
    <path id="Path_8176" data-name="Path 8176" d="M30.2,68.747v-10.6c0-1.419,1.586-2.566,3.551-2.566S37.3,56.725,37.3,58.145v10.6Z" transform="translate(-17.11 7.364)" fill="none" stroke="#007bff" stroke-linecap="round" stroke-linejoin="round" stroke-miterlimit="10" stroke-width="3"/>
    <path id="Path_8177" data-name="Path 8177" d="M60.986,95.1h18.52V35.508H60.986Z" transform="translate(1.997 -5.091)" fill="none" stroke="#007bff" stroke-linecap="round" stroke-linejoin="round" stroke-miterlimit="10" stroke-width="3"/>
    <path id="Path_8178" data-name="Path 8178" d="M79.505,41.875H60.986L66.672,25.25h7.14Z" transform="translate(1.997 -11.456)" fill="none"/>
    <path id="Path_8179" data-name="Path 8179" d="M79.505,41.875H60.986L66.672,25.25h7.14Z" transform="translate(1.997 -11.456)" fill="none" stroke="#007bff" stroke-linecap="round" stroke-linejoin="round" stroke-miterlimit="10" stroke-width="3"/>
    <path id="Path_8180" data-name="Path 8180" d="M64.488,27.221h7.169V22.079H64.488Z" transform="translate(4.17 -13.424)" fill="none"/>
    <path id="Path_8181" data-name="Path 8181" d="M64.488,27.221h7.169V22.079H64.488Z" transform="translate(4.17 -13.424)" fill="none" stroke="#007bff" stroke-linecap="round" stroke-linejoin="round" stroke-miterlimit="10" stroke-width="3"/>
    <path id="Path_8182" data-name="Path 8182" d="M66.7,25.39V16.738" transform="translate(5.542 -16.738)" fill="none" stroke="#007bff" stroke-linecap="round" stroke-linejoin="round" stroke-miterlimit="10" stroke-width="3"/>
    <path id="Path_8183" data-name="Path 8183" d="M64.488,75.651h6.348V66.563H64.488Z" transform="translate(4.17 14.18)" fill="none" stroke="#007bff" stroke-miterlimit="10" stroke-width="3"/>
    <path id="Path_8184" data-name="Path 8184" d="M71.571,56.119v-7.2c0-1.356-1.583-2.439-3.544-2.439s-3.539,1.083-3.539,2.439v7.2Z" transform="translate(4.17 1.72)" fill="none"/>
    <path id="Path_8185" data-name="Path 8185" d="M71.571,56.119v-7.2c0-1.356-1.583-2.439-3.544-2.439s-3.539,1.083-3.539,2.439v7.2Z" transform="translate(4.17 1.72)" fill="none" stroke="#007bff" stroke-linecap="round" stroke-linejoin="round" stroke-miterlimit="10" stroke-width="3"/>
    <path id="Path_8186" data-name="Path 8186" d="M60.96,70.056H79.48V52.43H60.96Z" transform="translate(1.981 5.41)" fill="none"/>
    <path id="Path_8187" data-name="Path 8187" d="M60.96,70.056H79.48V52.43H60.96Z" transform="translate(1.981 5.41)" fill="none" stroke="#007bff" stroke-linecap="round" stroke-linejoin="round" stroke-miterlimit="10" stroke-width="3"/>
    <path id="Path_8188" data-name="Path 8188" d="M71.571,68.1V58.017c0-1.352-1.583-2.435-3.544-2.435s-3.539,1.083-3.539,2.435V68.1Z" transform="translate(4.17 7.366)" fill="none"/>
    <path id="Path_8189" data-name="Path 8189" d="M71.571,68.1V58.017c0-1.352-1.583-2.435-3.544-2.435s-3.539,1.083-3.539,2.435V68.1Z" transform="translate(4.17 7.366)" fill="none" stroke="#007bff" stroke-linecap="round" stroke-linejoin="round" stroke-miterlimit="10" stroke-width="3"/>
    <path id="Path_8190" data-name="Path 8190" d="M71.167,42.436a2.972,2.972,0,0,1-.885,2.244,3.247,3.247,0,0,1-4.722,0,3.284,3.284,0,0,1,0-4.494,3.249,3.249,0,0,1,4.723,0,2.969,2.969,0,0,1,.884,2.245" transform="translate(4.282 -2.817)" fill="none"/>
    <path id="Path_8191" data-name="Path 8191" d="M71.167,42.436a2.972,2.972,0,0,1-.885,2.244,3.247,3.247,0,0,1-4.722,0,3.284,3.284,0,0,1,0-4.494,3.249,3.249,0,0,1,4.723,0,2.969,2.969,0,0,1,.884,2.245Z" transform="translate(4.282 -2.817)" fill="none" stroke="#007bff" stroke-linecap="round" stroke-linejoin="round" stroke-miterlimit="10" stroke-width="3"/>
    <path id="Path_8192" data-name="Path 8192" d="M95.23,84.8H113.8V52.43H95.23Z" transform="translate(23.247 5.41)" fill="none"/>
    <path id="Path_8193" data-name="Path 8193" d="M95.23,57.741H113.8l-5.7-13.878h-7.159Z" transform="translate(23.247 0.094)" fill="none"/>
    <path id="Path_8194" data-name="Path 8194" d="M95.23,57.741H113.8l-5.7-13.878h-7.159Z" transform="translate(23.247 0.094)" fill="none" stroke="#007bff" stroke-linecap="round" stroke-linejoin="round" stroke-miterlimit="10" stroke-width="3"/>
    <path id="Path_8195" data-name="Path 8195" d="M98.732,45.835h7.219V40.692H98.732Z" transform="translate(25.421 -1.874)" fill="none"/>
    <path id="Path_8196" data-name="Path 8196" d="M98.732,45.835h7.219V40.692H98.732Z" transform="translate(25.421 -1.874)" fill="none" stroke="#007bff" stroke-linecap="round" stroke-linejoin="round" stroke-miterlimit="10" stroke-width="3"/>
    <path id="Path_8197" data-name="Path 8197" d="M95.23,70.054H113.8V52.43H95.23Z" transform="translate(23.247 5.41)" fill="none"/>
    <path id="Path_8198" data-name="Path 8198" d="M95.23,70.054H113.8V52.43H95.23Z" transform="translate(23.247 5.41)" fill="none" stroke="#007bff" stroke-linecap="round" stroke-linejoin="round" stroke-miterlimit="10" stroke-width="3"/>
    <path id="Path_8199" data-name="Path 8199" d="M95.23,77.852H113.8V63.3H95.23Z" transform="translate(23.247 12.158)" fill="none" stroke="#007bff" stroke-linecap="round" stroke-linejoin="round" stroke-miterlimit="10" stroke-width="3"/>
    <path id="Path_8200" data-name="Path 8200" d="M105.869,75.9V68.842c0-1.321-1.585-2.388-3.551-2.388s-3.551,1.067-3.551,2.388V75.9Z" transform="translate(25.442 14.113)" fill="none" stroke="#007bff" stroke-linecap="round" stroke-linejoin="round" stroke-miterlimit="10" stroke-width="3"/>
    <path id="Path_8201" data-name="Path 8201" d="M105.869,68.1V58.019c0-1.349-1.585-2.441-3.551-2.441s-3.551,1.092-3.551,2.441V68.1Z" transform="translate(25.442 7.364)" fill="none"/>
    <path id="Path_8202" data-name="Path 8202" d="M105.869,68.1V58.019c0-1.349-1.585-2.441-3.551-2.441s-3.551,1.092-3.551,2.441V68.1Z" transform="translate(25.442 7.364)" fill="none" stroke="#007bff" stroke-linecap="round" stroke-linejoin="round" stroke-miterlimit="10" stroke-width="3"/>
    <path id="Path_8203" data-name="Path 8203" d="M72.678,84.6h36.545V52.43H72.678Z" transform="translate(9.253 5.41)" fill="none" stroke="#007bff" stroke-linecap="round" stroke-linejoin="round" stroke-miterlimit="10" stroke-width="3"/>
    <path id="Path_8204" data-name="Path 8204" d="M72.386,59.8H109.4V52.43H72.386Z" transform="translate(9.071 5.41)" fill="none"/>
    <path id="Path_8205" data-name="Path 8205" d="M72.386,59.8H109.4V52.43H72.386Z" transform="translate(9.071 5.41)" fill="none" stroke="#007bff" stroke-linecap="round" stroke-linejoin="round" stroke-miterlimit="10" stroke-width="3"/>
    <path id="Path_8206" data-name="Path 8206" d="M72.386,68.819H109.4V56.981H72.386Z" transform="translate(9.071 8.234)" fill="none"/>
    <path id="Path_8207" data-name="Path 8207" d="M72.386,68.819H109.4V56.981H72.386Z" transform="translate(9.071 8.234)" fill="none" stroke="#007bff" stroke-linecap="round" stroke-linejoin="round" stroke-miterlimit="10" stroke-width="3"/>
    <path id="Path_8208" data-name="Path 8208" d="M76.806,74.944h7.947V67.992H76.806Z" transform="translate(11.815 15.067)" fill="none" stroke="#007bff" stroke-miterlimit="10" stroke-width="3"/>
    <path id="Path_8209" data-name="Path 8209" d="M84.535,67.31V61.573c0-1.2-1.757-2.165-3.928-2.165s-3.926.97-3.926,2.165V67.31Z" transform="translate(11.736 9.74)" fill="none"/>
    <path id="Path_8210" data-name="Path 8210" d="M84.535,67.31V61.573c0-1.2-1.757-2.165-3.928-2.165s-3.926.97-3.926,2.165V67.31Z" transform="translate(11.736 9.74)" fill="none" stroke="#007bff" stroke-linecap="round" stroke-linejoin="round" stroke-miterlimit="10" stroke-width="3"/>
    <path id="Path_8211" data-name="Path 8211" d="M85.965,74.944h7.947V67.992H85.965Z" transform="translate(17.498 15.067)" fill="none" stroke="#007bff" stroke-miterlimit="10" stroke-width="3"/>
    <path id="Path_8212" data-name="Path 8212" d="M93.9,67.31V61.573c0-1.2-1.762-2.165-3.929-2.165s-3.93.97-3.93,2.165V67.31Z" transform="translate(17.544 9.74)" fill="none"/>
    <path id="Path_8213" data-name="Path 8213" d="M93.9,67.31V61.573c0-1.2-1.762-2.165-3.929-2.165s-3.93.97-3.93,2.165V67.31Z" transform="translate(17.544 9.74)" fill="none" stroke="#007bff" stroke-linecap="round" stroke-linejoin="round" stroke-miterlimit="10" stroke-width="3"/>
    <path id="Path_8214" data-name="Path 8214" d="M38.113,84.8H75.134V52.43H38.113Z" transform="translate(-12.196 5.41)" fill="none"/>
    <path id="Path_8215" data-name="Path 8215" d="M38.113,84.8H75.134V52.43H38.113Z" transform="translate(-12.196 5.41)" fill="none"/>
    <path id="Path_8216" data-name="Path 8216" d="M38.118,84.6H75.131V52.43H38.118Z" transform="translate(-12.193 5.41)" fill="none" stroke="#007bff" stroke-linecap="round" stroke-linejoin="round" stroke-miterlimit="10" stroke-width="3"/>
    <path id="Path_8217" data-name="Path 8217" d="M38.113,59.8H75.135V52.43H38.113Z" transform="translate(-12.196 5.41)" fill="none"/>
    <path id="Path_8218" data-name="Path 8218" d="M38.113,59.8H75.135V52.43H38.113Z" transform="translate(-12.196 5.41)" fill="none" stroke="#007bff" stroke-linecap="round" stroke-linejoin="round" stroke-miterlimit="10" stroke-width="3"/>
    <path id="Path_8219" data-name="Path 8219" d="M38.113,68.819H75.135V56.981H38.113Z" transform="translate(-12.196 8.234)" fill="none"/>
    <path id="Path_8220" data-name="Path 8220" d="M38.113,68.819H75.135V56.981H38.113Z" transform="translate(-12.196 8.234)" fill="none" stroke="#007bff" stroke-linecap="round" stroke-linejoin="round" stroke-miterlimit="10" stroke-width="3"/>
    <path id="Path_8221" data-name="Path 8221" d="M52.014,74.454h7.947V67.992H52.014Z" transform="translate(-3.57 15.067)" fill="none" stroke="#007bff" stroke-miterlimit="10" stroke-width="3"/>
    <path id="Path_8222" data-name="Path 8222" d="M51.812,67.31V61.573c0-1.2,1.758-2.165,3.93-2.165s3.934.97,3.934,2.165V67.31Z" transform="translate(-3.695 9.74)" fill="none"/>
    <path id="Path_8223" data-name="Path 8223" d="M51.812,67.31V61.573c0-1.2,1.758-2.165,3.93-2.165s3.934.97,3.934,2.165V67.31Z" transform="translate(-3.695 9.74)" fill="none" stroke="#007bff" stroke-linecap="round" stroke-linejoin="round" stroke-miterlimit="10" stroke-width="3"/>
    <path id="Path_8224" data-name="Path 8224" d="M42.4,74.452h7.95V67.992H42.4Z" transform="translate(-9.538 15.067)" fill="none" stroke="#007bff" stroke-miterlimit="10" stroke-width="3"/>
    <path id="Path_8225" data-name="Path 8225" d="M42.456,67.31V61.573c0-1.2,1.758-2.165,3.926-2.165s3.928.97,3.928,2.165V67.31Z" transform="translate(-9.501 9.74)" fill="none"/>
    <path id="Path_8226" data-name="Path 8226" d="M42.456,67.31V61.573c0-1.2,1.758-2.165,3.926-2.165s3.928.97,3.928,2.165V67.31Z" transform="translate(-9.501 9.74)" fill="none" stroke="#007bff" stroke-linecap="round" stroke-linejoin="round" stroke-miterlimit="10" stroke-width="3"/>
    <path id="Path_8227" data-name="Path 8227" d="M22.12,72.28H169.528" transform="translate(-22.12 17.728)" fill="none" stroke="#007bff" stroke-linecap="round" stroke-linejoin="round" stroke-width="3"/>
  </g>
</svg>
