<svg xmlns="http://www.w3.org/2000/svg" width="95.35" height="91.272" viewBox="0 0 95.35 91.272">
  <g id="college" transform="translate(0 -10.95)">
    <g id="Group_7226" data-name="Group 7226" transform="translate(0 10.95)">
      <g id="Group_7225" data-name="Group 7225" transform="translate(0 0)">
        <path id="Path_8417" data-name="Path 8417" d="M204.841,303.043h-.008l-1.344.006V296.6a1.4,1.4,0,0,0-2.793,0v7.841a1.4,1.4,0,0,0,1.16,1.376,6.734,6.734,0,0,0,1.058.027c.426,0,1.039,0,1.934-.007a1.4,1.4,0,0,0-.008-2.793Z" transform="translate(-163.321 -242.266)" fill="#007bff"/>
        <path id="Path_8418" data-name="Path 8418" d="M253.635,303.043h-.008l-1.344.006V296.6a1.4,1.4,0,0,0-2.793,0v7.841a1.4,1.4,0,0,0,1.16,1.376,6.734,6.734,0,0,0,1.058.027c.426,0,1.039,0,1.934-.007a1.4,1.4,0,0,0-.008-2.793Z" transform="translate(-203.028 -242.266)" fill="#007bff"/>
        <path id="Path_8419" data-name="Path 8419" d="M299.09,298.38a1.4,1.4,0,0,0,0-2.793h-3.276a1.4,1.4,0,0,0-1.4,1.4v7.776a1.4,1.4,0,0,0,1.4,1.4h3.276a1.4,1.4,0,0,0,0-2.793h-1.88v-1.095h1.638a1.4,1.4,0,1,0,0-2.793H297.21v-1.1h1.88Z" transform="translate(-239.587 -242.579)" fill="#007bff"/>
        <path id="Path_8420" data-name="Path 8420" d="M414.286,298.38a1.4,1.4,0,1,0,0-2.793h-3.276a1.4,1.4,0,0,0-1.4,1.4v7.776a1.4,1.4,0,0,0,1.4,1.4h3.276a1.4,1.4,0,0,0,0-2.793h-1.88v-1.095h1.638a1.4,1.4,0,1,0,0-2.793h-1.638v-1.1h1.88Z" transform="translate(-333.33 -242.579)" fill="#007bff"/>
        <path id="Path_8421" data-name="Path 8421" d="M349.93,299.126h-2.347a1.4,1.4,0,0,0,0,2.793h.678a1.756,1.756,0,0,1-1.717,1.131,2.527,2.527,0,1,1,1.412-4.624,1.4,1.4,0,0,0,1.563-2.314,5.32,5.32,0,1,0-2.975,9.73c2.816,0,4.783-2.188,4.783-5.32A1.4,1.4,0,0,0,349.93,299.126Z" transform="translate(-277.677 -242.265)" fill="#007bff"/>
        <path id="Path_8422" data-name="Path 8422" d="M78.486,302.268a1.4,1.4,0,0,0-1.967.174,1.741,1.741,0,0,1-.177.183,1.78,1.78,0,0,1-1.225.426,2.527,2.527,0,1,1,1.412-4.624,1.4,1.4,0,0,0,1.564-2.314,5.32,5.32,0,1,0-2.975,9.73,4.485,4.485,0,0,0,3.542-1.607A1.4,1.4,0,0,0,78.486,302.268Z" transform="translate(-56.799 -242.265)" fill="#007bff"/>
        <path id="Path_8423" data-name="Path 8423" d="M135.7,295.2a5.32,5.32,0,1,0,5.32,5.32A5.326,5.326,0,0,0,135.7,295.2Zm0,7.847a2.527,2.527,0,1,1,2.527-2.527A2.53,2.53,0,0,1,135.7,303.049Z" transform="translate(-106.097 -242.266)" fill="#007bff"/>
        <path id="Path_8424" data-name="Path 8424" d="M93.839,78.841l1.34-3.573a2.668,2.668,0,0,0-2.5-3.605H88.155v-9.58a2.545,2.545,0,0,0-2.542-2.542H81.7V33.53a1.4,1.4,0,1,0-2.793,0V59.541H75.626V24.527a2.186,2.186,0,0,0-1.451-2.055C68.8,20.56,60.544,19.126,54.563,18.26a48.043,48.043,0,0,0-13.777,0c-5.98.866-14.238,2.3-19.612,4.212a2.186,2.186,0,0,0-1.451,2.055V59.541H16.439V19.566a.442.442,0,0,1,.3-.421c6.4-2.171,16-3.822,22.919-4.825a55.915,55.915,0,0,1,16.037,0c6.922,1,16.518,2.653,22.919,4.825a.442.442,0,0,1,.3.421V27A1.4,1.4,0,0,0,81.7,27v-7.43A3.234,3.234,0,0,0,79.51,16.5c-6.6-2.24-16.378-3.925-23.416-4.944a58.726,58.726,0,0,0-16.838,0c-7.038,1.019-16.814,2.7-23.416,4.944a3.234,3.234,0,0,0-2.193,3.066V59.541H9.736a2.545,2.545,0,0,0-2.542,2.542v9.58H2.668a2.668,2.668,0,0,0-2.5,3.605l1.34,3.573L.169,82.415a2.668,2.668,0,0,0,2.5,3.605h8.758a2.671,2.671,0,0,0,2.668-2.668v-4.48h1.212a28.113,28.113,0,0,0,9.172,12.365,61.9,61.9,0,0,0,22.85,10.942,1.4,1.4,0,0,0,.693,0,61.9,61.9,0,0,0,22.85-10.942,28.11,28.11,0,0,0,9.171-12.365h1.212v4.48a2.671,2.671,0,0,0,2.668,2.668h8.758a2.668,2.668,0,0,0,2.5-3.605ZM22.516,24.962c5.168-1.765,12.967-3.112,18.67-3.937a45.229,45.229,0,0,1,12.976,0c5.7.826,13.5,2.172,18.67,3.937v34.58H22.516ZM11.3,83.227H2.847l1.294-3.448a2.668,2.668,0,0,0,0-1.875L2.847,74.455H7.194v1.874a2.545,2.545,0,0,0,2.542,2.542H11.3Zm57.855,5.8A59,59,0,0,1,47.675,99.383,59,59,0,0,1,26.193,89.032a25.452,25.452,0,0,1-7.881-10.161h3.958a23.459,23.459,0,0,0,6.368,7.542,50.626,50.626,0,0,0,18.69,8.951,1.4,1.4,0,0,0,.693,0,50.626,50.626,0,0,0,18.69-8.951,23.456,23.456,0,0,0,6.368-7.542h3.959A25.452,25.452,0,0,1,69.156,89.032ZM39.822,76.079a1.4,1.4,0,1,0,0,2.793h30.03A20.861,20.861,0,0,1,65,84.209a47.727,47.727,0,0,1-17.321,8.359,47.73,47.73,0,0,1-17.321-8.359A20.862,20.862,0,0,1,25.5,78.871h7.827a1.4,1.4,0,1,0,0-2.793H9.987V62.334H85.362V76.079Zm51.386,3.7L92.5,83.227H84.048V78.871h1.565a2.545,2.545,0,0,0,2.542-2.542V74.455H92.5L91.208,77.9A2.669,2.669,0,0,0,91.208,79.779Z" transform="translate(0 -10.95)" fill="#007bff"/>
        <path id="Path_8425" data-name="Path 8425" d="M177.476,110.491s0-8.05,0-8.054,0-.006,0-.009,0-.033,0-.049,0-.061-.007-.092a1.747,1.747,0,0,0-1.06-1.475l-19.146-8.1a3.26,3.26,0,0,0-2.527,0l-19.145,8.1a1.755,1.755,0,0,0,0,3.232l7.065,2.989v7.846a2.871,2.871,0,0,0,2.033,2.756c1.1.341,2.464.76,2.673.821a33.035,33.035,0,0,0,9.051,1.232,25.91,25.91,0,0,0,11.343-2.349,2.891,2.891,0,0,0,1.587-2.577v-7.73l5.344-2.261v5.719a3.689,3.689,0,0,0-2.289,3.409v2.714a3.685,3.685,0,0,0,7.37,0V113.9a3.69,3.69,0,0,0-2.289-3.409Zm-10.929,4.272a.087.087,0,0,1-.035.075c-5.5,2.728-13.377,2.4-18.368.938-.148-.043-1.108-.339-2.634-.81a.091.091,0,0,1-.064-.088v-6.664l9.287,3.929a3.259,3.259,0,0,0,2.528,0l9.287-3.929v6.549Zm-9.375-10.916H169.7l-13.53,5.724a.452.452,0,0,1-.35,0l-16.885-7.144,16.885-7.144a.452.452,0,0,1,.351,0l13.639,5.77H157.172a1.4,1.4,0,0,0,0,2.793Zm19.8,12.767a.892.892,0,0,1-1.785,0V113.9a.892.892,0,1,1,1.785,0Z" transform="translate(-109.465 -77.278)" fill="#007bff"/>
      </g>
    </g>
  </g>
</svg>
