<svg xmlns="http://www.w3.org/2000/svg" xmlns:xlink="http://www.w3.org/1999/xlink" width="120.541" height="117.693" viewBox="0 0 120.541 117.693">
  <defs>
    <clipPath id="clip-path">
      <rect id="Rectangle_231" data-name="Rectangle 231" width="91.332" height="117.625" fill="none"/>
    </clipPath>
  </defs>
  <g id="delhi_ncr" transform="translate(1)">
    <g id="Group_7158" data-name="Group 7158" transform="translate(12.912 0)" clip-path="url(#clip-path)">
      <path id="Path_8228" data-name="Path 8228" d="M98.229,59.208a14.29,14.29,0,0,0-28.572,0H42.428V31.531h83.029V59.208Z" transform="translate(-38.274 9.296)" fill="none" stroke="#007bff" stroke-linecap="round" stroke-linejoin="round" stroke-miterlimit="10" stroke-width="3"/>
      <path id="Path_8229" data-name="Path 8229" d="M105.4,21.628h9.316V33.39H46.912V21.628h9.32V14.5c4.878-.1,13.884-.621,17.665-2.492.515-.256.981-.573,1.454-.868l.039-.021a10.464,10.464,0,0,1,5.426-1.254,10.491,10.491,0,0,1,5.422,1.254l.037.021c.472.295.939.612,1.454.868C91.509,13.884,100.517,14.4,105.4,14.5v7.129Z" transform="translate(-34.455 -9.169)" fill="none"/>
      <path id="Path_8230" data-name="Path 8230" d="M105.4,21.628h9.316V33.39H46.912V21.628h9.32V14.5c4.878-.1,13.884-.621,17.665-2.492.515-.256.981-.573,1.454-.868l.039-.021a10.464,10.464,0,0,1,5.426-1.254,10.491,10.491,0,0,1,5.422,1.254l.037.021c.472.295.939.612,1.454.868C91.509,13.884,100.517,14.4,105.4,14.5v7.129Z" transform="translate(-34.455 -9.169)" fill="none" stroke="#007bff" stroke-linecap="round" stroke-linejoin="round" stroke-miterlimit="10" stroke-width="3"/>
      <path id="Path_8231" data-name="Path 8231" d="M57.455,40.168a4.151,4.151,0,1,1-1.216-2.935A4.151,4.151,0,0,1,57.455,40.168Z" transform="translate(-32.546 13.117)" fill="none"/>
      <path id="Path_8232" data-name="Path 8232" d="M57.455,40.168a4.151,4.151,0,1,1-1.216-2.935A4.151,4.151,0,0,1,57.455,40.168Z" transform="translate(-32.546 13.117)" fill="none" stroke="#007bff" stroke-linecap="round" stroke-linejoin="round" stroke-miterlimit="10" stroke-width="3"/>
      <path id="Path_8233" data-name="Path 8233" d="M83.61,40.168a4.151,4.151,0,1,1-1.216-2.935A4.151,4.151,0,0,1,83.61,40.168Z" transform="translate(-10.265 13.117)" fill="none"/>
      <path id="Path_8234" data-name="Path 8234" d="M83.61,40.168a4.151,4.151,0,1,1-1.216-2.935A4.151,4.151,0,0,1,83.61,40.168Z" transform="translate(-10.265 13.117)" fill="none" stroke="#007bff" stroke-linecap="round" stroke-linejoin="round" stroke-miterlimit="10" stroke-width="3"/>
      <path id="Path_8235" data-name="Path 8235" d="M125.458,28.791a2,2,0,0,1-1.924,2.076H44.35a2,2,0,0,1-1.922-2.076V24.64a2,2,0,0,1,1.922-2.076h79.184a2,2,0,0,1,1.924,2.076Z" transform="translate(-38.275 1.657)" fill="none"/>
      <path id="Path_8236" data-name="Path 8236" d="M125.458,28.791a2,2,0,0,1-1.924,2.076H44.35a2,2,0,0,1-1.922-2.076V24.64a2,2,0,0,1,1.922-2.076h79.184a2,2,0,0,1,1.924,2.076Z" transform="translate(-38.275 1.657)" fill="none" stroke="#007bff" stroke-linecap="round" stroke-linejoin="round" stroke-miterlimit="10" stroke-width="3"/>
      <path id="Path_8237" data-name="Path 8237" d="M129.5,33.876a2.011,2.011,0,0,1-1.9,2.112H42.843a2.016,2.016,0,0,1-1.908-2.112V28.413A2.021,2.021,0,0,1,42.843,26.3H127.6a2.015,2.015,0,0,1,1.9,2.112Z" transform="translate(-39.549 4.841)" fill="none"/>
      <path id="Path_8238" data-name="Path 8238" d="M129.5,33.876a2.011,2.011,0,0,1-1.9,2.112H42.843a2.016,2.016,0,0,1-1.908-2.112V28.413A2.021,2.021,0,0,1,42.843,26.3H127.6a2.015,2.015,0,0,1,1.9,2.112Z" transform="translate(-39.549 4.841)" fill="none" stroke="#007bff" stroke-linecap="round" stroke-linejoin="round" stroke-miterlimit="10" stroke-width="3"/>
      <path id="Path_8239" data-name="Path 8239" d="M74.145,50.312a1.8,1.8,0,0,1-1.892,1.7H42.827a1.8,1.8,0,0,1-1.894-1.7V48.168a1.8,1.8,0,0,1,1.894-1.692H72.253a1.8,1.8,0,0,1,1.892,1.692Z" transform="translate(-39.548 22.026)" fill="none"/>
      <path id="Path_8240" data-name="Path 8240" d="M74.145,50.312a1.8,1.8,0,0,1-1.892,1.7H42.827a1.8,1.8,0,0,1-1.894-1.7V48.168a1.8,1.8,0,0,1,1.894-1.692H72.253a1.8,1.8,0,0,1,1.892,1.692Z" transform="translate(-39.548 22.026)" fill="none" stroke="#007bff" stroke-linecap="round" stroke-linejoin="round" stroke-miterlimit="10" stroke-width="3"/>
      <path id="Path_8241" data-name="Path 8241" d="M104.035,50.311a1.8,1.8,0,0,1-1.89,1.7H72.708a1.8,1.8,0,0,1-1.885-1.7V48.168a1.8,1.8,0,0,1,1.885-1.692h29.437a1.8,1.8,0,0,1,1.89,1.692Z" transform="translate(-14.085 22.026)" fill="none"/>
      <path id="Path_8242" data-name="Path 8242" d="M104.035,50.311a1.8,1.8,0,0,1-1.89,1.7H72.708a1.8,1.8,0,0,1-1.885-1.7V48.168a1.8,1.8,0,0,1,1.885-1.692h29.437a1.8,1.8,0,0,1,1.89,1.692Z" transform="translate(-14.085 22.026)" fill="none" stroke="#007bff" stroke-linecap="round" stroke-linejoin="round" stroke-miterlimit="10" stroke-width="3"/>
      <path id="Path_8243" data-name="Path 8243" d="M72.318,92.363H99.994v-42.9H72.318Z" transform="translate(-12.811 24.574)" fill="none"/>
      <path id="Path_8244" data-name="Path 8244" d="M72.318,92.363H99.994v-42.9H72.318Z" transform="translate(-12.811 24.574)" fill="none" stroke="#007bff" stroke-linecap="round" stroke-linejoin="round" stroke-miterlimit="10" stroke-width="3"/>
      <path id="Path_8245" data-name="Path 8245" d="M42.428,92.363H70.1v-42.9H42.428Z" transform="translate(-38.274 24.574)" fill="none"/>
      <path id="Path_8246" data-name="Path 8246" d="M42.428,92.363H70.1v-42.9H42.428Z" transform="translate(-38.274 24.574)" fill="none" stroke="#007bff" stroke-linecap="round" stroke-linejoin="round" stroke-miterlimit="10" stroke-width="3"/>
      <path id="Path_8247" data-name="Path 8247" d="M84.911,59.071H83.606a1.863,1.863,0,0,1-1.852-1.878V54.827a2.17,2.17,0,0,1,1.852-2.193h1.443a13.838,13.838,0,0,0-27.677.006H58.74A2.174,2.174,0,0,1,60.6,54.833V57.2a1.867,1.867,0,0,1-1.858,1.872H57.373v42.207H84.911Z" transform="translate(-25.543 15.663)" fill="none" stroke="#007bff" stroke-linecap="round" stroke-linejoin="round" stroke-miterlimit="10" stroke-width="3"/>
      <rect id="Rectangle_228" data-name="Rectangle 228" width="13.37" height="25.825" rx="1.5" transform="translate(11.996 83.958)" fill="none" stroke="#007bff" stroke-linecap="round" stroke-linejoin="round" stroke-width="3"/>
      <rect id="Rectangle_229" data-name="Rectangle 229" width="21.673" height="3.683" rx="0.994" transform="translate(35.522 13.383)" fill="none" stroke="#007bff" stroke-linecap="round" stroke-linejoin="round" stroke-width="3"/>
      <rect id="Rectangle_230" data-name="Rectangle 230" width="13.37" height="25.825" rx="1.5" transform="translate(67.349 83.958)" fill="none" stroke="#007bff" stroke-linecap="round" stroke-linejoin="round" stroke-width="3"/>
    </g>
    <line id="Line_14" data-name="Line 14" x2="118.541" transform="translate(0 116.693)" fill="none" stroke="#007bff" stroke-linecap="round" stroke-linejoin="round" stroke-width="2"/>
  </g>
</svg>
