<svg id="SvgjsSvg1001" width="288" height="288" xmlns="http://www.w3.org/2000/svg" version="1.1" xmlns:xlink="http://www.w3.org/1999/xlink" xmlns:svgjs="http://svgjs.com/svgjs"><defs id="SvgjsDefs1002"></defs><g id="SvgjsG1008" transform="matrix(1,0,0,1,0,0)"><svg xmlns="http://www.w3.org/2000/svg" width="288" height="288" viewBox="0 0 71.607 90.475"><path fill="#ffffff" d="M115.309,59.109,110,57.55,98.446,50V48.275a15.376,15.376,0,0,0,6.069-10.8A3.53,3.53,0,0,0,107.477,34V29.241c0-.018,0-.036,0-.055V23.164a2.613,2.613,0,0,0,1.092-2.132V15.52l7.973-1.358a2.826,2.826,0,0,0,.382-5.48L90.045.134a2.812,2.812,0,0,0-1.714,0L61.454,8.682a2.836,2.836,0,0,0-.88,4.934v7.207h-.066a2.748,2.748,0,0,0-2.745,2.745v3.578l-1.772,10.4A2.95,2.95,0,0,0,58.9,40.991h6a2.95,2.95,0,0,0,2.908-3.445l-1.772-10.4V23.569a2.748,2.748,0,0,0-2.745-2.745h-.066V14.4l6.59,1.122v5.511A2.615,2.615,0,0,0,70.9,23.16l0,6.082V34a3.53,3.53,0,0,0,2.963,3.48,15.377,15.377,0,0,0,6.063,10.8v1.737l-11.55,7.544L63.074,59.11a13.477,13.477,0,0,0-9.686,12.938V76a1.325,1.325,0,1,0,2.651,0v-3.95A10.892,10.892,0,0,1,63.82,61.653L68.764,60.2l19.75,11.736a1.341,1.341,0,0,0,1.354,0L109.619,60.2l4.943,1.451a10.893,10.893,0,0,1,7.782,10.394v12.8a2.981,2.981,0,0,1-2.978,2.978h-5.841V82.112a1.325,1.325,0,0,0-2.651,0v5.713H67.5V82.112a1.325,1.325,0,0,0-2.651,0v5.713H59.015a2.981,2.981,0,0,1-2.978-2.978V82.193a1.325,1.325,0,0,0-2.651,0v2.654a5.634,5.634,0,0,0,5.628,5.628h60.351a5.634,5.634,0,0,0,5.628-5.628v-12.8a13.477,13.477,0,0,0-9.685-12.938ZM64.9,38.341h-6a.3.3,0,0,1-.3-.35l1.6-9.407h3.384l1.6,9.407A.3.3,0,0,1,64.9,38.341ZM63.384,23.569v2.365H60.413V23.569a.094.094,0,0,1,.094-.094h2.782A.094.094,0,0,1,63.384,23.569ZM84.451,65.943l.527.811-13.53-8.04,8.588-5.61A27.839,27.839,0,0,0,84.451,65.943Zm-.009-5.721a34.078,34.078,0,0,0,9.5,0A25.312,25.312,0,0,1,91.709,64.5l-2.518,3.871L86.672,64.5a25.313,25.313,0,0,1-2.231-4.276Zm9.489,5.721A27.836,27.836,0,0,0,98.345,53.1l8.588,5.609L93.4,66.753Zm7.752-42.285h3.141v4.258h-1.559a1.584,1.584,0,0,1-1.582-1.582V23.657ZM62.257,11.208,89.135,2.659a.174.174,0,0,1,.107,0l26.878,8.549a.148.148,0,0,1,.122.18c-.01.138-.088.151-.146.161l-8.886,1.514-3.336-.413a1.325,1.325,0,0,0-.325,2.63l2.37.293v5.433H72.465V15.573l13.714-1.7a24.549,24.549,0,0,1,6.019,0l5.19.642a1.325,1.325,0,1,0,.325-2.631l-5.19-.642a27.188,27.188,0,0,0-6.67,0L71.17,13.063l-8.889-1.514c-.058-.01-.136-.023-.146-.161a.148.148,0,0,1,.122-.18Zm11.3,16.708,0-4.258H76.7v2.676a1.584,1.584,0,0,1-1.582,1.582H73.554Zm2.917,8.879a2.054,2.054,0,0,0-2.042-1.925A.875.875,0,0,1,73.554,34V30.566h1.562a4.238,4.238,0,0,0,4.233-4.233V23.657H99.032v2.676a4.238,4.238,0,0,0,4.233,4.233h1.562V34a.875.875,0,0,1-.875.874,2.054,2.054,0,0,0-2.042,1.925,12.746,12.746,0,0,1-25.44,0Zm12.72,14.585a15.3,15.3,0,0,0,6.605-1.5v.84a25.258,25.258,0,0,1-.894,6.657,31.294,31.294,0,0,1-11.421,0,25.256,25.256,0,0,1-.894-6.657c0-.028,0-.055-.006-.083,0-.005,0-.011,0-.016v-.743a15.3,15.3,0,0,0,6.611,1.5Z" data-name="Path 8439" transform="translate(-53.387)" class="color007bff svgShape"></path></svg></g></svg>