<svg xmlns="http://www.w3.org/2000/svg" width="79.232" height="89" viewBox="0 0 79.232 89">
  <g id="hr" transform="translate(-28.098 0)">
    <path id="Path_8411" data-name="Path 8411" d="M109.825,445.387a1.3,1.3,0,0,0-1.3,1.3v8.972a1.3,1.3,0,1,0,2.607,0v-8.972A1.3,1.3,0,0,0,109.825,445.387Z" transform="translate(-66.443 -367.967)" fill="#007bff"/>
    <path id="Path_8412" data-name="Path 8412" d="M103.6,68.167H99.421a13.862,13.862,0,0,0-6.884-6.632l-17-7.287-.01,0-.092-.039c0-.1.009-.2.009-.3V47.049a16.636,16.636,0,0,0,5.691-12.533V33.285h1.712a3.633,3.633,0,0,0,3.629-3.629v-4.6a3.632,3.632,0,0,0-2.669-3.5V18.9A18.924,18.924,0,0,0,64.9,0h-.876a18.924,18.924,0,0,0-18.9,18.9v2.661a3.632,3.632,0,0,0-2.669,3.5v4.6a3.633,3.633,0,0,0,3.629,3.629h1.706v1.231a16.637,16.637,0,0,0,5.7,12.54v6.853c0,.12,0,.24.006.36L36.621,61.606A13.892,13.892,0,0,0,28.1,74.438V87.7a1.3,1.3,0,0,0,2.607,0V74.438A11.3,11.3,0,0,1,37.646,64l10.908-4.743,1.376,2.351a1.3,1.3,0,1,0,2.25-1.317l-1.218-2.081,2.815-1.224.537.414.012.009,8.1,6.243L57,68.523l-2.49-4.254a1.3,1.3,0,0,0-2.25,1.317l3.3,5.631a1.3,1.3,0,0,0,2,.312l4.9-4.393L58.526,87.449a1.3,1.3,0,1,0,2.56.495l3.38-17.491,3.38,17.491a1.3,1.3,0,1,0,2.56-.495L66.481,67.137l4.9,4.393a1.3,1.3,0,0,0,2-.312l7.046-12.036,11.07,4.744a11.257,11.257,0,0,1,4.943,4.242H82.311A3.737,3.737,0,0,0,78.578,71.9V85.267A3.737,3.737,0,0,0,82.311,89H103.6a3.737,3.737,0,0,0,3.733-3.733V71.9a3.737,3.737,0,0,0-3.733-3.733ZM83.868,29.656a1.023,1.023,0,0,1-1.021,1.021H81.138V24.038h1.709a1.023,1.023,0,0,1,1.021,1.021ZM46.085,30.677a1.023,1.023,0,0,1-1.021-1.021v-4.6a1.023,1.023,0,0,1,1.021-1.021h1.706v6.639ZM50.4,34.516l0-11.782c0-.009,0-.017,0-.025a6.2,6.2,0,0,1,1.379-3.75,6.091,6.091,0,0,1,3.047-1.9c1.877-.542,3.06,0,4.7.748a11.952,11.952,0,0,0,6.036,1.418,11.11,11.11,0,0,0,4.665-1.315,1.3,1.3,0,0,0-1.178-2.326,8.41,8.41,0,0,1-3.616,1.037,9.524,9.524,0,0,1-4.822-1.184c-1.734-.794-3.7-1.694-6.505-.883a8.378,8.378,0,0,0-6.188,6.874h-.181V18.9a16.314,16.314,0,0,1,16.3-16.295H64.9A16.313,16.313,0,0,1,81.2,18.9V21.43h-.117a8.3,8.3,0,0,0-.986-3.1,8.58,8.58,0,0,0-4.934-3.969,1.3,1.3,0,0,0-.746,2.5,5.949,5.949,0,0,1,3.4,2.737,5.887,5.887,0,0,1,.711,3.086c0,.017,0,.035,0,.052V34.516a14.065,14.065,0,0,1-28.13,0Zm5.878,21.109c-.047-.228-.088-.458-.117-.693a8.226,8.226,0,0,1-.063-1.023V48.931a16.642,16.642,0,0,0,16.74,0v4.982a8.425,8.425,0,0,1-.058.982c-.029.247-.069.491-.119.73l-8.194,6.314Zm15.659,12.9L66.5,63.657l8.708-6.711,2.18.934.618.265Zm32.787,16.744a1.127,1.127,0,0,1-1.125,1.125H82.311a1.127,1.127,0,0,1-1.125-1.125V71.9a1.127,1.127,0,0,1,1.125-1.125H103.6a1.127,1.127,0,0,1,1.125,1.125Z" fill="#007bff"/>
    <path id="Path_8413" data-name="Path 8413" d="M420.234,423.679a3.618,3.618,0,0,0-3.676-3.549h-2.3a1.3,1.3,0,0,0-1.3,1.3v8.639a1.3,1.3,0,0,0,2.607,0V428.22l2.389,2.714a1.3,1.3,0,1,0,1.957-1.723l-1.975-2.244a3.556,3.556,0,0,0,2.3-3.289Zm-3.676-.942a.949.949,0,1,1,0,1.883l-.983,0c0-.363,0-.719,0-.945,0-.193,0-.56,0-.942h.988Z" transform="translate(-317.959 -347.1)" fill="#007bff"/>
    <path id="Path_8414" data-name="Path 8414" d="M355.628,420.13a1.3,1.3,0,0,0-1.3,1.3V424.3h-3.372v-2.868a1.3,1.3,0,0,0-2.607,0v8.639a1.3,1.3,0,0,0,2.607,0v-3.164h3.372v3.164a1.3,1.3,0,0,0,2.607,0v-8.639A1.3,1.3,0,0,0,355.628,420.13Z" transform="translate(-264.579 -347.1)" fill="#007bff"/>
  </g>
</svg>
