<svg xmlns="http://www.w3.org/2000/svg" width="107.358" height="117.562" viewBox="0 0 107.358 117.562">
  <g id="hyderabad" transform="translate(1.5 1.5)">
    <path id="Path_8248" data-name="Path 8248" d="M48.65,40.966h8.318V26.714H48.65Z" transform="translate(-29.622 0.328)" fill="none" stroke="#007bff" stroke-miterlimit="10" stroke-width="3"/>
    <path id="Path_8249" data-name="Path 8249" d="M48.65,26.466h8.318V19.339H48.65Z" transform="translate(-29.622 -6.55)" fill="none" stroke="#007bff" stroke-miterlimit="10" stroke-width="3"/>
    <path id="Path_8250" data-name="Path 8250" d="M47.219,52.714H61.083V37.038H47.219Z" transform="translate(-30.956 9.956)" fill="none" stroke="#007bff" stroke-miterlimit="10" stroke-width="3"/>
    <path id="Path_8251" data-name="Path 8251" d="M47.148,91.557H60.618V51.027H47.148Z" transform="translate(-31.023 23.004)" fill="none" stroke="#007bff" stroke-miterlimit="10" stroke-width="3"/>
    <path id="Path_8252" data-name="Path 8252" d="M53.356,14.918c6.2,2.7,5.391,5.913,5.391,5.913a2.3,2.3,0,0,1-.527,1.735,2.614,2.614,0,0,1-1.669.9H50.163a2.614,2.614,0,0,1-1.668-.9,2.294,2.294,0,0,1-.527-1.734S47.153,17.615,53.356,14.918Z" transform="translate(-30.29 -10.675)" fill="none" stroke="#007bff" stroke-miterlimit="10" stroke-width="3"/>
    <path id="Path_8253" data-name="Path 8253" d="M50.628,16.248V12.722" transform="translate(-27.777 -12.722)" fill="none" stroke="#007bff" stroke-linecap="round" stroke-linejoin="round" stroke-miterlimit="10" stroke-width="3"/>
    <path id="Path_8254" data-name="Path 8254" d="M60.239,29.98a1.576,1.576,0,0,1-.461,1.175,1.8,1.8,0,0,1-1.215.526H48.959a1.8,1.8,0,0,1-1.211-.528,1.575,1.575,0,0,1-.459-1.173v-5.3a1.579,1.579,0,0,1,.46-1.172,1.806,1.806,0,0,1,1.21-.529h9.605a1.807,1.807,0,0,1,1.213.527,1.578,1.578,0,0,1,.462,1.174Z" transform="translate(-30.893 -3.159)" fill="none" stroke="#007bff" stroke-linecap="round" stroke-linejoin="round" stroke-miterlimit="10" stroke-width="3"/>
    <path id="Path_8255" data-name="Path 8255" d="M63.8,40.756a1.572,1.572,0,0,1-.458,1.174,1.8,1.8,0,0,1-1.211.528H47.71a1.81,1.81,0,0,1-1.213-.528,1.582,1.582,0,0,1-.463-1.173V34.982a1.577,1.577,0,0,1,.462-1.174,1.805,1.805,0,0,1,1.214-.527H62.137a1.839,1.839,0,0,1,.661.151,1.743,1.743,0,0,1,.549.377,1.611,1.611,0,0,1,.353.544,1.532,1.532,0,0,1,.1.629Z" transform="translate(-32.062 6.452)" fill="none" stroke="#007bff" stroke-miterlimit="10" stroke-width="3"/>
    <path id="Path_8256" data-name="Path 8256" d="M65.352,54.64a1.578,1.578,0,0,1-.462,1.174,1.807,1.807,0,0,1-1.212.528H47.166a1.808,1.808,0,0,1-1.21-.529,1.58,1.58,0,0,1-.461-1.172V47.025a1.582,1.582,0,0,1,.462-1.172,1.811,1.811,0,0,1,1.21-.53H63.673a1.809,1.809,0,0,1,1.212.528,1.579,1.579,0,0,1,.462,1.173Z" transform="translate(-32.565 17.685)" fill="none" stroke="#007bff" stroke-linecap="round" stroke-linejoin="round" stroke-miterlimit="10" stroke-width="3"/>
    <path id="Path_8257" data-name="Path 8257" d="M54.121,43.953h48.229V38.027H54.121Z" transform="translate(-24.519 10.879)" fill="none" stroke="#007bff" stroke-miterlimit="10" stroke-width="3"/>
    <path id="Path_8258" data-name="Path 8258" d="M54.121,43.953H62V38.027H54.121Z" transform="translate(-24.519 10.879)" fill="none" stroke="#007bff" stroke-miterlimit="10" stroke-width="3"/>
    <path id="Path_8259" data-name="Path 8259" d="M58.191,43.953h7.865V38.027H58.191Z" transform="translate(-20.723 10.879)" fill="none" stroke="#007bff" stroke-miterlimit="10" stroke-width="3"/>
    <path id="Path_8260" data-name="Path 8260" d="M62.261,43.953h8.356V38.027H62.261Z" transform="translate(-16.927 10.879)" fill="none" stroke="#007bff" stroke-miterlimit="10" stroke-width="3"/>
    <path id="Path_8261" data-name="Path 8261" d="M66.585,43.953h8.364V38.027H66.585Z" transform="translate(-12.894 10.879)" fill="none" stroke="#007bff" stroke-miterlimit="10" stroke-width="3"/>
    <path id="Path_8262" data-name="Path 8262" d="M70.914,43.953h7.9V38.027h-7.9Z" transform="translate(-8.857 10.879)" fill="none" stroke="#007bff" stroke-miterlimit="10" stroke-width="3"/>
    <path id="Path_8263" data-name="Path 8263" d="M75,43.953h7.867V38.027H75Z" transform="translate(-5.041 10.879)" fill="none" stroke="#007bff" stroke-miterlimit="10" stroke-width="3"/>
    <path id="Path_8264" data-name="Path 8264" d="M69.033,56.094V50.247s.255-3.456-4.584-6.1c-4.836,2.647-4.589,6.1-4.589,6.1v5.846Z" transform="translate(-19.168 16.584)" fill="none" stroke="#007bff" stroke-miterlimit="10" stroke-width="3"/>
    <path id="Path_8265" data-name="Path 8265" d="M72.442,56.094V50.247s.218-3.456-3.934-6.1c-4.151,2.647-3.94,6.1-3.94,6.1v5.846Z" transform="translate(-14.777 16.584)" fill="none" stroke="#007bff" stroke-miterlimit="10" stroke-width="3"/>
    <path id="Path_8266" data-name="Path 8266" d="M64.143,56.094V50.247s.229-3.456-4.159-6.1c-4.384,2.647-4.159,6.1-4.159,6.1v5.846Z" transform="translate(-22.932 16.584)" fill="none" stroke="#007bff" stroke-miterlimit="10" stroke-width="3"/>
    <path id="Path_8267" data-name="Path 8267" d="M77.122,55.871V50.025s.233-3.456-4.185-6.1c-4.418,2.647-4.189,6.1-4.189,6.1V55.87Z" transform="translate(-10.879 16.377)" fill="none" stroke="#007bff" stroke-miterlimit="10" stroke-width="3"/>
    <path id="Path_8268" data-name="Path 8268" d="M81.449,55.871V50.025s.232-3.456-4.184-6.1c-4.423,2.647-4.192,6.1-4.192,6.1V55.87Z" transform="translate(-6.844 16.377)" fill="none" stroke="#007bff" stroke-miterlimit="10" stroke-width="3"/>
    <path id="Path_8269" data-name="Path 8269" d="M57.313,52.382v-1.4a1.58,1.58,0,0,0-.462-1.173,1.807,1.807,0,0,0-1.212-.528H54.121V41.1h48.229v8.175h-1.5a1.809,1.809,0,0,0-1.21.529,1.58,1.58,0,0,0-.462,1.172v1.69h-.046s.231-3.455-4.184-6.1c-4.419,2.648-4.189,6.1-4.189,6.1h.012s.233-3.455-4.183-6.1c-4.419,2.648-4.189,6.1-4.189,6.1h.01s.234-3.455-4.181-6.1c-4.419,2.648-4.185,6.1-4.185,6.1h.008s.231-3.455-4.185-6.1c-4.419,2.648-4.19,6.1-4.19,6.1h.012s.234-3.455-4.179-6.1c-4.419,2.648-4.189,6.1-4.189,6.1Z" transform="translate(-24.519 13.743)" fill="none" stroke="#007bff" stroke-linecap="round" stroke-linejoin="round" stroke-miterlimit="10" stroke-width="3"/>
    <path id="Path_8270" data-name="Path 8270" d="M80.554,38.683h7.778V27.48H80.554Z" transform="translate(0.135 1.042)" fill="none" stroke="#007bff" stroke-miterlimit="10" stroke-width="3"/>
    <path id="Path_8271" data-name="Path 8271" d="M80.554,26.579h7.778V19.113H80.554Z" transform="translate(0.135 -6.762)" fill="none" stroke="#007bff" stroke-miterlimit="10" stroke-width="3"/>
    <path id="Path_8272" data-name="Path 8272" d="M79.082,52.128H92.551v-14.1H79.082Z" transform="translate(-1.238 10.883)" fill="none" stroke="#007bff" stroke-miterlimit="10" stroke-width="3"/>
    <path id="Path_8273" data-name="Path 8273" d="M79.082,91.557H92.551V51.027H79.082Z" transform="translate(-1.238 23.004)" fill="none" stroke="#007bff" stroke-miterlimit="10" stroke-width="3"/>
    <path id="Path_8274" data-name="Path 8274" d="M85.18,14.546c6.2,2.784,5.393,6.1,5.393,6.1a2.5,2.5,0,0,1-2.2,2.723h-6.39a2.5,2.5,0,0,1-2.194-2.723S78.976,17.33,85.18,14.546Z" transform="translate(-0.61 -11.021)" fill="none" stroke="#007bff" stroke-miterlimit="10" stroke-width="3"/>
    <path id="Path_8275" data-name="Path 8275" d="M82.565,16.248V12.722" transform="translate(2.01 -12.722)" fill="none" stroke="#007bff" stroke-linecap="round" stroke-linejoin="round" stroke-miterlimit="10" stroke-width="3"/>
    <path id="Path_8276" data-name="Path 8276" d="M92.163,29.98a1.576,1.576,0,0,1-.462,1.175,1.8,1.8,0,0,1-1.215.526h-9.6a1.849,1.849,0,0,1-.664-.15,1.751,1.751,0,0,1-.552-.376,1.621,1.621,0,0,1-.356-.545,1.543,1.543,0,0,1-.106-.631v-5.3a1.579,1.579,0,0,1,.463-1.174,1.807,1.807,0,0,1,1.214-.527h9.6A1.809,1.809,0,0,1,91.7,23.5a1.58,1.58,0,0,1,.463,1.174Z" transform="translate(-1.118 -3.159)" fill="none" stroke="#007bff" stroke-linecap="round" stroke-linejoin="round" stroke-miterlimit="10" stroke-width="3"/>
    <path id="Path_8277" data-name="Path 8277" d="M95.733,40.756a1.575,1.575,0,0,1-.459,1.173,1.8,1.8,0,0,1-1.21.528H79.642a1.8,1.8,0,0,1-1.211-.528,1.577,1.577,0,0,1-.46-1.173V34.982a1.572,1.572,0,0,1,.458-1.174,1.8,1.8,0,0,1,1.212-.527H94.069a1.843,1.843,0,0,1,.662.151,1.742,1.742,0,0,1,.55.376,1.616,1.616,0,0,1,.354.544,1.537,1.537,0,0,1,.1.629Z" transform="translate(-2.275 6.452)" fill="none"/>
    <path id="Path_8278" data-name="Path 8278" d="M95.733,40.756a1.575,1.575,0,0,1-.459,1.173,1.8,1.8,0,0,1-1.21.528H79.642a1.8,1.8,0,0,1-1.211-.528,1.577,1.577,0,0,1-.46-1.173V34.982a1.572,1.572,0,0,1,.458-1.174,1.8,1.8,0,0,1,1.212-.527H94.069a1.843,1.843,0,0,1,.662.151,1.742,1.742,0,0,1,.55.376,1.616,1.616,0,0,1,.354.544,1.537,1.537,0,0,1,.1.629Z" transform="translate(-2.275 6.452)" fill="none" stroke="#007bff" stroke-linecap="round" stroke-linejoin="round" stroke-miterlimit="10" stroke-width="3"/>
    <path id="Path_8279" data-name="Path 8279" d="M97.284,54.64a1.579,1.579,0,0,1-.461,1.172,1.808,1.808,0,0,1-1.21.529H79.1a1.808,1.808,0,0,1-1.21-.529,1.58,1.58,0,0,1-.461-1.172V47.025a1.582,1.582,0,0,1,.462-1.172,1.811,1.811,0,0,1,1.209-.53H95.613a1.809,1.809,0,0,1,1.21.529,1.58,1.58,0,0,1,.462,1.172Z" transform="translate(-2.783 17.685)" fill="none"/>
    <path id="Path_8280" data-name="Path 8280" d="M97.284,54.64a1.579,1.579,0,0,1-.461,1.172,1.808,1.808,0,0,1-1.21.529H79.1a1.808,1.808,0,0,1-1.21-.529,1.58,1.58,0,0,1-.461-1.172V47.025a1.582,1.582,0,0,1,.462-1.172,1.811,1.811,0,0,1,1.209-.53H95.613a1.809,1.809,0,0,1,1.21.529,1.58,1.58,0,0,1,.462,1.172Z" transform="translate(-2.783 17.685)" fill="none" stroke="#007bff" stroke-linecap="round" stroke-linejoin="round" stroke-miterlimit="10" stroke-width="3"/>
    <path id="Path_8281" data-name="Path 8281" d="M99.189,50.183v-.078H57.284v.078a1.58,1.58,0,0,1-.462,1.174,1.808,1.808,0,0,1-1.213.528H54.088V92.418h48.229V51.888h-1.45a1.807,1.807,0,0,1-1.215-.529,1.579,1.579,0,0,1-.462-1.176Z" transform="translate(-24.55 22.144)" fill="none" stroke="#007bff" stroke-miterlimit="10" stroke-width="3"/>
    <path id="Path_8282" data-name="Path 8282" d="M38.8,71.989H143.163" transform="translate(-38.804 42.555)" fill="none" stroke="#007bff" stroke-linecap="round" stroke-linejoin="round" stroke-width="3"/>
    <path id="Path_8283" data-name="Path 8283" d="M63.187,56.039a3.041,3.041,0,0,1-.884,2.269,3.191,3.191,0,0,1-4.682,0,3.34,3.34,0,0,1,0-4.538,3.191,3.191,0,0,1,4.681,0A3.041,3.041,0,0,1,63.187,56.039Z" transform="translate(-22.086 24.61)" fill="none" stroke="#007bff" stroke-linecap="round" stroke-linejoin="round" stroke-miterlimit="10" stroke-width="3"/>
    <path id="Path_8284" data-name="Path 8284" d="M79.527,56.039a3.04,3.04,0,0,1-.884,2.27,3.193,3.193,0,0,1-4.683,0,3.351,3.351,0,0,1,0-4.539,3.192,3.192,0,0,1,4.681,0,3.042,3.042,0,0,1,.885,2.268Z" transform="translate(-6.844 24.61)" fill="none" stroke="#007bff" stroke-linecap="round" stroke-linejoin="round" stroke-miterlimit="10" stroke-width="3"/>
    <path id="Path_8285" data-name="Path 8285" d="M59.589,88.9V70.314s-1.023-9.861,13.562-16.44h.008c14.59,6.579,13.562,16.44,13.562,16.44V88.9Z" transform="translate(-19.433 25.66)" fill="none" stroke="#007bff" stroke-miterlimit="10" stroke-width="3"/>
  </g>
</svg>
