<svg xmlns="http://www.w3.org/2000/svg" width="97.161" height="92.363" viewBox="0 0 97.161 92.363">
  <g id="job" transform="translate(0 -12.642)">
    <path id="Path_8426" data-name="Path 8426" d="M43.911,46.856a4.274,4.274,0,1,0-4.274-4.274A4.279,4.279,0,0,0,43.911,46.856Zm0-5.7a1.427,1.427,0,1,1-1.427,1.427A1.429,1.429,0,0,1,43.911,41.156Z" transform="translate(-32.115 -20.796)" fill="#007bff"/>
    <path id="Path_8427" data-name="Path 8427" d="M91.661,46.856a4.274,4.274,0,1,0-4.274-4.274A4.279,4.279,0,0,0,91.661,46.856Zm0-5.7a1.427,1.427,0,1,1-1.427,1.427A1.429,1.429,0,0,1,91.661,41.156Z" transform="translate(-70.803 -20.796)" fill="#007bff"/>
    <path id="Path_8428" data-name="Path 8428" d="M64.615,143.438a4.018,4.018,0,0,0,2.05-3.521v-10.24a1.423,1.423,0,1,0-2.847,0v10.24a1.171,1.171,0,0,1-.585,1.032c-.684.38-1.453-.334-1.5-.383a1.423,1.423,0,0,0-2.01,2.016,4.574,4.574,0,0,0,3.086,1.336A3.686,3.686,0,0,0,64.615,143.438Z" transform="translate(-48.051 -93.672)" fill="#007bff"/>
    <path id="Path_8429" data-name="Path 8429" d="M201.6,143.914h.006s3.422-.015,4.365-.015a4.87,4.87,0,0,0,2.927-8.764,4.368,4.368,0,0,0-3.577-6.88H201.6a1.423,1.423,0,0,0-1.423,1.423V142.49a1.423,1.423,0,0,0,1.423,1.423Zm4.371-2.862c-.54,0-1.889,0-2.948.009V137l.959,0h1.99a2.025,2.025,0,1,1,0,4.051Zm-.65-9.95a1.525,1.525,0,0,1,0,3.049l-1.338,0h-.961V131.1Z" transform="translate(-162.184 -93.673)" fill="#007bff"/>
    <path id="Path_8430" data-name="Path 8430" d="M107.874,136.084a7.829,7.829,0,1,0,7.829-7.829A7.838,7.838,0,0,0,107.874,136.084ZM115.7,131.1a4.983,4.983,0,1,1-4.983,4.983A4.988,4.988,0,0,1,115.7,131.1Z" transform="translate(-87.402 -93.673)" fill="#007bff"/>
    <path id="Path_8431" data-name="Path 8431" d="M95.276,94l-5.217-5.217.435-.435a4.877,4.877,0,0,0-3.574-8.326,21.132,21.132,0,0,0-5.428-20.572q-.578-.578-1.191-1.1V22.768A10.138,10.138,0,0,0,70.175,12.642H10.126A10.138,10.138,0,0,0,0,22.768V77.746A10.138,10.138,0,0,0,10.126,87.872H50.278q.629.757,1.333,1.462a21,21,0,0,0,11.336,5.881,21.326,21.326,0,0,0,3.627.311,21.011,21.011,0,0,0,5.608-.762,4.878,4.878,0,0,0,8.326,3.572l.435-.435,5.217,5.217A6.447,6.447,0,1,0,95.276,94Zm-85.15-8.976a7.288,7.288,0,0,1-7.28-7.28V22.768a7.288,7.288,0,0,1,7.28-7.28H70.175a7.288,7.288,0,0,1,7.28,7.28V56.285A20.869,20.869,0,0,0,74.228,54.7V31.751a3.848,3.848,0,0,0-3.845-3.843H26.441a1.423,1.423,0,1,0,0,2.847H70.384a1,1,0,0,1,1,1V53.817a21.3,21.3,0,0,0-4.83-.553,21.13,21.13,0,0,0-21.13,21.13,21.314,21.314,0,0,0,.491,4.557h-36a1,1,0,0,1-1-1v-46.2a1,1,0,0,1,1-1h10.83a1.423,1.423,0,1,0,0-2.847H9.918a3.848,3.848,0,0,0-3.845,3.843v46.2A3.849,3.849,0,0,0,9.918,81.8H46.751a20.855,20.855,0,0,0,1.532,3.227Zm43.5,2.3A18.283,18.283,0,0,1,79.48,61.465a18.367,18.367,0,0,1,3.81,20.286l-9.382,9.382a18.368,18.368,0,0,1-20.285-3.811Zm23.433,9.6a2.034,2.034,0,0,1-1.438-3.471l9.987-9.987a2.033,2.033,0,0,1,2.876,2.876l-9.987,9.987a2.02,2.02,0,0,1-1.438.6Zm16.207,4.187a3.6,3.6,0,0,1-5.092,0L82.954,95.89,88.046,90.8l5.217,5.217A3.6,3.6,0,0,1,93.263,101.107Z" transform="translate(0 0)" fill="#007bff"/>
    <path id="Path_8432" data-name="Path 8432" d="M302.465,283.921a1.423,1.423,0,0,0-2.513-1.337,11.41,11.41,0,1,1,1.319-4.864,1.423,1.423,0,1,0,2.844.122,14.195,14.195,0,1,0-1.65,6.079Z" transform="translate(-223.335 -202.841)" fill="#007bff"/>
    <path id="Path_8433" data-name="Path 8433" d="M87.308,246.057H68.375a1.423,1.423,0,0,0,0,2.847H87.308a1.423,1.423,0,0,0,0-2.847Z" transform="translate(-54.246 -189.119)" fill="#007bff"/>
    <path id="Path_8434" data-name="Path 8434" d="M87.308,277.981H68.375a1.423,1.423,0,1,0,0,2.847H87.308a1.423,1.423,0,1,0,0-2.847Z" transform="translate(-54.246 -214.984)" fill="#007bff"/>
    <path id="Path_8435" data-name="Path 8435" d="M87.308,309.9H68.375a1.423,1.423,0,0,0,0,2.847H87.308a1.423,1.423,0,0,0,0-2.847Z" transform="translate(-54.246 -240.85)" fill="#007bff"/>
  </g>
</svg>
