<svg xmlns="http://www.w3.org/2000/svg" width="303.469" height="324.736" viewBox="0 0 303.469 324.736">
  <g id="Job_hunt-rafiki_1_" data-name="Job hunt-rafiki (1)" transform="translate(-87.684 -60.3)">
    <g id="freepik--Briefcases--inject-31" transform="translate(87.684 60.3)">
      <rect id="Rectangle_196" data-name="Rectangle 196" width="58.581" height="26.093" rx="1.56" transform="translate(88.013 184.684)" fill="#007bff"/>
      <rect id="Rectangle_197" data-name="Rectangle 197" width="58.581" height="26.093" rx="1.56" transform="translate(88.013 184.684)" fill="#fff" opacity="0.6"/>
      <path id="Path_7849" data-name="Path 7849" d="M237.616,262.73H181.863a1.423,1.423,0,0,0-1.423,1.423v7.454l29.012,5.711a1.34,1.34,0,0,0,.538,0l29.021-5.711v-7.454a1.423,1.423,0,0,0-1.4-1.423Z" transform="translate(-92.455 -78.046)" opacity="0.1"/>
      <path id="Path_7850" data-name="Path 7850" d="M238.727,251.568H221.7v-2.856a4.461,4.461,0,0,0-4.452-4.452H202.042a4.461,4.461,0,0,0-4.452,4.452v2.856H180.575a1.4,1.4,0,0,0-1.4,1.4v14.059a1.414,1.414,0,0,0,1.131,1.378l29.076,5.72a1.77,1.77,0,0,0,.538,0l29.076-5.72a1.423,1.423,0,0,0,1.14-1.378V252.973A1.4,1.4,0,0,0,238.727,251.568Zm-37.752-2.856a1.086,1.086,0,0,1,1.067-1.077h15.209a1.086,1.086,0,0,1,1.067,1.077v2.856H200.984Z" transform="translate(-92.343 -76.427)" fill="#007bff"/>
      <path id="Path_7851" data-name="Path 7851" d="M238.727,251.568H221.7v-2.856a4.461,4.461,0,0,0-4.452-4.452H202.042a4.461,4.461,0,0,0-4.452,4.452v2.856H180.575a1.4,1.4,0,0,0-1.4,1.4v14.059a1.414,1.414,0,0,0,1.131,1.378l29.076,5.72a1.77,1.77,0,0,0,.538,0l29.076-5.72a1.423,1.423,0,0,0,1.14-1.378V252.973A1.4,1.4,0,0,0,238.727,251.568Zm-37.752-2.856a1.086,1.086,0,0,1,1.067-1.077h15.209a1.086,1.086,0,0,1,1.067,1.077v2.856H200.984Z" transform="translate(-92.343 -76.427)" fill="#fff" opacity="0.6"/>
      <rect id="Rectangle_198" data-name="Rectangle 198" width="8.704" height="6.496" rx="1.48" transform="translate(112.956 193.862)" fill="#007bff"/>
      <rect id="Rectangle_199" data-name="Rectangle 199" width="8.704" height="6.496" rx="1.48" transform="translate(112.956 193.862)" fill="#fff" opacity="0.3"/>
      <rect id="Rectangle_200" data-name="Rectangle 200" width="58.581" height="26.093" rx="1.56" transform="translate(88.013 16.851)" fill="#007bff"/>
      <rect id="Rectangle_201" data-name="Rectangle 201" width="58.581" height="26.093" rx="1.56" transform="translate(88.013 16.851)" fill="#fff" opacity="0.6"/>
      <path id="Path_7852" data-name="Path 7852" d="M237.616,78.77H181.863a1.423,1.423,0,0,0-1.423,1.423v7.454l29.012,5.711a1.341,1.341,0,0,0,.538,0l29.021-5.711V80.193a1.423,1.423,0,0,0-1.4-1.423Z" transform="translate(-92.455 -61.919)" opacity="0.1"/>
      <path id="Path_7853" data-name="Path 7853" d="M238.727,67.608H221.7V64.752a4.461,4.461,0,0,0-4.452-4.452H202.042a4.461,4.461,0,0,0-4.452,4.452v2.856H180.575a1.4,1.4,0,0,0-1.4,1.4V83.072a1.4,1.4,0,0,0,1.131,1.378l29.076,5.684a1.341,1.341,0,0,0,.538,0l29.076-5.72a1.414,1.414,0,0,0,1.15-1.341V69.013a1.4,1.4,0,0,0-1.414-1.405Zm-37.752-2.856a1.077,1.077,0,0,1,1.067-1.077h15.209a1.077,1.077,0,0,1,1.067,1.067V67.6H200.984Z" transform="translate(-92.343 -60.3)" fill="#007bff"/>
      <path id="Path_7854" data-name="Path 7854" d="M238.727,67.608H221.7V64.752a4.461,4.461,0,0,0-4.452-4.452H202.042a4.461,4.461,0,0,0-4.452,4.452v2.856H180.575a1.4,1.4,0,0,0-1.4,1.4V83.072a1.4,1.4,0,0,0,1.131,1.378l29.076,5.684a1.341,1.341,0,0,0,.538,0l29.076-5.72a1.414,1.414,0,0,0,1.15-1.341V69.013a1.4,1.4,0,0,0-1.414-1.405Zm-37.752-2.856a1.077,1.077,0,0,1,1.067-1.077h15.209a1.077,1.077,0,0,1,1.067,1.067V67.6H200.984Z" transform="translate(-92.343 -60.3)" fill="#fff" opacity="0.6"/>
      <rect id="Rectangle_202" data-name="Rectangle 202" width="8.704" height="6.496" rx="1.48" transform="translate(112.956 26.038)" fill="#007bff"/>
      <rect id="Rectangle_203" data-name="Rectangle 203" width="8.704" height="6.496" rx="1.48" transform="translate(112.956 26.038)" fill="#fff" opacity="0.3"/>
      <rect id="Rectangle_204" data-name="Rectangle 204" width="58.581" height="26.093" rx="1.56" transform="translate(1.195 184.684)" fill="#007bff"/>
      <rect id="Rectangle_205" data-name="Rectangle 205" width="58.581" height="26.093" rx="1.56" transform="translate(1.195 184.684)" fill="#fff" opacity="0.6"/>
      <path id="Path_7855" data-name="Path 7855" d="M142.5,262.73H86.733a1.423,1.423,0,0,0-1.423,1.423v7.454l29.012,5.711a1.388,1.388,0,0,0,.547,0l29.021-5.711v-7.454A1.423,1.423,0,0,0,142.5,262.73Z" transform="translate(-84.115 -78.046)" opacity="0.1"/>
      <path id="Path_7856" data-name="Path 7856" d="M143.557,251.568H126.533v-2.856a4.461,4.461,0,0,0-4.452-4.452h-15.2a4.461,4.461,0,0,0-4.452,4.452v2.856H85.4a1.4,1.4,0,0,0-1.4,1.4v14.059a1.414,1.414,0,0,0,1.131,1.378l29.076,5.72a1.825,1.825,0,0,0,.547,0l29.076-5.72a1.414,1.414,0,0,0,1.131-1.378V252.973A1.4,1.4,0,0,0,143.557,251.568ZM105.8,248.712a1.1,1.1,0,0,1,1.077-1.077h15.2a1.1,1.1,0,0,1,1.077,1.077v2.856H105.823Z" transform="translate(-84 -76.427)" fill="#007bff"/>
      <path id="Path_7857" data-name="Path 7857" d="M143.557,251.568H126.533v-2.856a4.461,4.461,0,0,0-4.452-4.452h-15.2a4.461,4.461,0,0,0-4.452,4.452v2.856H85.4a1.4,1.4,0,0,0-1.4,1.4v14.059a1.414,1.414,0,0,0,1.131,1.378l29.076,5.72a1.825,1.825,0,0,0,.547,0l29.076-5.72a1.414,1.414,0,0,0,1.131-1.378V252.973A1.4,1.4,0,0,0,143.557,251.568ZM105.8,248.712a1.1,1.1,0,0,1,1.077-1.077h15.2a1.1,1.1,0,0,1,1.077,1.077v2.856H105.823Z" transform="translate(-84 -76.427)" fill="#fff" opacity="0.6"/>
      <rect id="Rectangle_206" data-name="Rectangle 206" width="8.704" height="6.496" rx="1.48" transform="translate(26.129 193.862)" fill="#007bff"/>
      <rect id="Rectangle_207" data-name="Rectangle 207" width="8.704" height="6.496" rx="1.48" transform="translate(26.129 193.862)" fill="#fff" opacity="0.3"/>
      <rect id="Rectangle_208" data-name="Rectangle 208" width="58.581" height="26.093" rx="1.56" transform="translate(1.195 16.851)" fill="#007bff"/>
      <rect id="Rectangle_209" data-name="Rectangle 209" width="58.581" height="26.093" rx="1.56" transform="translate(1.195 16.851)" fill="#fff" opacity="0.6"/>
      <path id="Path_7858" data-name="Path 7858" d="M142.5,78.77H86.733a1.423,1.423,0,0,0-1.423,1.423v7.454l29.012,5.711a1.377,1.377,0,0,0,.547,0l29.021-5.711V80.193A1.423,1.423,0,0,0,142.5,78.77Z" transform="translate(-84.115 -61.919)" opacity="0.1"/>
      <path id="Path_7859" data-name="Path 7859" d="M143.557,67.608H126.533V64.752a4.461,4.461,0,0,0-4.452-4.452h-15.2a4.461,4.461,0,0,0-4.452,4.452v2.856H85.4a1.4,1.4,0,0,0-1.4,1.4V83.072a1.4,1.4,0,0,0,1.131,1.378l29.076,5.684a1.377,1.377,0,0,0,.547,0l29.076-5.72a1.4,1.4,0,0,0,1.131-1.378V69.013a1.4,1.4,0,0,0-1.4-1.405ZM105.8,64.752a1.086,1.086,0,0,1,1.077-1.077h15.2a1.086,1.086,0,0,1,1.077,1.067V67.6H105.823Z" transform="translate(-84 -60.3)" fill="#007bff"/>
      <path id="Path_7860" data-name="Path 7860" d="M143.557,67.608H126.533V64.752a4.461,4.461,0,0,0-4.452-4.452h-15.2a4.461,4.461,0,0,0-4.452,4.452v2.856H85.4a1.4,1.4,0,0,0-1.4,1.4V83.072a1.4,1.4,0,0,0,1.131,1.378l29.076,5.684a1.377,1.377,0,0,0,.547,0l29.076-5.72a1.4,1.4,0,0,0,1.131-1.378V69.013a1.4,1.4,0,0,0-1.4-1.405ZM105.8,64.752a1.086,1.086,0,0,1,1.077-1.077h15.2a1.086,1.086,0,0,1,1.077,1.067V67.6H105.823Z" transform="translate(-84 -60.3)" fill="#fff" opacity="0.6"/>
      <rect id="Rectangle_210" data-name="Rectangle 210" width="8.704" height="6.496" rx="1.48" transform="translate(26.129 26.038)" fill="#007bff"/>
      <rect id="Rectangle_211" data-name="Rectangle 211" width="8.704" height="6.496" rx="1.48" transform="translate(26.129 26.038)" fill="#fff" opacity="0.3"/>
      <path id="Path_7861" data-name="Path 7861" d="M135.2,196.843H86.732A1.432,1.432,0,0,1,85.3,195.41V172.173a1.414,1.414,0,0,1,.119-.557,1.962,1.962,0,0,1,.128-.237,1,1,0,0,1,.182-.21,1.423,1.423,0,0,1,1-.42h45.881a59.832,59.832,0,0,0-.374,9.6,9.763,9.763,0,0,0,.082,1.551c.064.958.137,1.925.246,2.883a61.128,61.128,0,0,0,2.637,12.061Z" transform="translate(-84.114 -69.983)" fill="#007bff"/>
      <path id="Path_7862" data-name="Path 7862" d="M135.2,196.843H86.732A1.432,1.432,0,0,1,85.3,195.41V172.173a1.414,1.414,0,0,1,.119-.557,1.962,1.962,0,0,1,.128-.237,1,1,0,0,1,.182-.21,1.423,1.423,0,0,1,1-.42h45.881a59.832,59.832,0,0,0-.374,9.6,9.763,9.763,0,0,0,.082,1.551c.064.958.137,1.925.246,2.883a61.128,61.128,0,0,0,2.637,12.061Z" transform="translate(-84.114 -69.983)" fill="#fff" opacity="0.6"/>
      <path id="Path_7863" data-name="Path 7863" d="M132.614,170.75a59.832,59.832,0,0,0-.374,9.6,9.763,9.763,0,0,0,.082,1.551l-13.375,2.628-4.087.8a1.076,1.076,0,0,1-.538,0l-4.078-.794L85.31,179.627v-7.463a1.542,1.542,0,0,1,.109-.547,1.963,1.963,0,0,1,.128-.237,1,1,0,0,1,.182-.21,1.423,1.423,0,0,1,1-.42Z" transform="translate(-84.115 -69.983)" opacity="0.1"/>
      <path id="Path_7864" data-name="Path 7864" d="M134.406,159.588h-7.864v-2.856a4.47,4.47,0,0,0-4.461-4.452h-15.2a4.452,4.452,0,0,0-4.452,4.452v2.856H85.4a1.405,1.405,0,0,0-1.4,1.405v14.05a1.414,1.414,0,0,0,1.14,1.387H85.2l24.934,4.917,4.078.794a1.341,1.341,0,0,0,.538,0l4.087-.8,13.293-2.618a59.834,59.834,0,0,1,.374-9.6,60.524,60.524,0,0,1,1.907-9.534Zm-28.6-2.856a1.086,1.086,0,0,1,1.077-1.067h15.2a1.077,1.077,0,0,1,1.067,1.067v2.856H105.814Z" transform="translate(-84 -68.363)" fill="#007bff"/>
      <path id="Path_7865" data-name="Path 7865" d="M134.406,159.588h-7.864v-2.856a4.47,4.47,0,0,0-4.461-4.452h-15.2a4.452,4.452,0,0,0-4.452,4.452v2.856H85.4a1.405,1.405,0,0,0-1.4,1.405v14.05a1.414,1.414,0,0,0,1.14,1.387H85.2l24.934,4.917,4.078.794a1.341,1.341,0,0,0,.538,0l4.087-.8,13.293-2.618a59.834,59.834,0,0,1,.374-9.6,60.524,60.524,0,0,1,1.907-9.534Zm-28.6-2.856a1.086,1.086,0,0,1,1.077-1.067h15.2a1.077,1.077,0,0,1,1.067,1.067v2.856H105.814Z" transform="translate(-84 -68.363)" fill="#fff" opacity="0.6"/>
      <rect id="Rectangle_212" data-name="Rectangle 212" width="8.704" height="6.496" rx="1.48" transform="translate(26.129 109.945)" fill="#007bff"/>
      <rect id="Rectangle_213" data-name="Rectangle 213" width="8.704" height="6.496" rx="1.48" transform="translate(26.129 109.945)" fill="#fff" opacity="0.3"/>
      <rect id="Rectangle_214" data-name="Rectangle 214" width="58.581" height="26.093" rx="1.56" transform="translate(233.411 210.767) rotate(180)" fill="#007bff"/>
      <rect id="Rectangle_215" data-name="Rectangle 215" width="58.581" height="26.093" rx="1.56" transform="translate(233.411 210.767) rotate(180)" fill="#fff" opacity="0.6"/>
      <path id="Path_7866" data-name="Path 7866" d="M277.06,262.73h55.725a1.423,1.423,0,0,1,1.423,1.423v7.454l-29.049,5.711a1.342,1.342,0,0,1-.538,0L275.6,271.607v-7.454a1.423,1.423,0,0,1,1.46-1.423Z" transform="translate(-100.797 -78.046)" opacity="0.1"/>
      <path id="Path_7867" data-name="Path 7867" d="M275.731,251.568h17.024v-2.856a4.461,4.461,0,0,1,4.452-4.452h15.209a4.461,4.461,0,0,1,4.452,4.452v2.856h17.015a1.405,1.405,0,0,1,1.405,1.4v14.059a1.414,1.414,0,0,1-1.131,1.378l-29.113,5.72a1.824,1.824,0,0,1-.547,0l-29.076-5.72a1.414,1.414,0,0,1-1.131-1.378V252.973a1.4,1.4,0,0,1,1.441-1.4Zm37.752-2.856a1.086,1.086,0,0,0-1.067-1.077H297.208a1.1,1.1,0,0,0-1.077,1.077v2.856h17.334Z" transform="translate(-100.682 -76.427)" fill="#007bff"/>
      <path id="Path_7868" data-name="Path 7868" d="M275.731,251.568h17.024v-2.856a4.461,4.461,0,0,1,4.452-4.452h15.209a4.461,4.461,0,0,1,4.452,4.452v2.856h17.015a1.405,1.405,0,0,1,1.405,1.4v14.059a1.414,1.414,0,0,1-1.131,1.378l-29.113,5.72a1.824,1.824,0,0,1-.547,0l-29.076-5.72a1.414,1.414,0,0,1-1.131-1.378V252.973a1.4,1.4,0,0,1,1.441-1.4Zm37.752-2.856a1.086,1.086,0,0,0-1.067-1.077H297.208a1.1,1.1,0,0,0-1.077,1.077v2.856h17.334Z" transform="translate(-100.682 -76.427)" fill="#fff" opacity="0.6"/>
      <rect id="Rectangle_216" data-name="Rectangle 216" width="8.704" height="6.496" rx="1.48" transform="translate(208.477 200.358) rotate(180)" fill="#007bff"/>
      <rect id="Rectangle_217" data-name="Rectangle 217" width="8.704" height="6.496" rx="1.48" transform="translate(208.477 200.358) rotate(180)" fill="#fff" opacity="0.3"/>
      <rect id="Rectangle_218" data-name="Rectangle 218" width="58.581" height="26.093" rx="1.56" transform="translate(233.411 42.934) rotate(180)" fill="#007bff"/>
      <rect id="Rectangle_219" data-name="Rectangle 219" width="58.581" height="26.093" rx="1.56" transform="translate(233.411 42.934) rotate(180)" fill="#fff" opacity="0.6"/>
      <path id="Path_7869" data-name="Path 7869" d="M277.063,78.77h55.725a1.423,1.423,0,0,1,1.423,1.423v7.454l-29.049,5.711a1.341,1.341,0,0,1-.538,0L275.64,87.647V80.193a1.423,1.423,0,0,1,1.423-1.423Z" transform="translate(-100.8 -61.919)" opacity="0.1"/>
      <path id="Path_7870" data-name="Path 7870" d="M275.731,67.608h17.024V64.752a4.461,4.461,0,0,1,4.452-4.452h15.209a4.461,4.461,0,0,1,4.489,4.452v2.856H333.92a1.4,1.4,0,0,1,1.405,1.4V83.072a1.405,1.405,0,0,1-1.131,1.378l-29.149,5.684a1.378,1.378,0,0,1-.547,0l-29.076-5.72a1.4,1.4,0,0,1-1.131-1.378V69.013a1.4,1.4,0,0,1,1.441-1.4Zm37.752-2.856a1.077,1.077,0,0,0-1.068-1.077H297.208a1.086,1.086,0,0,0-1.077,1.067V67.6h17.334Z" transform="translate(-100.682 -60.3)" fill="#007bff"/>
      <path id="Path_7871" data-name="Path 7871" d="M275.731,67.608h17.024V64.752a4.461,4.461,0,0,1,4.452-4.452h15.209a4.461,4.461,0,0,1,4.489,4.452v2.856H333.92a1.4,1.4,0,0,1,1.405,1.4V83.072a1.405,1.405,0,0,1-1.131,1.378l-29.149,5.684a1.378,1.378,0,0,1-.547,0l-29.076-5.72a1.4,1.4,0,0,1-1.131-1.378V69.013a1.4,1.4,0,0,1,1.441-1.4Zm37.752-2.856a1.077,1.077,0,0,0-1.068-1.077H297.208a1.086,1.086,0,0,0-1.077,1.067V67.6h17.334Z" transform="translate(-100.682 -60.3)" fill="#fff" opacity="0.6"/>
      <rect id="Rectangle_220" data-name="Rectangle 220" width="8.704" height="6.496" rx="1.48" transform="translate(208.477 32.525) rotate(180)" fill="#007bff"/>
      <rect id="Rectangle_221" data-name="Rectangle 221" width="8.704" height="6.496" rx="1.48" transform="translate(208.477 32.525) rotate(180)" fill="#fff" opacity="0.3"/>
      <path id="Path_7872" data-name="Path 7872" d="M285.19,196.843h48.445a1.432,1.432,0,0,0,1.423-1.432V172.173a1.414,1.414,0,0,0-.119-.557,1.187,1.187,0,0,0-.128-.237,1,1,0,0,0-.182-.21,1.4,1.4,0,0,0-1-.42H287.754a59.833,59.833,0,0,1,.374,9.6,9.767,9.767,0,0,1-.082,1.551c-.055.958-.137,1.925-.246,2.883a61.127,61.127,0,0,1-2.609,12.061Z" transform="translate(-101.638 -69.983)" fill="#007bff"/>
      <path id="Path_7873" data-name="Path 7873" d="M285.19,196.843h48.445a1.432,1.432,0,0,0,1.423-1.432V172.173a1.414,1.414,0,0,0-.119-.557,1.187,1.187,0,0,0-.128-.237,1,1,0,0,0-.182-.21,1.4,1.4,0,0,0-1-.42H287.754a59.833,59.833,0,0,1,.374,9.6,9.767,9.767,0,0,1-.082,1.551c-.055.958-.137,1.925-.246,2.883a61.127,61.127,0,0,1-2.609,12.061Z" transform="translate(-101.638 -69.983)" fill="#fff" opacity="0.6"/>
      <path id="Path_7874" data-name="Path 7874" d="M288,170.75a59.833,59.833,0,0,1,.374,9.6,9.767,9.767,0,0,1-.082,1.551l13.393,2.628,4.087.8a1.076,1.076,0,0,0,.538,0l4.078-.794,24.934-4.908v-7.463a1.542,1.542,0,0,0-.109-.547,1.187,1.187,0,0,0-.128-.237,1,1,0,0,0-.182-.21,1.405,1.405,0,0,0-1-.42Z" transform="translate(-101.884 -69.983)" opacity="0.1"/>
      <path id="Path_7875" data-name="Path 7875" d="M285.9,159.588h7.873v-2.856a4.461,4.461,0,0,1,4.452-4.452h15.2a4.461,4.461,0,0,1,4.461,4.452v2.856H334.9a1.4,1.4,0,0,1,1.4,1.4v14.05a1.414,1.414,0,0,1-1.131,1.387h-.064l-24.934,4.917-4.115.785a1.341,1.341,0,0,1-.538,0l-4.087-.8-13.293-2.618a61.127,61.127,0,0,0-2.281-19.159Zm28.6-2.856a1.086,1.086,0,0,0-1.077-1.067h-15.2a1.077,1.077,0,0,0-1.067,1.067v2.856h17.334Z" transform="translate(-101.696 -68.363)" fill="#007bff"/>
      <path id="Path_7876" data-name="Path 7876" d="M285.9,159.588h7.873v-2.856a4.461,4.461,0,0,1,4.452-4.452h15.2a4.461,4.461,0,0,1,4.461,4.452v2.856H334.9a1.4,1.4,0,0,1,1.4,1.4v14.05a1.414,1.414,0,0,1-1.131,1.387h-.064l-24.934,4.917-4.115.785a1.341,1.341,0,0,1-.538,0l-4.087-.8-13.293-2.618a61.127,61.127,0,0,0-2.281-19.159Zm28.6-2.856a1.086,1.086,0,0,0-1.077-1.067h-15.2a1.077,1.077,0,0,0-1.067,1.067v2.856h17.334Z" transform="translate(-101.696 -68.363)" fill="#fff" opacity="0.6"/>
      <rect id="Rectangle_222" data-name="Rectangle 222" width="8.704" height="6.496" rx="1.48" transform="translate(208.477 116.45) rotate(180)" fill="#007bff"/>
      <rect id="Rectangle_223" data-name="Rectangle 223" width="8.704" height="6.496" rx="1.48" transform="translate(208.477 116.45) rotate(180)" fill="#fff" opacity="0.3"/>
      <rect id="Rectangle_224" data-name="Rectangle 224" width="84.172" height="37.488" rx="2.24" transform="translate(78.169 95.102)" fill="#007bff"/>
      <path id="Path_7877" data-name="Path 7877" d="M225.08,156.26h-21.85a6.259,6.259,0,0,1-6.25-6.249V144.4a6.259,6.259,0,0,1,6.249-6.249h21.85a6.249,6.249,0,0,1,6.249,6.249v5.583a6.249,6.249,0,0,1-6.249,6.277Zm-21.85-13.521a1.688,1.688,0,0,0-1.67,1.66v5.583a1.688,1.688,0,0,0,1.688,1.688H225.1a1.688,1.688,0,0,0,1.688-1.688V144.4a1.688,1.688,0,0,0-1.688-1.688Z" transform="translate(-93.905 -67.125)" fill="#007bff"/>
      <path id="Path_7878" data-name="Path 7878" d="M251.8,164.54H171.733a2.044,2.044,0,0,0-2.053,2.044V177.3l41.694,8.211a1.825,1.825,0,0,0,.775,0l41.7-8.211v-10.72a2.044,2.044,0,0,0-2.053-2.044Z" transform="translate(-91.511 -69.438)" opacity="0.2"/>
      <path id="Path_7879" data-name="Path 7879" d="M253.739,173.679l-41.776,8.211a2.263,2.263,0,0,1-.785,0L169.4,173.679a2.025,2.025,0,0,1-1.633-1.98V151.536a2.016,2.016,0,0,1,2.016-2.016h83.588a2.016,2.016,0,0,1,2.016,2.016v20.2a2.016,2.016,0,0,1-1.651,1.943Z" transform="translate(-91.344 -68.122)" fill="#007bff"/>
      <rect id="Rectangle_225" data-name="Rectangle 225" width="12.508" height="9.333" rx="2.12" transform="translate(114.005 108.303)" fill="#007bff"/>
      <rect id="Rectangle_226" data-name="Rectangle 226" width="12.508" height="9.333" rx="2.12" transform="translate(114.005 108.303)" opacity="0.4"/>
    </g>
    <g id="freepik--Character--inject-31" transform="translate(132.119 90.251)">
      <path id="Path_7880" data-name="Path 7880" d="M380.01,187.21c1.049,2.162,1.825,4.206,2.737,6.341s1.578,4.261,2.29,6.441a82.268,82.268,0,0,1,3.184,13.557c.091.575.137,1.2.2,1.825l.091.912v1.067a19.156,19.156,0,0,1-.356,4.124,44.239,44.239,0,0,1-1.925,6.934,75.73,75.73,0,0,1-5.8,12.362l-4.635-1.962c1.031-4.16,2.071-8.4,2.856-12.5a52.454,52.454,0,0,0,.812-5.939,13.853,13.853,0,0,0-.055-2.445l-.1-.575-.128-.73c-.1-.484-.164-.967-.283-1.46a93.045,93.045,0,0,0-3.522-11.86c-.693-1.98-1.46-3.95-2.226-5.93s-1.615-3.969-2.4-5.793Z" transform="translate(-153.574 -101.377)" fill="#7f3e3b"/>
      <path id="Path_7881" data-name="Path 7881" d="M376.158,242.44l-3.558,3.467,7.764,3.649s1.879-3.284.584-6.259Z" transform="translate(-153.736 -106.219)" fill="#7f3e3b"/>
      <path id="Path_7882" data-name="Path 7882" d="M369.46,251.413l6.551,2.682,4.078-4.242-7.764-3.613Z" transform="translate(-153.461 -106.552)" fill="#7f3e3b"/>
      <path id="Path_7883" data-name="Path 7883" d="M216.795,235.225a65.688,65.688,0,1,0-72.594-58,65.688,65.688,0,0,0,72.594,58Z" transform="translate(-133.677 -94.104)" fill="#007bff" opacity="0.2"/>
      <path id="Path_7884" data-name="Path 7884" d="M171.42,118.528l99.9,79.793c.429-.912.83-1.825,1.223-2.737a64.832,64.832,0,0,0,4.744-18.685h0L191,108a65.132,65.132,0,0,0-19.579,10.528Z" transform="translate(-136.099 -94.433)" fill="#fff" opacity="0.1"/>
      <path id="Path_7885" data-name="Path 7885" d="M146.16,155.339l93.916,75.039a65.688,65.688,0,0,0,22.608-19.414L160.119,129A65.688,65.688,0,0,0,146.16,155.339Z" transform="translate(-133.885 -96.274)" fill="#fff" opacity="0.1"/>
      <path id="Path_7886" data-name="Path 7886" d="M370.336,242.743a9.743,9.743,0,0,0-1.578-4.653,6.733,6.733,0,0,0-2.691-2.381l-6.231-3.056c-4.142-2.053-8.311-4.051-12.481-6.049s-8.366-3.96-12.545-5.939-8.393-3.9-12.618-5.793q-12.645-5.729-25.454-11.149c-4.27-1.825-8.549-3.576-12.864-5.292h0a5.337,5.337,0,0,1-3.129-6.587A75.788,75.788,0,1,0,270.6,212.381a5.346,5.346,0,0,1,7.144-1.524h0q5.985,3.558,12.025,7,12.07,6.879,24.323,13.411c4.078,2.208,8.211,4.334,12.271,6.5s8.211,4.27,12.344,6.386,8.211,4.188,12.4,6.231l6.213,3.084a6.7,6.7,0,0,0,3.531.693,9.653,9.653,0,0,0,4.644-1.578A10.282,10.282,0,0,0,370.336,242.743ZM182.058,222.563a59.794,59.794,0,1,1,80.075-27.151A59.794,59.794,0,0,1,182.058,222.563Z" transform="translate(-132.705 -93.129)" fill="#007bff"/>
      <path id="Path_7887" data-name="Path 7887" d="M343.067,156.205c0,.538-.283.976-.639.976s-.639-.438-.639-.976.283-.985.639-.985S343.067,155.658,343.067,156.205Z" transform="translate(-151.035 -98.573)" fill="#263238"/>
      <path id="Path_7888" data-name="Path 7888" d="M342.683,157.37A19.3,19.3,0,0,1,340.11,162a3.111,3.111,0,0,0,2.582.484Z" transform="translate(-150.888 -98.761)" fill="#630f0f"/>
      <path id="Path_7889" data-name="Path 7889" d="M345.01,152.884a.319.319,0,0,0,.182-.575,3.184,3.184,0,0,0-2.856-.493.319.319,0,1,0,.228.593h0a2.545,2.545,0,0,1,2.263.411A.283.283,0,0,0,345.01,152.884Z" transform="translate(-151.062 -98.262)" fill="#263238"/>
      <path id="Path_7890" data-name="Path 7890" d="M361.969,160.76c-.967,4.908-1.925,13.895,1.505,17.161,0,0-1.341,4.972-10.446,4.972-10.036,0-4.79-4.972-4.79-4.972,5.474-1.3,5.328-5.365,4.37-9.123Z" transform="translate(-151.48 -99.058)" fill="#7f3e3b"/>
      <path id="Path_7891" data-name="Path 7891" d="M365.3,176.166c.757.246-.228,4.753-.228,4.753s-1.25,3.148-16.778,2.053c-1.2-.091-.739-4.416.4-5.045C352.37,175.92,362.853,175.363,365.3,176.166Z" transform="translate(-151.543 -100.378)" fill="#263238"/>
      <path id="Path_7892" data-name="Path 7892" d="M401.5,382.577c.839-.082,2.062-1.624,2.409-2.19a.155.155,0,0,0,0-.164.146.146,0,0,0-.155-.073c-.091,0-2.3.42-2.837,1.277a.766.766,0,0,0-.091.611c.119.4.347.511.529.538Zm1.925-2.035c-.593.821-1.569,1.779-2.035,1.715-.046,0-.182,0-.265-.31a.42.42,0,0,1,.055-.356A4.3,4.3,0,0,1,403.428,380.542Z" transform="translate(-156.208 -118.291)" fill="#007bff"/>
      <path id="Path_7893" data-name="Path 7893" d="M403.314,380.429a2.942,2.942,0,0,0,.484-.082.158.158,0,0,0,.055-.274c-.055-.055-1.533-1.314-2.536-1.213h0a.858.858,0,0,0-.62.328.5.5,0,0,0-.064.648C400.96,380.356,402.4,380.52,403.314,380.429Zm.073-.319c-.912.109-2.244-.073-2.5-.447a.253.253,0,0,1,.055-.283.6.6,0,0,1,.411-.21h0a3.851,3.851,0,0,1,2.035.94Z" transform="translate(-156.185 -118.178)" fill="#007bff"/>
      <path id="Path_7894" data-name="Path 7894" d="M332.622,408.955a12.251,12.251,0,0,0,2.062-.182.183.183,0,0,0,.128-.128.155.155,0,0,0-.082-.164c-.1-.064-2.436-1.4-3.558-1.095a.821.821,0,0,0-.5.374.6.6,0,0,0,0,.693C330.961,408.855,331.764,408.955,332.622,408.955Zm1.551-.42c-1.25.173-2.947.164-3.257-.265-.046-.055-.082-.155,0-.356a.465.465,0,0,1,.31-.219c.721-.192,2.126.42,2.947.839Z" transform="translate(-150.05 -120.675)" fill="#007bff"/>
      <path id="Path_7895" data-name="Path 7895" d="M334.771,408.621a.12.12,0,0,0,.164-.146,4.52,4.52,0,0,0-1.04-2.582,1.214,1.214,0,0,0-.912-.274c-.438.046-.557.265-.593.447-.119.757,1.487,2.208,2.29,2.573Zm-1.633-2.737a.912.912,0,0,1,.557.21,3.786,3.786,0,0,1,.912,2.062c-.83-.493-1.916-1.633-1.825-2.089,0,0,0-.146.31-.173Z" transform="translate(-150.21 -120.524)" fill="#007bff"/>
      <path id="Path_7896" data-name="Path 7896" d="M342.412,407.248h-6.7l-.675-15.528h6.706Z" transform="translate(-150.443 -119.306)" fill="#7f3e3b"/>
      <path id="Path_7897" data-name="Path 7897" d="M408.849,374.143l-5.228,4.188-13.3-9.233,5.237-4.188Z" transform="translate(-155.289 -116.955)" fill="#7f3e3b"/>
      <path id="Path_7898" data-name="Path 7898" d="M403.41,378.8l5.346-5.3a.593.593,0,0,1,.73-.073l5.136,3.3a.976.976,0,0,1,.137,1.533c-1.9,1.825-2.91,2.609-5.264,4.936-1.441,1.441-4.972,5.729-6.97,7.709s-4.224.265-3.576-.73c2.874-4.434,3.85-8.092,3.978-10.318A1.651,1.651,0,0,1,403.41,378.8Z" transform="translate(-156.036 -117.694)" fill="#263238"/>
      <path id="Path_7899" data-name="Path 7899" d="M334.263,407.89h7.3a.575.575,0,0,1,.566.456l1.323,5.958a.967.967,0,0,1-.958,1.186c-2.646,0-6.459-.192-9.78-.192-3.877,0-7.226.21-11.778.21-2.737,0-3.513-2.783-2.363-3.038,5.246-1.14,9.525-1.268,14.05-4.06A3.138,3.138,0,0,1,334.263,407.89Z" transform="translate(-148.954 -120.723)" fill="#263238"/>
      <path id="Path_7900" data-name="Path 7900" d="M378.539,181.7c5.812,2.737,8.211,21.495,8.211,21.495l-13.366,5.246a106.924,106.924,0,0,1-5.027-15.646C366.487,184.325,372.563,178.851,378.539,181.7Z" transform="translate(-153.334 -100.827)" fill="#007bff"/>
      <path id="Path_7901" data-name="Path 7901" d="M378.539,181.7c5.812,2.737,8.211,21.495,8.211,21.495l-13.366,5.246a106.924,106.924,0,0,1-5.027-15.646C366.487,184.325,372.563,178.851,378.539,181.7Z" transform="translate(-153.334 -100.827)" fill="#fff" opacity="0.3"/>
      <path id="Path_7902" data-name="Path 7902" d="M369.883,187.75a7.464,7.464,0,0,0-1.423-.52,12.28,12.28,0,0,0-.055,6.113,106.256,106.256,0,0,0,5.018,15.647l4.407-1.724C377.018,202.366,374.527,189.976,369.883,187.75Z" transform="translate(-153.337 -101.379)" opacity="0.2"/>
      <path id="Path_7903" data-name="Path 7903" d="M336.754,181.41s-7.134,8.056-.4,57.933h35.855c.246-5.474-3.211-32.351,2.1-58.28a93.846,93.846,0,0,0-12.006-1.514,132.533,132.533,0,0,0-15.236,0,67.052,67.052,0,0,0-10.309,1.861Z" transform="translate(-150.305 -100.686)" fill="#007bff"/>
      <path id="Path_7904" data-name="Path 7904" d="M336.754,181.41s-7.134,8.056-.4,57.933h35.855c.246-5.474-3.211-32.351,2.1-58.28a93.846,93.846,0,0,0-12.006-1.514,132.533,132.533,0,0,0-15.236,0,67.052,67.052,0,0,0-10.309,1.861Z" transform="translate(-150.305 -100.686)" fill="#fff" opacity="0.3"/>
      <path id="Path_7905" data-name="Path 7905" d="M343.99,192.85c-1.624-4.872-5.529-6.432-9.507-3.54-.8,4.726-1.369,12.344-.721,24.423l7-.064S346.39,200.1,343.99,192.85Z" transform="translate(-150.306 -101.434)" opacity="0.2"/>
      <path id="Path_7906" data-name="Path 7906" d="M340.2,191.011c-.292,2.445-.693,4.662-1.14,6.97s-.967,4.562-1.56,6.833a78.329,78.329,0,0,1-4.762,13.521c-.52,1.122-1.122,2.226-1.761,3.33-.328.557-.657,1.113-1.031,1.66a11.533,11.533,0,0,1-1.706,2.089,12.107,12.107,0,0,1-4.379,2.6,19.745,19.745,0,0,1-4.078.958,33.683,33.683,0,0,1-7.472.091,35.066,35.066,0,0,1-3.558-.465c-1.186-.21-2.308-.429-3.531-.748l.593-5a59.54,59.54,0,0,0,12.335-1.825,14.042,14.042,0,0,0,2.381-.949,3.421,3.421,0,0,0,1.277-1.013c-.073.064.593-1.04.985-1.825s.83-1.825,1.2-2.737c.766-1.879,1.423-3.868,2.025-5.9s1.131-4.105,1.624-6.2.912-4.215,1.368-6.386.785-4.324,1.113-6.341Z" transform="translate(-147.829 -101.593)" fill="#7f3e3b"/>
      <path id="Path_7907" data-name="Path 7907" d="M344.784,186.489c1.889,6.122-5.775,24.368-5.775,24.368L322.87,206.8a74.645,74.645,0,0,1,4.954-16.778C333.024,178.634,342.512,179.108,344.784,186.489Z" transform="translate(-149.376 -100.847)" fill="#007bff"/>
      <path id="Path_7908" data-name="Path 7908" d="M344.784,186.489c1.889,6.122-5.775,24.368-5.775,24.368L322.87,206.8a74.645,74.645,0,0,1,4.954-16.778C333.024,178.634,342.512,179.108,344.784,186.489Z" transform="translate(-149.376 -100.847)" fill="#fff" opacity="0.3"/>
      <path id="Path_7909" data-name="Path 7909" d="M305.391,226.052l-7.591-.192,3.649,7.892s3.084.411,5.62-3.759l2.673-3.184-3.075-.62a7.5,7.5,0,0,0-1.277-.137Z" transform="translate(-147.178 -104.765)" fill="#7f3e3b"/>
      <path id="Path_7910" data-name="Path 7910" d="M292.55,227.329l4.352,6.541,4.1-.119-3.658-7.892Z" transform="translate(-146.718 -104.765)" fill="#7f3e3b"/>
      <path id="Path_7911" data-name="Path 7911" d="M335.05,391.73l.338,8h6.706l-.347-8Z" transform="translate(-150.444 -119.307)" opacity="0.2"/>
      <path id="Path_7912" data-name="Path 7912" d="M395.557,364.91,390.32,369.1l6.861,4.762,5.237-4.188Z" transform="translate(-155.289 -116.955)" opacity="0.2"/>
      <path id="Path_7913" data-name="Path 7913" d="M361.168,154.062c-.4,6.642-.292,10.547-3.649,13.959-5.036,5.127-13.238,2.1-14.825-4.562-1.432-5.967-.529-15.82,5.967-18.475a9.069,9.069,0,0,1,12.508,9.078Z" transform="translate(-151.063 -97.615)" fill="#7f3e3b"/>
      <path id="Path_7914" data-name="Path 7914" d="M366.59,147.416a3.836,3.836,0,0,1,2.4,5.027c-1.651,6.058-5.538,13.028-10.556,13.466-6.249.557-9.069-5.894-9.89-12.563-3.741-2.564-6.514-4.963-5.62-7.627,1.368-4.105,6.332-7.645,14.232-6.733S368.989,145.007,366.59,147.416Z" transform="translate(-151.119 -97.137)" fill="#263238"/>
      <path id="Path_7915" data-name="Path 7915" d="M352.772,155.971a7.518,7.518,0,0,1-1.879,4.443c-1.46,1.606-2.992.6-3.248-1.35-.228-1.77.246-4.735,2.035-5.62S352.891,153.982,352.772,155.971Z" transform="translate(-151.543 -98.393)" fill="#7f3e3b"/>
      <path id="Path_7916" data-name="Path 7916" d="M350.514,245.11s-2.263,45.179,2.144,64.319c6.979,30.308,37.661,54.594,37.661,54.594l9.853-7.892s-25.244-18.785-27.516-44.02c-2.035-22.662.976-48.691.976-67Z" transform="translate(-151.749 -106.453)" fill="#007bff"/>
      <path id="Path_7917" data-name="Path 7917" d="M350.514,245.11s-2.263,45.179,2.144,64.319c6.979,30.308,37.661,54.594,37.661,54.594l9.853-7.892s-25.244-18.785-27.516-44.02c-2.035-22.662.976-48.691.976-67Z" transform="translate(-151.749 -106.453)" opacity="0.2"/>
      <path id="Path_7918" data-name="Path 7918" d="M353.882,259.747c-.912-1.761-2.691,3.485-3.932,10.218,0,9.288.164,19.852.976,28.8C357.121,287.318,355.807,263.4,353.882,259.747Z" transform="translate(-151.75 -107.706)" opacity="0.2"/>
      <path id="Path_7919" data-name="Path 7919" d="M389.3,372.415l3.741,2.9,11.377-9.224L401.005,363Z" transform="translate(-155.2 -116.788)" fill="#2c6bdb"/>
      <path id="Path_7920" data-name="Path 7920" d="M389.3,372.415l3.741,2.9,11.377-9.224L401.005,363Z" transform="translate(-155.2 -116.788)" fill="#fafafa" opacity="0.4"/>
      <path id="Path_7921" data-name="Path 7921" d="M335.587,245.11s-10.09,42.788-10.8,63.225c-.794,22.927,7.2,76.992,7.2,76.992h11.359s1.4-54.485,1.907-75.368c.547-22.763,13.9-64.849,13.9-64.849Z" transform="translate(-149.539 -106.453)" fill="#007bff"/>
      <path id="Path_7922" data-name="Path 7922" d="M335.587,245.11s-10.09,42.788-10.8,63.225c-.794,22.927,7.2,76.992,7.2,76.992h11.359s1.4-54.485,1.907-75.368c.547-22.763,13.9-64.849,13.9-64.849Z" transform="translate(-149.539 -106.453)" opacity="0.2"/>
      <path id="Path_7923" data-name="Path 7923" d="M330.29,393.84c-.055,0,.639,4.717.639,4.717h13.813l.374-4.206Z" transform="translate(-150.026 -119.492)" fill="#2c6bdb"/>
      <path id="Path_7924" data-name="Path 7924" d="M330.29,393.84c-.055,0,.639,4.717.639,4.717h13.813l.374-4.206Z" transform="translate(-150.026 -119.492)" fill="#fafafa" opacity="0.4"/>
    </g>
  </g>
</svg>
