<svg xmlns="http://www.w3.org/2000/svg" width="638.032" height="575" viewBox="0 0 638.032 575">
  <g id="Job_offers-rafiki" data-name="Job offers-rafiki" transform="translate(-51.29 -74.239)">
    <g id="freepik--Shadow--inject-1" transform="translate(51.29 611.988)">
      <ellipse id="freepik--path--inject-1" cx="319.016" cy="18.625" rx="319.016" ry="18.625" fill="rgba(88,170,255,0.33)"/>
    </g>
    <g id="freepik--Device--inject-1" transform="translate(107.251 74.239)">
      <path id="Path_13788" data-name="Path 13788" d="M107.215,74.241h12.653a21.686,21.686,0,0,0-21.9,23.084l20.139,384.319a24.68,24.68,0,0,0,24.285,23.035H129.74a24.581,24.581,0,0,1-24.285-23.035L85.348,97.325a21.669,21.669,0,0,1,21.867-23.084Z" transform="translate(-85.302 -74.239)" fill="#263238"/>
      <path id="Path_13789" data-name="Path 13789" d="M107.215,74.241h12.653a21.686,21.686,0,0,0-21.9,23.084l20.139,384.319a24.68,24.68,0,0,0,24.285,23.035H129.74a24.581,24.581,0,0,1-24.285-23.035L85.348,97.325a21.669,21.669,0,0,1,21.867-23.084Z" transform="translate(-85.302 -74.239)" fill="#fff" opacity="0.3"/>
      <path id="Path_13790" data-name="Path 13790" d="M134.061,504.693H289.085a21.686,21.686,0,0,0,21.867-23.035L290.813,97.305A24.68,24.68,0,0,0,266.528,74.27H111.5A21.686,21.686,0,0,0,89.637,97.305l20.139,384.319a24.68,24.68,0,0,0,24.285,23.068Z" transform="translate(-82.532 -74.22)" fill="#263238"/>
      <path id="Path_13791" data-name="Path 13791" d="M300.316,479.119,280.177,94.8a17.144,17.144,0,0,0-16.9-16.059H231.688L232.1,86.7a6.878,6.878,0,0,1-6.976,7.371H150.277a8.227,8.227,0,0,1-8.227-7.75l-.395-7.585H108.271A14.3,14.3,0,0,0,93.792,93.976L113.9,478.345A17.144,17.144,0,0,0,130.8,494.4H285.837a14.265,14.265,0,0,0,14.479-15.285Z" transform="translate(-79.843 -71.335)" fill="#007bff"/>
      <path id="Path_13792" data-name="Path 13792" d="M300.316,479.119,280.177,94.8a17.144,17.144,0,0,0-16.9-16.059H231.688L232.1,86.7a6.878,6.878,0,0,1-6.976,7.371H150.277a8.227,8.227,0,0,1-8.227-7.75l-.395-7.585H108.271A14.3,14.3,0,0,0,93.792,93.976L113.9,478.345A17.144,17.144,0,0,0,130.8,494.4H285.837a14.265,14.265,0,0,0,14.479-15.285Z" transform="translate(-79.843 -71.335)" opacity="0.1"/>
      <g id="Group_12840" data-name="Group 12840" transform="translate(62.156 285.288)" opacity="0.8">
        <path id="Path_13793" data-name="Path 13793" d="M237.745,256.038H127.77c-5.413,0-6.581-8.408-1.168-8.408H236.577C241.99,247.63,243.158,256.038,237.745,256.038Z" transform="translate(-123.079 -247.63)" fill="#fff"/>
        <path id="Path_13794" data-name="Path 13794" d="M221.928,268.868H128.44c-5.413,0-6.581-8.408-1.168-8.408H220.76C226.173,260.46,227.342,268.868,221.928,268.868Z" transform="translate(-122.647 -239.35)" fill="#fff"/>
        <path id="Path_13795" data-name="Path 13795" d="M234.588,281.7H129.121c-5.413,0-6.581-8.408-1.185-8.408H233.4C238.833,273.29,239.984,281.7,234.588,281.7Z" transform="translate(-122.209 -231.07)" fill="#fff"/>
        <path id="Path_13796" data-name="Path 13796" d="M203.454,294.528H129.841c-5.413,0-6.581-8.408-1.185-8.408h73.58c5.413,0,6.581,8.408,1.185,8.408Z" transform="translate(-121.744 -222.791)" fill="#fff"/>
      </g>
      <g id="Group_12841" data-name="Group 12841" transform="translate(36.803 62.787)" opacity="0.8">
        <path id="Path_13797" data-name="Path 13797" d="M126.591,112.54,123.3,124.354h-2.929l-3.027-8-2.254,8h-2.929L107.67,112.54h2.83l3.11,8.227,2.336-8.227h2.534l3.143,8.375,2.32-8.375Z" transform="translate(-107.67 -112.308)" fill="#fff"/>
        <path id="Path_13798" data-name="Path 13798" d="M129.788,122.165l.115,2.188h-9.148l-.625-11.814h8.934l.115,2.188H122.96l.132,2.567h5.5l.115,2.123h-5.5l.148,2.748Z" transform="translate(-99.629 -112.308)" fill="#fff"/>
        <path id="Path_13799" data-name="Path 13799" d="M138.507,121.82h-5.479l-.921,2.534h-2.8l4.656-11.814h2.7l5.89,11.814h-2.863Zm-.971-2.073-2.155-4.525-1.645,4.525Z" transform="translate(-93.705 -112.308)" fill="#fff"/>
        <path id="Path_13800" data-name="Path 13800" d="M145.884,124.354l-2.452-3.291h-2.517l.181,3.291h-2.748l-.609-11.814h5.117a6.581,6.581,0,0,1,2.748.527,4.146,4.146,0,0,1,2.6,3.751,3.751,3.751,0,0,1-.51,2.271,3.7,3.7,0,0,1-1.645,1.464l2.863,3.8Zm-1.168-9.049a2.962,2.962,0,0,0-1.909-.543h-2.221l.214,4.13h2.3a2.715,2.715,0,0,0,1.843-.543,1.793,1.793,0,0,0,.559-1.53,1.942,1.942,0,0,0-.757-1.514Z" transform="translate(-88.264 -112.309)" fill="#fff"/>
        <path id="Path_13801" data-name="Path 13801" d="M154.938,122.165l.115,2.188h-9.165l-.609-11.814h8.934l.115,2.188H148.11l.132,2.567h5.5l.1,2.123h-5.479l.148,2.748Z" transform="translate(-83.399 -112.308)" fill="#fff"/>
        <path id="Path_13802" data-name="Path 13802" d="M165.864,112.54l.625,11.814h-2.731l-.263-4.837h-5.282l.247,4.837h-2.731l-.609-11.814h2.731l.247,4.656h5.364l-.247-4.656Z" transform="translate(-77.048 -112.308)" fill="#fff"/>
        <path id="Path_13803" data-name="Path 13803" d="M163.36,112.54h2.7l.609,11.814h-2.731Z" transform="translate(-71.731 -112.308)" fill="#fff"/>
        <path id="Path_13804" data-name="Path 13804" d="M174.864,124.354l-2.452-3.291h-2.5l.165,3.291h-2.731l-.625-11.814h5.117a6.581,6.581,0,0,1,2.748.527,4.294,4.294,0,0,1,1.859,1.481,4.212,4.212,0,0,1,.757,2.271,3.883,3.883,0,0,1-.527,2.271,3.587,3.587,0,0,1-1.645,1.464l2.846,3.8ZM173.7,115.3a2.912,2.912,0,0,0-1.892-.543h-2.238l.23,4.13h2.221a2.715,2.715,0,0,0,1.843-.543,1.794,1.794,0,0,0,.559-1.53,1.892,1.892,0,0,0-.658-1.514Z" transform="translate(-69.562 -112.309)" fill="#fff"/>
        <path id="Path_13805" data-name="Path 13805" d="M174.26,112.54h2.731l.625,11.814h-2.731Z" transform="translate(-64.697 -112.308)" fill="#fff"/>
        <path id="Path_13806" data-name="Path 13806" d="M188.456,112.54l.625,11.814h-2.238l-6.269-7.174.378,7.174h-2.715l-.609-11.814h2.254l6.252,7.174-.378-7.174Z" transform="translate(-62.522 -112.308)" fill="#fff"/>
        <path id="Path_13807" data-name="Path 13807" d="M194.4,118.324h2.5l.247,4.788a6.861,6.861,0,0,1-2.155,1.119,8.918,8.918,0,0,1-2.534.378,7.306,7.306,0,0,1-3.291-.773,6.335,6.335,0,0,1-2.419-2.188,6.236,6.236,0,0,1-1-3.143,5.857,5.857,0,0,1,.675-3.143,5.43,5.43,0,0,1,2.2-2.188,6.812,6.812,0,0,1,3.291-.773,7.552,7.552,0,0,1,2.846.51,6.12,6.12,0,0,1,2.2,1.53l-1.645,1.645a4.327,4.327,0,0,0-3.126-1.333,4.1,4.1,0,0,0-1.991.477,3.077,3.077,0,0,0-1.3,1.333,3.7,3.7,0,0,0-.378,1.974,3.965,3.965,0,0,0,.592,1.958,3.653,3.653,0,0,0,1.431,1.349,4.212,4.212,0,0,0,2.007.477,4.146,4.146,0,0,0,2.09-.51Z" transform="translate(-57.293 -112.399)" fill="#fff"/>
        <path id="Path_13808" data-name="Path 13808" d="M194.53,124.047a1.5,1.5,0,0,1-.527-1.086,1.382,1.382,0,0,1,.395-1.069,1.546,1.546,0,0,1,1.152-.428,1.645,1.645,0,0,1,1.185.428,1.481,1.481,0,0,1,.51,1.069,1.382,1.382,0,0,1-.411,1.086,1.5,1.5,0,0,1-1.119.444A1.645,1.645,0,0,1,194.53,124.047Zm-1.02-11.517h3.143l-.115,7.717h-2.106Z" transform="translate(-52.274 -112.315)" fill="#fff"/>
      </g>
      <path id="Path_13809" data-name="Path 13809" d="M172.988,132.76l12.241,10.563,15.252-3.307,5.611,15.006,15.269,4.837-2.5,15.417,11.188,11.7-9.971,11.682,4.13,15.417-14.759,4.837L205.4,233.916l-15.6-3.307-11.139,10.58-12.241-10.58-15.236,3.307L145.56,218.91l-15.269-4.837,2.517-15.417L121.62,186.974l9.954-11.7-4.113-15.417,14.742-4.837,4.064-15.006,15.581,3.307Z" transform="translate(-61.864 -36.473)" fill="#fff" opacity="0.8"/>
      <path id="Path_13810" data-name="Path 13810" d="M159.3,171.229h-6.384l-.543-10.4h6.384Z" transform="translate(-42.02 -18.358)" fill="#263238"/>
      <path id="Path_13811" data-name="Path 13811" d="M159.3,171.229h-6.384l-.543-10.4h6.384Z" transform="translate(-42.02 -18.358)" fill="#fff" opacity="0.2"/>
      <path id="Path_13812" data-name="Path 13812" d="M139.2,173.62l-.987-18.74h-3.6l1.02,19.744a6.581,6.581,0,0,0,2.846,5.051l6.581,4.525-.214-4.163-1.481-.609A6.68,6.68,0,0,1,139.2,173.62Z" transform="translate(-53.481 -22.198)" fill="#263238"/>
      <path id="Path_13813" data-name="Path 13813" d="M139.2,173.62l-.987-18.74h-3.6l1.02,19.744a6.581,6.581,0,0,0,2.846,5.051l6.581,4.525-.214-4.163-1.481-.609A6.68,6.68,0,0,1,139.2,173.62Z" transform="translate(-53.481 -22.198)" fill="#fff" opacity="0.2"/>
      <path id="Path_13814" data-name="Path 13814" d="M173.713,173.62l-.971-18.74h3.6l1.037,19.744a5.89,5.89,0,0,1-2.32,5.051l-6.038,4.525-.214-4.163,1.415-.609a5.857,5.857,0,0,0,3.488-5.808Z" transform="translate(-31.41 -22.198)" fill="#263238"/>
      <path id="Path_13815" data-name="Path 13815" d="M173.713,173.62l-.971-18.74h3.6l1.037,19.744a5.89,5.89,0,0,1-2.32,5.051l-6.038,4.525-.214-4.163,1.415-.609a5.857,5.857,0,0,0,3.488-5.808Z" transform="translate(-31.41 -22.198)" fill="#fff" opacity="0.2"/>
      <path id="Path_13816" data-name="Path 13816" d="M206.138,207.494,173.083,197.21l-1.168-21.57h-6.384l1.119,21.5-31.92,10.349a1.218,1.218,0,0,0-.839,1.234h0a1.366,1.366,0,0,0,1.645,1.267l32.479-8.079.823,6.91a1.761,1.761,0,0,0,1.728,1.563,1.645,1.645,0,0,0,1.645-1.563v-6.91l33.335,8.079a1.218,1.218,0,0,0,1.53-1.267A1.382,1.382,0,0,0,206.138,207.494Z" transform="translate(-53.947 -8.801)" fill="#263238"/>
      <path id="Path_13817" data-name="Path 13817" d="M206.138,207.494,173.083,197.21l-1.168-21.57h-6.384l1.119,21.5-31.92,10.349a1.218,1.218,0,0,0-.839,1.234h0a1.366,1.366,0,0,0,1.645,1.267l32.479-8.079.823,6.91a1.761,1.761,0,0,0,1.728,1.563,1.645,1.645,0,0,0,1.645-1.563v-6.91l33.335,8.079a1.218,1.218,0,0,0,1.53-1.267A1.382,1.382,0,0,0,206.138,207.494Z" transform="translate(-53.947 -8.801)" fill="#fff" opacity="0.2"/>
      <path id="Path_13818" data-name="Path 13818" d="M137.848,199.378a2.583,2.583,0,0,1-2.6,2.748,2.945,2.945,0,0,1-2.9-2.748,2.583,2.583,0,0,1,2.6-2.748,2.929,2.929,0,0,1,2.9,2.748Z" transform="translate(-54.942 4.745)" fill="#263238"/>
      <path id="Path_13819" data-name="Path 13819" d="M160.1,199.378a2.583,2.583,0,0,1-2.6,2.748,2.945,2.945,0,0,1-2.9-2.748,2.6,2.6,0,0,1,2.616-2.748,2.912,2.912,0,0,1,2.879,2.748Z" transform="translate(-40.582 4.745)" fill="#263238"/>
      <path id="Path_13820" data-name="Path 13820" d="M182.358,199.378a2.583,2.583,0,0,1-2.616,2.748,2.912,2.912,0,0,1-2.879-2.748,2.583,2.583,0,0,1,2.6-2.748,2.945,2.945,0,0,1,2.9,2.748Z" transform="translate(-26.217 4.745)" fill="#263238"/>
      <path id="Path_13821" data-name="Path 13821" d="M143.792,154.738c.1,1.826-2.814,2.781-6.483,2.781s-6.68-.954-6.779-2.781,2.879-1.728,6.581-1.728S143.71,152.994,143.792,154.738Z" transform="translate(-56.115 -23.405)" fill="#263238"/>
      <path id="Path_13822" data-name="Path 13822" d="M169.321,154.738c.1,1.826,3.11,2.781,6.779,2.781s6.581-.954,6.483-2.781-3.06-1.728-6.729-1.728S169.222,152.994,169.321,154.738Z" transform="translate(-31.082 -23.405)" fill="#263238"/>
      <path id="Path_13823" data-name="Path 13823" d="M194.255,172.093c.411,7.815-12.077,11.9-27.741,11.9s-28.58-4.08-28.991-11.9,12.307-7.371,27.971-7.371S193.827,164.278,194.255,172.093Z" transform="translate(-51.607 -15.849)" fill="#263238"/>
      <path id="Path_13824" data-name="Path 13824" d="M168.951,182.042c4.459-1.316,14.166-2.995,15.5-7.437,2.616-8.622-3.85-32.561-10.514-39.209a18.362,18.362,0,0,0-6.861-3.291,28.992,28.992,0,0,0-12.472,0,16.338,16.338,0,0,0-6.581,3.291c-5.956,6.581-9.872,30.587-6.4,39.209,1.793,4.442,11.682,6.121,16.272,7.437a20.123,20.123,0,0,0,11.057,0Z" transform="translate(-49.798 -37.333)" fill="#263238"/>
      <path id="Path_13825" data-name="Path 13825" d="M245.325,247.473H127.189a12.11,12.11,0,0,1-11.962-11.353l-.609-11.517A10.678,10.678,0,0,1,125.4,213.25H243.6A12.11,12.11,0,0,1,255.559,224.6l.609,11.517a10.678,10.678,0,0,1-10.843,11.353Z" transform="translate(-66.396 15.471)" fill="#fff" opacity="0.8"/>
      <path id="Path_13826" data-name="Path 13826" d="M131.1,230.059H125.01l-1.02,2.814h-3.11l5.166-13.163h2.995l6.581,13.163H132.43Zm-1.069-2.3-2.369-5.117-1.81,5.035Z" transform="translate(-62.342 19.64)" fill="#007bff"/>
      <path id="Path_13827" data-name="Path 13827" d="M138.977,220.239a4.64,4.64,0,0,1,2.9,4.2,4.393,4.393,0,0,1-.559,2.517,4.047,4.047,0,0,1-1.892,1.645,7.256,7.256,0,0,1-2.995.576h-2.649l.181,3.62h-3.027l-.691-13.163h5.676A7.635,7.635,0,0,1,138.977,220.239Zm-.806,5.874a1.909,1.909,0,0,0,.625-1.645,2.172,2.172,0,0,0-.806-1.645,3.291,3.291,0,0,0-2.106-.576h-2.468l.23,4.558h2.484a3.027,3.027,0,0,0,2.04-.642Z" transform="translate(-56.301 19.588)" fill="#007bff"/>
      <path id="Path_13828" data-name="Path 13828" d="M147.207,220.239a4.64,4.64,0,0,1,2.9,4.2,4.393,4.393,0,0,1-.559,2.517,4.048,4.048,0,0,1-1.892,1.645,7.256,7.256,0,0,1-2.994.576h-2.649l.2,3.62h-3.044l-.691-13.163h5.676A7.636,7.636,0,0,1,147.207,220.239Zm-.806,5.874a1.909,1.909,0,0,0,.625-1.645,2.2,2.2,0,0,0-.79-1.645,3.291,3.291,0,0,0-2.122-.576h-2.468l.23,4.558h2.484a3.027,3.027,0,0,0,2.04-.642Z" transform="translate(-50.99 19.588)" fill="#007bff"/>
      <path id="Path_13829" data-name="Path 13829" d="M146.7,219.68h3.044l.559,10.662h6.581l.132,2.468h-9.625Z" transform="translate(-45.679 19.62)" fill="#007bff"/>
      <path id="Path_13830" data-name="Path 13830" d="M160.232,228.154l.247,4.656h-3.044l-.247-4.689-5.528-8.441h3.291l3.817,5.841,3.208-5.841h2.978Z" transform="translate(-42.478 19.62)" fill="#007bff"/>
      <path id="Path_13831" data-name="Path 13831" d="M175.724,219.68l.691,13.163h-2.5l-6.96-7.963.411,7.963h-2.995l-.691-13.163H166.2l6.943,7.98-.428-7.98Z" transform="translate(-34.721 19.62)" fill="#007bff"/>
      <path id="Path_13832" data-name="Path 13832" d="M176.427,232.243a7.141,7.141,0,0,1-2.7-2.435,6.829,6.829,0,0,1-1.1-3.472,6.416,6.416,0,0,1,.74-3.472,6.022,6.022,0,0,1,2.452-2.435,7.305,7.305,0,0,1,3.636-.888,7.8,7.8,0,0,1,3.718.888,7.141,7.141,0,0,1,2.7,2.435,6.845,6.845,0,0,1,1.119,3.472,6.285,6.285,0,0,1-.757,3.472,6.186,6.186,0,0,1-2.435,2.435,7.354,7.354,0,0,1-3.636.888,7.914,7.914,0,0,1-3.735-.888ZM182.1,230a3.62,3.62,0,0,0,1.4-1.5,4.245,4.245,0,0,0,.411-2.172,4.788,4.788,0,0,0-.642-2.172,4.13,4.13,0,0,0-1.645-1.5,4.41,4.41,0,0,0-2.123-.527,4.13,4.13,0,0,0-2.073.527,3.619,3.619,0,0,0-1.4,1.5,4.277,4.277,0,0,0-.411,2.172,4.36,4.36,0,0,0,.642,2.172,4.212,4.212,0,0,0,1.547,1.5,4.344,4.344,0,0,0,2.139.527A3.966,3.966,0,0,0,182.1,230Z" transform="translate(-28.958 19.53)" fill="#007bff"/>
      <path id="Path_13833" data-name="Path 13833" d="M202.539,219.68l-3.6,13.163h-3.291l-3.291-8.885-2.517,8.885h-3.291L181.61,219.68h3.159l3.439,9.23,2.616-9.23h2.814l3.488,9.3,2.567-9.3Z" transform="translate(-23.15 19.62)" fill="#007bff"/>
      <path id="Path_13834" data-name="Path 13834" d="M112.79,493.35a16.451,16.451,0,0,0,5.759,1.053h76.508l76.525-329.217L267.9,94.8A17.144,17.144,0,0,0,251,78.74H219.408l.411,7.963a6.878,6.878,0,0,1-6.976,7.371H205.6Z" transform="translate(-67.562 -71.334)" fill="#fff" opacity="0.2"/>
      <path id="Path_13835" data-name="Path 13835" d="M179.108,448.984,239.64,188.559l-2.057-39.439L167.87,448.984Z" transform="translate(-32.017 -25.915)" fill="#fff" opacity="0.2"/>
    </g>
    <g id="freepik--Table--inject-1" transform="translate(492.637 345.541)">
      <path id="Path_13836" data-name="Path 13836" d="M446.491,494.394l-51.549-12.587V275.3H381.27V481.807L329.7,494.394a2.964,2.964,0,1,0,1.267,5.792L388.1,489.343l57.126,10.876a2.963,2.963,0,0,0,1.251-5.792Z" transform="translate(-314.469 -215.788)" fill="#263238"/>
      <g id="Group_12842" data-name="Group 12842" transform="translate(12.904 59.512)" opacity="0.2">
        <path id="Path_13837" data-name="Path 13837" d="M446.491,494.394l-51.549-12.587V275.3H381.27V481.807L329.7,494.394a2.964,2.964,0,1,0,1.267,5.792L388.1,489.343l57.126,10.876a2.963,2.963,0,0,0,1.251-5.792Z" transform="translate(-327.373 -275.3)" fill="#fff"/>
      </g>
      <path id="Path_13838" data-name="Path 13838" d="M403.039,283.478s-19.876,2.814-26.556,2.814-26.539-2.814-26.539-2.814a5.117,5.117,0,0,1-4.574-5.068H407.6a5.117,5.117,0,0,1-4.558,5.068Z" transform="translate(-302.854 -213.781)" fill="#263238"/>
      <path id="Path_13839" data-name="Path 13839" d="M403.039,283.478s-19.876,2.814-26.556,2.814-26.539-2.814-26.539-2.814a5.117,5.117,0,0,1-4.574-5.068H407.6a5.117,5.117,0,0,1-4.558,5.068Z" transform="translate(-302.854 -213.781)" fill="#fff" opacity="0.3"/>
      <path id="Path_13840" data-name="Path 13840" d="M461.359,282.859H324.96a5.43,5.43,0,0,1-5.43-5.43h0a5.43,5.43,0,0,1,5.43-5.43h136.4a5.43,5.43,0,0,1,5.43,5.43h0A5.43,5.43,0,0,1,461.359,282.859Z" transform="translate(-319.53 -217.918)" fill="#007bff"/>
      <path id="Path_13841" data-name="Path 13841" d="M461.359,282.859H324.96a5.43,5.43,0,0,1-5.43-5.43h0a5.43,5.43,0,0,1,5.43-5.43h136.4a5.43,5.43,0,0,1,5.43,5.43h0A5.43,5.43,0,0,1,461.359,282.859Z" transform="translate(-319.53 -217.918)" fill="#fff" opacity="0.4"/>
      <path id="Path_13842" data-name="Path 13842" d="M379.3,291.429H359L357.35,240.95h23.594Z" transform="translate(-295.123 -237.955)" fill="#007bff"/>
      <path id="Path_13843" data-name="Path 13843" d="M379.3,291.429H359L357.35,240.95h23.594Z" transform="translate(-295.123 -237.955)" fill="#fff" opacity="0.7"/>
      <path id="Path_13844" data-name="Path 13844" d="M383.991,243.918H356.02l1.645-4.788h24.68Z" transform="translate(-295.981 -239.13)" fill="#007bff"/>
      <path id="Path_13845" data-name="Path 13845" d="M379.761,266.573l.428-14.413H357.68l.428,14.413Z" transform="translate(-294.91 -230.721)" fill="#007bff"/>
      <path id="Path_13846" data-name="Path 13846" d="M371,258.366a4.656,4.656,0,1,1-4.656-4.656A4.656,4.656,0,0,1,371,258.366Z" transform="translate(-292.322 -229.721)" fill="#fff" opacity="0.8"/>
    </g>
    <g id="freepik--Character--inject-1" transform="translate(279.632 158.581)">
      <path id="Path_13847" data-name="Path 13847" d="M304.251,235.784l2.452,7.289c.346,1.02-1.547,8.391-.823,10.168l4.393,9.214a4.69,4.69,0,0,0,2.7,2.155h0a8.6,8.6,0,0,0,5.314-.954l2.353-1.234a3.291,3.291,0,0,0,1.81-3.192c-.214-3.192,0-9.263-.724-11.517a3.291,3.291,0,0,0-.9-1.5l-3.455-3.291A4.657,4.657,0,0,1,316.328,241l-2.2-8.227a4.706,4.706,0,0,0-6.581-3.011l-.856.428A4.689,4.689,0,0,0,304.251,235.784Z" transform="translate(-116.518 -58.515)" fill="#ff8b7b"/>
      <path id="Path_13848" data-name="Path 13848" d="M231.993,215.941l-11.517,2.369a1.514,1.514,0,0,1-1.382.313l-14.808-4.13a1.464,1.464,0,0,0-.987,0l-12.34,5.314a1.464,1.464,0,0,0-.806,1.826h0a1.481,1.481,0,0,0,1.793.938l6.236-1.76a1.464,1.464,0,0,1,1.645.576l5.5,7.947a1.514,1.514,0,0,0,1.053.625l6.269.675a1.2,1.2,0,0,0,.592,0l11.353-3.6a1.513,1.513,0,0,0,.461-.23l10.826-1.25a1.481,1.481,0,0,0,.214-2.122l-2.024-7.42a1.464,1.464,0,0,0-2.073-.066Z" transform="translate(-190.071 -68.124)" fill="#ff8b7b"/>
      <path id="Path_13849" data-name="Path 13849" d="M267.439,241.349c-.872,10.02-54.165,14.216-54.165,14.216l-2.484-12.932,39.636-12.044c-8.77-55.481,10.58-57.768,10.58-57.768S270.269,208.327,267.439,241.349Z" transform="translate(-176.699 -94.963)" fill="#007bff"/>
      <g id="Group_12843" data-name="Group 12843" transform="translate(34.091 77.857)" opacity="0.6">
        <path id="Path_13850" data-name="Path 13850" d="M267.439,241.349c-.872,10.02-54.165,14.216-54.165,14.216l-2.484-12.932,39.636-12.044c-8.77-55.481,10.58-57.768,10.58-57.768S270.269,208.327,267.439,241.349Z" transform="translate(-210.79 -172.82)" fill="#fff"/>
      </g>
      <path id="Path_13851" data-name="Path 13851" d="M251,388.058l1.267,30.39,12.554-.526,1.728-30.521Z" transform="translate(-150.75 43.515)" fill="#ff8b7b"/>
      <path id="Path_13852" data-name="Path 13852" d="M251.648,403.607l14.035-.592.872-15.614-15.565.658Z" transform="translate(-150.757 43.515)" fill="#263238" opacity="0.2"/>
      <path id="Path_13853" data-name="Path 13853" d="M243.24,236.792l11.122,263.025,18.1-.773s9.675-59.446,7.5-99.527c-.23-4.146-1.645-14.545-1.333-18.1a105.671,105.671,0,0,1,2.962-15.5c4.393-18.444,8.49-50.331,6.005-74.222,0,0,23.644-25.273,17.342-57.587Z" transform="translate(-155.758 -55.41)" fill="#007bff"/>
      <path id="Path_13854" data-name="Path 13854" d="M275.582,272.8l-6.006-13.163L265,261.763s-.494,20.221,7.486,58.278a216.433,216.433,0,0,0,1.02-44.786S274.315,274.4,275.582,272.8Z" transform="translate(-141.718 -38.934)" opacity="0.2"/>
      <path id="Path_13855" data-name="Path 13855" d="M249.128,404.938c-1.876,0-3.85-.263-4.492-1.053a1.366,1.366,0,0,1,0-1.563,1.826,1.826,0,0,1,1.1-.872c2.517-.757,7.9,2.139,8.128,2.271a.329.329,0,0,1,.181.362.362.362,0,0,1-.28.313A27.47,27.47,0,0,1,249.128,404.938Zm-2.484-2.9a2.305,2.305,0,0,0-.675.1.971.971,0,0,0-.708.526c-.247.444-.148.658,0,.773.724.971,4.558.9,7.371.494A16.451,16.451,0,0,0,246.644,402.042Z" transform="translate(-155.015 52.501)" fill="#007bff"/>
      <path id="Path_13856" data-name="Path 13856" d="M252.154,405.828h-.082c-1.826-.773-5.561-3.965-5.265-5.693,0-.411.313-.921,1.3-1.037a2.715,2.715,0,0,1,2.024.559c1.974,1.547,2.468,5.644,2.5,5.825a.329.329,0,0,1-.165.329A.313.313,0,0,1,252.154,405.828Zm-3.85-6.055h-.214c-.642.082-.675.329-.707.428,0,1.037,2.386,3.554,4.294,4.623a8.342,8.342,0,0,0-2.123-4.607,1.81,1.81,0,0,0-1.25-.428Z" transform="translate(-153.467 51.051)" fill="#007bff"/>
      <path id="Path_13857" data-name="Path 13857" d="M259.894,402.025l16.569-.395a1.349,1.349,0,0,1,1.333,1.02l3.291,13.409a2.238,2.238,0,0,1-1.645,2.7h-.461c-5.973,0-11.3-.165-18.741,0-8.77.214-6.581,1.218-16.832,1.645-6.219.23-7.519-6.812-4.936-7.223,12.027-1.81,13.163-5.479,17.753-9.872A5.33,5.33,0,0,1,259.894,402.025Z" transform="translate(-159.644 52.698)" fill="#263238"/>
      <path id="Path_13858" data-name="Path 13858" d="M306.28,388.692l8.753,29.139,12.044-3.62L321.2,384.2Z" transform="translate(-115.075 41.45)" fill="#ff8b7b"/>
      <path id="Path_13859" data-name="Path 13859" d="M309.982,400.982l13.92-2.945L321.2,384.2l-14.923,4.492Z" transform="translate(-115.075 41.45)" fill="#263238" opacity="0.2"/>
      <path id="Path_13860" data-name="Path 13860" d="M259.516,249.207c16.273,61.487,80.03,248.184,80.03,248.184l17.539-4.031s-8.868-64.892-21.6-101.6c-2.04-5.841-4.936-10.629-6.367-15.006-1.761-5.561-1.086-9.74-2.9-23.035-2.09-15.335-5.15-35.441-8.671-51.187-.938-4.229-1.563-7.848-2.007-11.369-.526-4.13-.675-7.19-1.053-16.783-.543-13.163-5.578-31.163-10.843-42.631l-47.254,1.991S258.5,245.324,259.516,249.207Z" transform="translate(-147.272 -56.933)" fill="#007bff"/>
      <path id="Path_13861" data-name="Path 13861" d="M307.7,402.713a6.582,6.582,0,0,1-4.607,0,1.349,1.349,0,0,1-.362-1.53,1.875,1.875,0,0,1,.889-1.086c2.287-1.3,8.227.329,8.424.411a.345.345,0,0,1,.263.313.411.411,0,0,1-.214.362,27.33,27.33,0,0,1-4.393,1.53Zm-3.06-2.287a3.3,3.3,0,0,0-.658.263,1.02,1.02,0,0,0-.559.658c-.148.494,0,.691.132.773.921.79,4.64-.115,7.289-1.152a16.454,16.454,0,0,0-6.2-.543Z" transform="translate(-117.432 51.385)" fill="#007bff"/>
      <path id="Path_13862" data-name="Path 13862" d="M310.925,402.841a.23.23,0,0,1-.148,0c-1.958-.329-6.3-2.632-6.417-4.377,0-.411.115-.971,1.053-1.3a2.7,2.7,0,0,1,2.09.1c2.271,1.07,3.669,4.936,3.735,5.117a.362.362,0,0,1-.082.362A.4.4,0,0,1,310.925,402.841Zm-5.1-5.068h-.214c-.609.214-.592.477-.592.576.165,1.02,3.11,2.929,5.216,3.554a8.506,8.506,0,0,0-3.093-4.015,1.842,1.842,0,0,0-1.316-.148Z" transform="translate(-116.314 49.711)" fill="#007bff"/>
      <path id="Path_13863" data-name="Path 13863" d="M316.532,400.67l16.075-4.064a1.333,1.333,0,0,1,1.514.691l6.2,12.34a2.221,2.221,0,0,1-.954,2.995,2.433,2.433,0,0,1-.444.165c-5.825,1.365-11.057,2.353-18.263,4.179-8.506,2.155-6.088,2.616-16.059,5.3-6.022,1.645-8.852-4.936-6.384-5.956,11.336-4.426,11.665-8.227,15.121-13.607a5.265,5.265,0,0,1,3.192-2.04Z" transform="translate(-120.852 49.43)" fill="#263238"/>
      <g id="Group_12844" data-name="Group 12844" transform="translate(89.16 183.291)" opacity="0.2">
        <path id="Path_13864" data-name="Path 13864" d="M283.042,245.288l-1.5-6.088c-5.775,1.168-11.155,2.024-16.075,2.616l.658,6.252C271.278,247.443,276.955,246.538,283.042,245.288Z" transform="translate(-230.572 -235.416)"/>
        <path id="Path_13865" data-name="Path 13865" d="M257.423,241.89a104.505,104.505,0,0,1-13.163-1.02l.559,6.433a113.751,113.751,0,0,0,13.163.9Z" transform="translate(-244.26 -234.338)"/>
        <path id="Path_13866" data-name="Path 13866" d="M289.5,236.9q-6.219,1.645-11.929,2.962l1.793,6.022c3.768-.856,7.684-1.826,11.764-2.962Z" transform="translate(-222.764 -236.9)"/>
        <path id="Path_13867" data-name="Path 13867" d="M267.818,241.1c-5.035.461-9.559.658-13.558.675l.675,6.3c1.645,0,3.291,0,4.936-.115,2.7-.115,5.578-.313,8.638-.609Z" transform="translate(-237.807 -234.19)"/>
      </g>
      <path id="Path_13868" data-name="Path 13868" d="M320.8,170.8l-24.3,1.02c-5.364,5.923-28.991,5.643-27.889,1.185l-24.532,1.037a5.479,5.479,0,0,0-5.117,3.735c-7.569,25.733,7.437,95.858,7.437,95.858-8.984,13.772,21.751,10.547,54.3,6.3s17.457-13.508,17.457-13.508c-2.122-33.417,4.031-78.565,5.792-92.139A3.044,3.044,0,0,0,320.8,170.8Z" transform="translate(-159.899 -96.267)" fill="#007bff"/>
      <g id="Group_12845" data-name="Group 12845" transform="translate(76.925 74.531)" opacity="0.7">
        <path id="Path_13869" data-name="Path 13869" d="M320.8,170.8l-24.3,1.02c-5.364,5.923-28.991,5.643-27.889,1.185l-24.532,1.037a5.479,5.479,0,0,0-5.117,3.735c-7.569,25.733,7.437,95.858,7.437,95.858-8.984,13.772,21.751,10.547,54.3,6.3s17.457-13.508,17.457-13.508c-2.122-33.417,4.031-78.565,5.792-92.139A3.044,3.044,0,0,0,320.8,170.8Z" transform="translate(-236.824 -170.798)" fill="#fff"/>
      </g>
      <path id="Path_13870" data-name="Path 13870" d="M264.355,134.11s-14.66,1.267-13.426,7.98,13.525.642,13.525.642Z" transform="translate(-150.844 -119.944)" fill="#263238"/>
      <path id="Path_13871" data-name="Path 13871" d="M284.459,154.43c-2.485,8.227-4.755,21.389-1.349,29.485.823,1.942-.675,5.446-2.386,6.68-5.989,4.706-12.916,9.082-20.534,8.589-9.773-.642-10.514-7.963-8.227-11.846.625-1.037,2.238-3.291,3.422-3.6,9.494-2.024,10.349-8.441,9.313-15.647Z" transform="translate(-150.825 -106.831)" fill="#ff8b7b"/>
      <path id="Path_13872" data-name="Path 13872" d="M271,157.84l-11.7,8.013a32.108,32.108,0,0,1,.214,5.331c4.113-.165,9.691-3.044,11.731-7.338C272.545,161.229,271.969,158.268,271,157.84Z" transform="translate(-145.394 -104.63)" opacity="0.2"/>
      <path id="Path_13873" data-name="Path 13873" d="M289.515,154.917c-2.978,12.653-4.1,20.188-11.665,25.634-11.4,8.227-26.161-.411-27-13.64-.757-12.011,4.245-30.6,17.622-33.532a17.7,17.7,0,0,1,21.143,13.393A17.916,17.916,0,0,1,289.515,154.917Z" transform="translate(-150.895 -120.694)" fill="#ff8b7b"/>
      <path id="Path_13874" data-name="Path 13874" d="M263.518,146.694c-.526.971-1.481,1.514-2.122,1.152s-.74-1.431-.2-2.419,1.481-1.514,2.122-1.152S264.061,145.723,263.518,146.694Z" transform="translate(-144.396 -113.458)" fill="#263238"/>
      <path id="Path_13875" data-name="Path 13875" d="M256.345,144.614c-.543.987-1.5,1.514-2.139,1.168s-.74-1.448-.2-2.435,1.481-1.514,2.122-1.152S256.871,143.593,256.345,144.614Z" transform="translate(-149.036 -114.8)" fill="#263238"/>
      <path id="Path_13876" data-name="Path 13876" d="M267.317,146.733a.658.658,0,0,1-.444-.527,5.2,5.2,0,0,0-2.665-3.932.658.658,0,0,1-.346-.872h0a.642.642,0,0,1,.856-.329h0a6.581,6.581,0,0,1,3.422,4.936.658.658,0,0,1-.543.757Z" transform="translate(-142.486 -115.488)" fill="#263238"/>
      <path id="Path_13877" data-name="Path 13877" d="M253.956,140.553a.658.658,0,0,1-.411-.839.707.707,0,0,1,.247-.329A6.581,6.581,0,0,1,259.7,138.3a.658.658,0,0,1,.395.839h0a.691.691,0,0,1-.856.378h0a5.232,5.232,0,0,0-4.673.856A.691.691,0,0,1,253.956,140.553Z" transform="translate(-149.132 -117.42)" fill="#263238"/>
      <path id="Path_13878" data-name="Path 13878" d="M259.618,144.91A34.551,34.551,0,0,1,252,150.455a5.578,5.578,0,0,0,3.817,2.7Z" transform="translate(-150.105 -112.974)" fill="#de5753"/>
      <path id="Path_13879" data-name="Path 13879" d="M254.3,152.449s4.706-.642,17.622.23c-1.843,3.406-4.936,6.055-11.517,5.578S254.3,152.449,254.3,152.449Z" transform="translate(-148.623 -108.256)" fill="#263238"/>
      <path id="Path_13880" data-name="Path 13880" d="M262.9,154.38a13.278,13.278,0,0,0-7.388,1.2,7.552,7.552,0,0,0,4.031,1.333,13.163,13.163,0,0,0,7.371-1.218,7.355,7.355,0,0,0-4.015-1.316Z" transform="translate(-147.84 -106.929)" fill="#de5753"/>
      <path id="Path_13881" data-name="Path 13881" d="M254.67,152.4a2.468,2.468,0,0,0,1.843,1.876,76.9,76.9,0,0,0,11.517-.115,3.768,3.768,0,0,0,3.077-1.53,119.122,119.122,0,0,0-16.437-.23Z" transform="translate(-148.382 -108.257)" fill="#fff"/>
      <path id="Path_13882" data-name="Path 13882" d="M284.656,168.41a29.121,29.121,0,0,1-1.942-14.117s-4.837-5.973-4.245-11.09c0,0-25.881,1.645-26.079-9.74s15.943-.115,15.943-.115.115-15.927,11.517-2.4c0,0,13.591,2.073,15.565,13.377,0,0,5.611-.839,4.525,9.181a51.748,51.748,0,0,1-10.316,16.453Z" transform="translate(-149.854 -125.5)" fill="#263238"/>
      <path id="Path_13883" data-name="Path 13883" d="M281.939,157.9a12.439,12.439,0,0,1-8.49,4.064c-4.327.181-5.528-3.916-3.5-7.486,1.81-3.291,6.236-7.19,10.185-5.693S284.6,154.894,281.939,157.9Z" transform="translate(-139.141 -110.684)" fill="#ff8b7b"/>
      <path id="Path_13884" data-name="Path 13884" d="M279.92,145.759s4.377-6.861,5.973-4.541S279.92,145.759,279.92,145.759Z" transform="translate(-132.087 -115.666)" fill="#263238"/>
      <path id="Path_13885" data-name="Path 13885" d="M258.516,173.244c-.79,3.291-1.941,10.892,2.8,14.94,0,0,16.832-8.819,22.772-16.848a1.892,1.892,0,0,1,2.682-.428l1.448,1.119s1.316,8.457-10.859,22.574a1.1,1.1,0,0,1-1.909-.362c-.938-2.962-4.064-7.667-14.249-4,0,0-6.877-2.271-10.333,1.53a1.1,1.1,0,0,1-1.925-.79,34.371,34.371,0,0,1,5.775-17.77l2.633-.987a.872.872,0,0,1,1.168,1.02Z" transform="translate(-152.08 -96.44)" fill="#007bff"/>
      <path id="Path_13886" data-name="Path 13886" d="M246.06,234.461s24.285,3.126,43.783-2.781Z" transform="translate(-153.938 -56.978)" opacity="0.1"/>
      <path id="Path_13887" data-name="Path 13887" d="M284.148,183.54s-2.254,13.163,4.261,31.772c.675-9.658,1.563-18.905,2.452-26.934Z" transform="translate(-129.602 -88.045)" opacity="0.1"/>
      <path id="Path_13888" data-name="Path 13888" d="M293.609,171.612s-15.631,10.53-8.375,29.369,32.627,76.624,32.627,76.624l12.9-3.291L315.1,221.779,293.609,171.53" transform="translate(-129.898 -95.795)" fill="#007bff"/>
      <path id="Path_13889" data-name="Path 13889" d="M293.609,171.612s-15.631,10.53-8.375,29.369,32.627,76.624,32.627,76.624l12.9-3.291L315.1,221.779,293.609,171.53" transform="translate(-129.898 -95.795)" fill="#fff" opacity="0.7"/>
    </g>
  </g>
</svg>
