<svg xmlns="http://www.w3.org/2000/svg" width="148.587" height="89.052" viewBox="0 0 148.587 89.052">
  <g id="mumbai" transform="translate(1.5 1.5)">
    <path id="Path_8286" data-name="Path 8286" d="M56.032,50.072V48.066a5.654,5.654,0,0,1,0-.9H25.953V55.4H58.181V51.9h-.414a1.812,1.812,0,0,1-1.252-.563,1.759,1.759,0,0,1-.483-1.269Z" transform="translate(-14.558 -0.129)" fill="none" stroke="#007bff" stroke-linecap="round" stroke-linejoin="round" stroke-miterlimit="10" stroke-width="3"/>
    <path id="Path_8287" data-name="Path 8287" d="M56.032,49.018a1.622,1.622,0,0,1,.544-1.123,1.671,1.671,0,0,1,1.19-.418h.414V41.715H25.953v8.231H56.032Z" transform="translate(-14.558 -2.91)" fill="none" stroke="#007bff" stroke-linecap="round" stroke-linejoin="round" stroke-miterlimit="10" stroke-width="3"/>
    <path id="Path_8288" data-name="Path 8288" d="M25.953,83.186H58.181V52.613H25.953Z" transform="translate(-14.558 2.651)" fill="none" stroke="#007bff" stroke-linecap="round" stroke-linejoin="round" stroke-miterlimit="10" stroke-width="3"/>
    <path id="Path_8289" data-name="Path 8289" d="M39.645,81.6H48.6V67.941l-1.1-.964c.205-9.388-7.852-11.251-7.852-11.251s-8.058,1.863-7.855,11.251l-1.1.964V81.6Z" transform="translate(-12.14 4.239)" fill="none" stroke="#007bff" stroke-linecap="round" stroke-linejoin="round" stroke-miterlimit="10" stroke-width="3"/>
    <path id="Path_8290" data-name="Path 8290" d="M90.809,45.6h-35v5.527a1.717,1.717,0,0,1-.139.664,1.737,1.737,0,0,1-.386.561,1.778,1.778,0,0,1-1.25.5h-.42v33.9H93V52.81h-.423a1.78,1.78,0,0,1-1.249-.5,1.727,1.727,0,0,1-.524-1.225Z" transform="translate(-0.445 -0.925)" fill="none" stroke="#007bff" stroke-linecap="round" stroke-linejoin="round" stroke-miterlimit="10" stroke-width="3"/>
    <path id="Path_8291" data-name="Path 8291" d="M90.051,40.46a1.685,1.685,0,0,1-.513,1.2,1.736,1.736,0,0,1-1.221.489H79.843a1.733,1.733,0,0,1-1.218-.49,1.682,1.682,0,0,1-.51-1.195V37.951a1.669,1.669,0,0,1,.134-.648,1.7,1.7,0,0,1,.376-.548,1.721,1.721,0,0,1,.56-.364,1.742,1.742,0,0,1,.659-.125h8.475a1.747,1.747,0,0,1,.66.125,1.723,1.723,0,0,1,.561.364,1.7,1.7,0,0,1,.377.548,1.677,1.677,0,0,1,.135.648Z" transform="translate(12.055 -5.69)" fill="none"/>
    <path id="Path_8292" data-name="Path 8292" d="M90.051,40.46a1.685,1.685,0,0,1-.513,1.2,1.736,1.736,0,0,1-1.221.489H79.843a1.733,1.733,0,0,1-1.218-.49,1.682,1.682,0,0,1-.51-1.195V37.951a1.669,1.669,0,0,1,.134-.648,1.7,1.7,0,0,1,.376-.548,1.721,1.721,0,0,1,.56-.364,1.742,1.742,0,0,1,.659-.125h8.475a1.747,1.747,0,0,1,.66.125,1.723,1.723,0,0,1,.561.364,1.7,1.7,0,0,1,.377.548,1.677,1.677,0,0,1,.135.648Z" transform="translate(12.055 -5.69)" fill="none" stroke="#007bff" stroke-linecap="round" stroke-linejoin="round" stroke-miterlimit="10" stroke-width="3"/>
    <path id="Path_8293" data-name="Path 8293" d="M55.047,38.6V39.6a1.672,1.672,0,0,1-.389,1.063,1.718,1.718,0,0,1-.983.583l-.06.058v7.885h19.1V38.6Z" transform="translate(-0.445 -4.498)" fill="none" stroke="#007bff" stroke-linecap="round" stroke-linejoin="round" stroke-miterlimit="10" stroke-width="3"/>
    <path id="Path_8294" data-name="Path 8294" d="M83.945,39.609l-.018-.018V38.6H66.262V49.184h19.1V41.306l-.1-.124a1.71,1.71,0,0,1-.927-.568,1.665,1.665,0,0,1-.388-1.005Z" transform="translate(6.008 -4.498)" fill="none" stroke="#007bff" stroke-linecap="round" stroke-linejoin="round" stroke-miterlimit="10" stroke-width="3"/>
    <path id="Path_8295" data-name="Path 8295" d="M53.643,38.649H48.875l.006-7.055h4.768Z" transform="translate(-2.863 -8.073)" fill="none" stroke="#007bff" stroke-linecap="round" stroke-linejoin="round" stroke-miterlimit="10" stroke-width="3"/>
    <path id="Path_8296" data-name="Path 8296" d="M53.649,29.684H48.875l.006-5.879h4.768Z" transform="translate(-2.863 -12.047)" fill="none" stroke="#007bff" stroke-linecap="round" stroke-linejoin="round" stroke-miterlimit="10" stroke-width="3"/>
    <path id="Path_8297" data-name="Path 8297" d="M56.841,48.388H47.292V40.157h9.549Z" transform="translate(-3.671 -3.704)" fill="none" stroke="#007bff" stroke-linecap="round" stroke-linejoin="round" stroke-miterlimit="10" stroke-width="3"/>
    <path id="Path_8298" data-name="Path 8298" d="M56.841,84.381H47.292v-34.1h9.549Z" transform="translate(-3.671 1.461)" fill="none" stroke="#007bff" stroke-linecap="round" stroke-linejoin="round" stroke-miterlimit="10" stroke-width="3"/>
    <path id="Path_8299" data-name="Path 8299" d="M55.254,24.226a4.827,4.827,0,0,0-.865-3.179,4.953,4.953,0,0,0-2.716-1.915,4.951,4.951,0,0,0-2.716,1.915,4.826,4.826,0,0,0-.865,3.179v.055a1.73,1.73,0,0,0,1.459,1.906H53.8a1.73,1.73,0,0,0,1.459-1.906Z" transform="translate(-3.271 -14.431)" fill="none" stroke="#007bff" stroke-linecap="round" stroke-linejoin="round" stroke-miterlimit="10" stroke-width="3"/>
    <path id="Path_8300" data-name="Path 8300" d="M50.457,20.135V16.02" transform="translate(-2.056 -16.02)" fill="none" stroke="#007bff" stroke-linecap="round" stroke-linejoin="round" stroke-miterlimit="10" stroke-width="3"/>
    <path id="Path_8301" data-name="Path 8301" d="M55.648,31.719a1.748,1.748,0,0,1-.443,1.266,1.8,1.8,0,0,1-1.217.595H48.953a1.8,1.8,0,0,1-1.218-.595,1.748,1.748,0,0,1-.443-1.266V29.561a1.748,1.748,0,0,1,.442-1.266,1.8,1.8,0,0,1,1.218-.6h5.035a1.8,1.8,0,0,1,1.218.6,1.748,1.748,0,0,1,.442,1.266Z" transform="translate(-3.672 -10.06)" fill="none" stroke="#007bff" stroke-linecap="round" stroke-linejoin="round" stroke-miterlimit="10" stroke-width="3"/>
    <path id="Path_8302" data-name="Path 8302" d="M58.438,40.461a1.684,1.684,0,0,1-.511,1.194,1.735,1.735,0,0,1-1.218.489H48.233a1.734,1.734,0,0,1-1.22-.489,1.683,1.683,0,0,1-.512-1.2V37.949a1.673,1.673,0,0,1,.135-.648,1.694,1.694,0,0,1,.377-.548,1.725,1.725,0,0,1,.561-.364,1.744,1.744,0,0,1,.66-.124h8.475a1.734,1.734,0,0,1,1.217.49,1.683,1.683,0,0,1,.511,1.194Z" transform="translate(-4.074 -5.69)" fill="none" stroke="#007bff" stroke-linecap="round" stroke-linejoin="round" stroke-miterlimit="10" stroke-width="3"/>
    <path id="Path_8303" data-name="Path 8303" d="M91.6,42.177v-1.66a1.709,1.709,0,0,1,.518-1.214,1.762,1.762,0,0,1,1.237-.5H95v-7.21H52.032V38.85h1.65a1.76,1.76,0,0,1,1.236.5,1.708,1.708,0,0,1,.517,1.213v1.616Z" transform="translate(-1.253 -8.073)" fill="none" stroke="#007bff" stroke-linecap="round" stroke-linejoin="round" stroke-miterlimit="10" stroke-width="3"/>
    <path id="Path_8304" data-name="Path 8304" d="M85.262,38.649H80.488l.006-7.055h4.768Z" transform="translate(13.266 -8.073)" fill="none" stroke="#007bff" stroke-linecap="round" stroke-linejoin="round" stroke-miterlimit="10" stroke-width="3"/>
    <path id="Path_8305" data-name="Path 8305" d="M85.262,29.684H80.488l.006-5.879h4.768Z" transform="translate(13.266 -12.047)" fill="none" stroke="#007bff" stroke-linecap="round" stroke-linejoin="round" stroke-miterlimit="10" stroke-width="3"/>
    <path id="Path_8306" data-name="Path 8306" d="M88.456,48.388H78.907V40.157h9.542Z" transform="translate(12.459 -3.704)" fill="none" stroke="#007bff" stroke-linecap="round" stroke-linejoin="round" stroke-miterlimit="10" stroke-width="3"/>
    <path id="Path_8307" data-name="Path 8307" d="M88.053,84.381H79.7v-34.1h8.355Z" transform="translate(12.863 1.461)" fill="none" stroke="#007bff" stroke-linecap="round" stroke-linejoin="round" stroke-miterlimit="10" stroke-width="3"/>
    <path id="Path_8308" data-name="Path 8308" d="M86.865,24.226A4.827,4.827,0,0,0,86,21.048a4.954,4.954,0,0,0-2.716-1.916,4.955,4.955,0,0,0-2.715,1.916,4.828,4.828,0,0,0-.865,3.178v.055a1.728,1.728,0,0,0,1.456,1.906h4.246a1.73,1.73,0,0,0,1.46-1.906Z" transform="translate(12.857 -14.431)" fill="none" stroke="#007bff" stroke-linecap="round" stroke-linejoin="round" stroke-miterlimit="10" stroke-width="3"/>
    <path id="Path_8309" data-name="Path 8309" d="M82.073,20.135V16.02" transform="translate(14.074 -16.02)" fill="none" stroke="#007bff" stroke-linecap="round" stroke-linejoin="round" stroke-miterlimit="10" stroke-width="3"/>
    <path id="Path_8310" data-name="Path 8310" d="M87.265,31.718a1.747,1.747,0,0,1-.442,1.266,1.8,1.8,0,0,1-1.218.6H80.57a1.8,1.8,0,0,1-1.218-.6,1.747,1.747,0,0,1-.443-1.266V29.56a1.747,1.747,0,0,1,.443-1.266A1.8,1.8,0,0,1,80.57,27.7h5.035a1.8,1.8,0,0,1,1.217.595,1.747,1.747,0,0,1,.443,1.266Z" transform="translate(12.459 -10.06)" fill="none" stroke="#007bff" stroke-linecap="round" stroke-linejoin="round" stroke-miterlimit="10" stroke-width="3"/>
    <path id="Path_8311" data-name="Path 8311" d="M90.051,40.46a1.685,1.685,0,0,1-.513,1.2,1.736,1.736,0,0,1-1.221.489H79.843a1.733,1.733,0,0,1-1.218-.49,1.682,1.682,0,0,1-.51-1.195V37.951a1.669,1.669,0,0,1,.134-.648,1.7,1.7,0,0,1,.376-.548,1.721,1.721,0,0,1,.56-.364,1.742,1.742,0,0,1,.659-.125h8.475a1.747,1.747,0,0,1,.66.125,1.723,1.723,0,0,1,.561.364,1.7,1.7,0,0,1,.377.548,1.677,1.677,0,0,1,.135.648Z" transform="translate(12.055 -5.69)" fill="none" stroke="#007bff" stroke-linecap="round" stroke-linejoin="round" stroke-miterlimit="10" stroke-width="3"/>
    <path id="Path_8312" data-name="Path 8312" d="M91.244,50.979a1.66,1.66,0,0,1-.129.643,1.68,1.68,0,0,1-.369.545,1.708,1.708,0,0,1-.553.365,1.728,1.728,0,0,1-.653.128H79.819a1.72,1.72,0,0,1-1.205-.493,1.669,1.669,0,0,1-.5-1.188V47.286a1.656,1.656,0,0,1,.129-.643,1.678,1.678,0,0,1,.369-.545,1.7,1.7,0,0,1,.553-.365,1.726,1.726,0,0,1,.653-.128H89.54a1.724,1.724,0,0,1,.653.128,1.7,1.7,0,0,1,.553.365,1.677,1.677,0,0,1,.369.546,1.653,1.653,0,0,1,.129.643Z" transform="translate(12.055 -0.925)" fill="none" stroke="#007bff" stroke-linecap="round" stroke-linejoin="round" stroke-miterlimit="10" stroke-width="3"/>
    <path id="Path_8313" data-name="Path 8313" d="M60.039,50.98a1.752,1.752,0,0,1-.578,1.218,1.806,1.806,0,0,1-1.282.463h-10.6a1.806,1.806,0,0,1-1.282-.463,1.753,1.753,0,0,1-.578-1.218V47.288a1.753,1.753,0,0,1,.578-1.218,1.806,1.806,0,0,1,1.282-.463h10.6a1.806,1.806,0,0,1,1.282.463,1.752,1.752,0,0,1,.578,1.218Z" transform="translate(-4.475 -0.925)" fill="none" stroke="#007bff" stroke-linecap="round" stroke-linejoin="round" stroke-miterlimit="10" stroke-width="3"/>
    <path id="Path_8314" data-name="Path 8314" d="M70.5,85.171H84.229V65.932l-1.684-1.357C82.855,51.347,70.5,48.719,70.5,48.719S58.15,51.347,58.46,64.575l-1.684,1.357V85.171Z" transform="translate(1.168 0.664)" fill="none" stroke="#007bff" stroke-linecap="round" stroke-linejoin="round" stroke-miterlimit="10" stroke-width="3"/>
    <path id="Path_8315" data-name="Path 8315" d="M85.234,83.186h32.228V52.613H85.234Z" transform="translate(15.687 2.651)" fill="none" stroke="#007bff" stroke-linecap="round" stroke-linejoin="round" stroke-miterlimit="10" stroke-width="3"/>
    <path id="Path_8316" data-name="Path 8316" d="M85.234,41.715v5.721h.412a1.669,1.669,0,0,1,1.192.416,1.619,1.619,0,0,1,.545,1.124v.971h30.08V41.715Z" transform="translate(15.687 -2.91)" fill="none" stroke="#007bff" stroke-linecap="round" stroke-linejoin="round" stroke-miterlimit="10" stroke-width="3"/>
    <path id="Path_8317" data-name="Path 8317" d="M87.382,47.165a5.616,5.616,0,0,1,0,.9v1.956a1.74,1.74,0,0,1-.112.683,1.76,1.76,0,0,1-.37.588,1.793,1.793,0,0,1-.571.4,1.812,1.812,0,0,1-.685.155h-.411V55.4h32.228V47.165Z" transform="translate(15.687 -0.129)" fill="none" stroke="#007bff" stroke-linecap="round" stroke-linejoin="round" stroke-miterlimit="10" stroke-width="3"/>
    <path id="Path_8318" data-name="Path 8318" d="M98.926,81.6H89.974V67.941l1.1-.964c-.205-9.388,7.852-11.251,7.852-11.251s8.058,1.863,7.855,11.251l1.1.964V81.6Z" transform="translate(18.106 4.239)" fill="none"/>
    <path id="Path_8319" data-name="Path 8319" d="M98.926,81.6H89.974V67.941l1.1-.964c-.205-9.388,7.852-11.251,7.852-11.251s8.058,1.863,7.855,11.251l1.1.964V81.6Z" transform="translate(18.106 4.239)" fill="none" stroke="#007bff" stroke-linecap="round" stroke-linejoin="round" stroke-miterlimit="10" stroke-width="3"/>
    <path id="Path_8320" data-name="Path 8320" d="M18.408,73H163.995" transform="translate(-18.408 13.052)" fill="none" stroke="#007bff" stroke-linecap="round" stroke-linejoin="round" stroke-width="3"/>
  </g>
</svg>
