<svg xmlns="http://www.w3.org/2000/svg" width="88.871" height="88.216" viewBox="0 0 88.871 88.216">
  <g id="offer" transform="translate(0 -0.345)">
    <path id="Path_8399" data-name="Path 8399" d="M116.839,38.553l0,.057a9.592,9.592,0,0,0,5.474,9.15l.036.018a6.449,6.449,0,0,1,2.921,2.809l.015.027A10.022,10.022,0,0,0,134.7,55.87l.06,0a6.859,6.859,0,0,1,4.055,1.054,10.281,10.281,0,0,0,10.9,0,6.859,6.859,0,0,1,4.055-1.054l.06,0a10.028,10.028,0,0,0,9.422-5.262l.009-.019a6.461,6.461,0,0,1,2.929-2.815l.029-.015a9.592,9.592,0,0,0,5.474-9.151l0-.053a6.137,6.137,0,0,1,1.068-3.8,9.437,9.437,0,0,0,0-10.672,6.137,6.137,0,0,1-1.069-3.8l0-.057a9.591,9.591,0,0,0-5.478-9.152l-.032-.016a6.443,6.443,0,0,1-2.917-2.8l-.019-.036a10.03,10.03,0,0,0-9.419-5.256l-.061,0A6.854,6.854,0,0,1,149.72,1.91h0a10.281,10.281,0,0,0-10.9,0,6.864,6.864,0,0,1-4.055,1.054l-.06,0a10.023,10.023,0,0,0-9.418,5.255l-.014.025a6.453,6.453,0,0,1-2.924,2.813l-.034.016a9.591,9.591,0,0,0-5.474,9.151l0,.053a6.133,6.133,0,0,1-1.068,3.8,9.437,9.437,0,0,0,0,10.673,6.132,6.132,0,0,1,1.067,3.8Zm1.656-12.6a9.46,9.46,0,0,0,1.648-5.869l0-.057a6.29,6.29,0,0,1,3.614-5.983l.028-.014a9.742,9.742,0,0,0,4.413-4.248l.016-.031a6.71,6.71,0,0,1,6.313-3.49l.058,0a10.137,10.137,0,0,0,6-1.558,6.954,6.954,0,0,1,7.376,0,10.16,10.16,0,0,0,6,1.559l.058,0a6.7,6.7,0,0,1,6.311,3.484l.022.041a9.742,9.742,0,0,0,4.409,4.242l.027.014a6.292,6.292,0,0,1,3.617,5.985l0,.059a9.458,9.458,0,0,0,1.649,5.868,6.111,6.111,0,0,1,0,6.913,9.468,9.468,0,0,0-1.647,5.869l0,.056a6.294,6.294,0,0,1-3.618,5.987l-.024.011a9.753,9.753,0,0,0-4.417,4.254l-.012.024a6.706,6.706,0,0,1-6.314,3.49l-.057,0a10.156,10.156,0,0,0-6,1.559,6.955,6.955,0,0,1-7.375,0,10.14,10.14,0,0,0-5.436-1.575q-.28,0-.562.015l-.058,0a6.7,6.7,0,0,1-6.315-3.493l-.017-.032a9.731,9.731,0,0,0-4.406-4.241l-.031-.015a6.29,6.29,0,0,1-3.617-5.985l0-.059a9.467,9.467,0,0,0-1.649-5.868,6.111,6.111,0,0,1,0-6.912Zm0,0" transform="translate(-90.515)" fill="#007bff"/>
    <path id="Path_8400" data-name="Path 8400" d="M205.283,91.4a1.654,1.654,0,0,0,2.279-.528l19.6-31.4a1.655,1.655,0,1,0-2.807-1.752l-19.6,31.4a1.654,1.654,0,0,0,.528,2.28Zm0,0" transform="translate(-162.207 -44.879)" fill="#007bff"/>
    <path id="Path_8401" data-name="Path 8401" d="M188.741,77.383c4.029,0,7.308-3.738,7.308-8.333s-3.279-8.332-7.308-8.332-7.307,3.737-7.307,8.332S184.712,77.383,188.741,77.383Zm0-13.356c2.2,0,4,2.253,4,5.023s-1.794,5.024-4,5.024-4-2.255-4-5.024S186.537,64.028,188.741,64.028Zm0,0" transform="translate(-143.909 -47.886)" fill="#007bff"/>
    <path id="Path_8402" data-name="Path 8402" d="M267.684,148.848c0,4.595,3.278,8.332,7.307,8.332s7.308-3.738,7.308-8.332-3.278-8.332-7.307-8.332S267.684,144.252,267.684,148.848Zm11.305,0c0,2.77-1.793,5.023-4,5.023s-4-2.253-4-5.023,1.794-5.023,4-5.023S278.989,146.077,278.989,148.848Zm0,0" transform="translate(-212.32 -111.18)" fill="#007bff"/>
    <path id="Path_8403" data-name="Path 8403" d="M88.656,275.462A8.358,8.358,0,0,0,77.619,272.1l-12.961,6.124a10.558,10.558,0,0,0-9-5.553l-11.965-.33a12.647,12.647,0,0,1-5.438-1.4l-1.218-.631a21.475,21.475,0,0,0-19.892.021l.076-2.758a1.655,1.655,0,0,0-1.609-1.7l-13.12-.361a1.654,1.654,0,0,0-1.7,1.609L0,295.908a1.655,1.655,0,0,0,1.609,1.7l13.12.361h.046a1.656,1.656,0,0,0,1.654-1.609l.037-1.378,3.409-1.825a5.849,5.849,0,0,1,4.364-.477l20.354,5.713c.036.011.071.019.107.027a21.788,21.788,0,0,0,4.474.461,22.077,22.077,0,0,0,9.222-2.012,1.629,1.629,0,0,0,.205-.112l29.511-19.09a1.654,1.654,0,0,0,.542-2.2Zm-85.3,18.882.7-25.484,9.813.27-.7,25.485Zm53.552-.434a18.754,18.754,0,0,1-11.472,1.28l-20.3-5.7a9.146,9.146,0,0,0-6.82.746l-1.742.932.467-16.944a18.186,18.186,0,0,1,18.476-.986l1.218.631a15.972,15.972,0,0,0,6.87,1.774l11.965.33a7.256,7.256,0,0,1,6.9,5.782l-17.822-.49a1.655,1.655,0,0,0-.09,3.308l19.669.541h.047a1.656,1.656,0,0,0,1.653-1.609,10.559,10.559,0,0,0-.16-2.147l13.292-6.281.039-.019a5.054,5.054,0,0,1,5.717.8Zm0,0" transform="translate(0 -210.318)" fill="#007bff"/>
  </g>
</svg>
