<svg id="SvgjsSvg1001" width="288" height="288" xmlns="http://www.w3.org/2000/svg" version="1.1" xmlns:xlink="http://www.w3.org/1999/xlink" xmlns:svgjs="http://svgjs.com/svgjs"><defs id="SvgjsDefs1002"></defs><g id="SvgjsG1008" transform="matrix(1,0,0,1,0,0)"><svg xmlns="http://www.w3.org/2000/svg" width="288" height="288" viewBox="0 0 97.642 91.086"><g data-name="Group 7229" transform="translate(0 -17.188)" fill="#000000" class="color000 svgShape"><g data-name="Group 7228" transform="translate(0 17.188)" fill="#000000" class="color000 svgShape"><path fill="#ffffff" d="M92.875,98.739h-1.21V75.12a1.43,1.43,0,1,0-2.861,0v23.62H58.461V59.858H87.635A1.17,1.17,0,0,1,88.8,61.027v7.355a1.43,1.43,0,1,0,2.861,0V61.027A4.034,4.034,0,0,0,87.635,57H58.461V31.005a4.049,4.049,0,0,0-3.691-4.014V24.122A4.049,4.049,0,0,0,51.056,20.1L14.013,17.2a4.032,4.032,0,0,0-4.344,4.017v2.291a4.03,4.03,0,0,0-3.69,4.014V98.739H4.768a4.768,4.768,0,0,0,0,9.535H92.875a4.768,4.768,0,1,0,0-9.535ZM12.529,21.219a1.168,1.168,0,0,1,1.26-1.165l37.043,2.9a1.175,1.175,0,0,1,1.077,1.165v2.644L12.529,23.679V21.219Zm-3.69,6.3a1.168,1.168,0,0,1,1.26-1.165L54.523,29.84A1.175,1.175,0,0,1,55.6,31.005V98.739h-4V78.261A2.363,2.363,0,0,0,49.243,75.9H35.955a2.363,2.363,0,0,0-2.361,2.361V87.54a1.43,1.43,0,1,0,2.861,0V78.761H48.743V98.739H36.454V94.226a1.43,1.43,0,1,0-2.861,0v4.513H8.839Zm84.036,77.891H4.768a1.907,1.907,0,1,1,0-3.814H92.875a1.907,1.907,0,1,1,0,3.814Z" data-name="Path 8440" transform="translate(0 -17.188)" class="color007bff svgShape"></path><path fill="#ffffff" d="M65.431,123.093h5.79a2.471,2.471,0,0,0,2.468-2.468V116.17a2.471,2.471,0,0,0-2.468-2.468h-5.79a2.471,2.471,0,0,0-2.468,2.468v4.454A2.471,2.471,0,0,0,65.431,123.093Zm.392-6.53h5v3.67h-5Z" data-name="Path 8441" transform="translate(-50.955 -95.296)" class="color007bff svgShape"></path><path fill="#ffffff" d="M141.125,123.093h5.79a2.471,2.471,0,0,0,2.468-2.468V116.17a2.471,2.471,0,0,0-2.468-2.468h-5.79a2.471,2.471,0,0,0-2.468,2.468v4.454A2.471,2.471,0,0,0,141.125,123.093Zm.392-6.53h5v3.67h-5Z" data-name="Path 8442" transform="translate(-112.214 -95.296)" class="color007bff svgShape"></path><path fill="#ffffff" d="M216.818,123.093h5.79a2.471,2.471,0,0,0,2.468-2.468V116.17a2.471,2.471,0,0,0-2.468-2.468h-5.79a2.471,2.471,0,0,0-2.468,2.468v4.454A2.471,2.471,0,0,0,216.818,123.093Zm.392-6.53h5v3.67h-5Z" data-name="Path 8443" transform="translate(-173.472 -95.296)" class="color007bff svgShape"></path><path fill="#ffffff" d="M65.431,190.529h5.79a2.471,2.471,0,0,0,2.468-2.468v-4.455a2.471,2.471,0,0,0-2.468-2.468h-5.79a2.471,2.471,0,0,0-2.468,2.468v4.454A2.471,2.471,0,0,0,65.431,190.529Zm.392-6.53h5v3.67h-5Z" data-name="Path 8444" transform="translate(-50.955 -149.872)" class="color007bff svgShape"></path><path fill="#ffffff" d="M141.125,190.529h5.79a2.471,2.471,0,0,0,2.468-2.468v-4.455a2.471,2.471,0,0,0-2.468-2.468h-5.79a2.471,2.471,0,0,0-2.468,2.468v4.454A2.471,2.471,0,0,0,141.125,190.529Zm.392-6.53h5v3.67h-5Z" data-name="Path 8445" transform="translate(-112.214 -149.872)" class="color007bff svgShape"></path><path fill="#ffffff" d="M216.818,190.529h5.79a2.471,2.471,0,0,0,2.468-2.468v-4.455a2.471,2.471,0,0,0-2.468-2.468h-5.79a2.471,2.471,0,0,0-2.468,2.468v4.454A2.471,2.471,0,0,0,216.818,190.529Zm.392-6.53h5v3.67h-5Z" data-name="Path 8446" transform="translate(-173.472 -149.872)" class="color007bff svgShape"></path><path fill="#ffffff" d="M65.431,257.966h5.79a2.471,2.471,0,0,0,2.468-2.468v-4.454a2.471,2.471,0,0,0-2.468-2.468h-5.79a2.471,2.471,0,0,0-2.468,2.468V255.5A2.471,2.471,0,0,0,65.431,257.966Zm.392-6.53h5v3.67h-5Z" data-name="Path 8447" transform="translate(-50.955 -204.448)" class="color007bff svgShape"></path><path fill="#ffffff" d="M78.522,325.052H65.709a2.749,2.749,0,0,0-2.746,2.746v3.9a2.749,2.749,0,0,0,2.746,2.746H78.522a2.749,2.749,0,0,0,2.746-2.746v-3.9A2.749,2.749,0,0,0,78.522,325.052Zm-.114,6.53H65.824v-3.67H78.408Z" data-name="Path 8448" transform="translate(-50.955 -266.34)" class="color007bff svgShape"></path><path fill="#ffffff" d="M141.125,257.966h5.79a2.471,2.471,0,0,0,2.468-2.468v-4.454a2.471,2.471,0,0,0-2.468-2.468h-5.79a2.471,2.471,0,0,0-2.468,2.468V255.5A2.471,2.471,0,0,0,141.125,257.966Zm.392-6.53h5v3.67h-5Z" data-name="Path 8449" transform="translate(-112.214 -204.448)" class="color007bff svgShape"></path><path fill="#ffffff" d="M216.818,257.966h5.79a2.471,2.471,0,0,0,2.468-2.468v-4.454a2.471,2.471,0,0,0-2.468-2.468h-5.79a2.471,2.471,0,0,0-2.468,2.468V255.5A2.471,2.471,0,0,0,216.818,257.966Zm.392-6.53h5v3.67h-5Z" data-name="Path 8450" transform="translate(-173.472 -204.448)" class="color007bff svgShape"></path><path fill="#ffffff" d="M333.454,280.131a2.634,2.634,0,0,0-2.631-2.631h-5.841a2.634,2.634,0,0,0-2.631,2.631v4.633a2.634,2.634,0,0,0,2.631,2.631h5.841a2.634,2.634,0,0,0,2.631-2.631Zm-2.861,4.4h-5.382v-4.174h5.382Z" data-name="Path 8451" transform="translate(-260.876 -227.857)" class="color007bff svgShape"></path><path fill="#ffffff" d="M330.823,346.717h-5.841a2.634,2.634,0,0,0-2.631,2.631v4.633a2.634,2.634,0,0,0,2.631,2.631h5.841a2.634,2.634,0,0,0,2.631-2.631v-4.633A2.634,2.634,0,0,0,330.823,346.717Zm-.229,7.035h-5.382v-4.174h5.382Z" data-name="Path 8452" transform="translate(-260.876 -283.873)" class="color007bff svgShape"></path><path fill="#ffffff" d="M403.215,280.131a2.634,2.634,0,0,0-2.631-2.631h-5.841a2.634,2.634,0,0,0-2.631,2.631v4.633a2.634,2.634,0,0,0,2.631,2.631h5.841a2.634,2.634,0,0,0,2.631-2.631Zm-2.861,4.4h-5.382v-4.174h5.382Z" data-name="Path 8453" transform="translate(-317.333 -227.857)" class="color007bff svgShape"></path><path fill="#ffffff" d="M400.584,346.717h-5.841a2.634,2.634,0,0,0-2.631,2.631v4.633a2.634,2.634,0,0,0,2.631,2.631h5.841a2.634,2.634,0,0,0,2.631-2.631v-4.633A2.634,2.634,0,0,0,400.584,346.717Zm-.229,7.035h-5.382v-4.174h5.382Z" data-name="Path 8454" transform="translate(-317.333 -283.873)" class="color007bff svgShape"></path></g></g></svg></g></svg>