<svg xmlns="http://www.w3.org/2000/svg" width="554.206" height="447.086" viewBox="0 0 554.206 447.086">
  <g id="Mobile_payments-rafiki_2_" data-name="Mobile payments-rafiki (2)" transform="translate(-56.11 -114.732)">
    <g id="freepik--Shadow--inject-56" transform="translate(56.11 529.462)">
      <ellipse id="freepik--path--inject-56" cx="277.103" cy="16.178" rx="277.103" ry="16.178" fill="#0069d9"/>
    </g>
    <g id="freepik--Device--inject-56" transform="translate(358.402 151.402)">
      <path id="Path_13309" data-name="Path 13309" d="M453.262,533.127H286.334a16.75,16.75,0,0,1-16.879-18.065l23.3-353.107A19.637,19.637,0,0,1,312,143.89H478.916a16.75,16.75,0,0,1,16.864,18.065L472.513,515.062A19.637,19.637,0,0,1,453.262,533.127Z" transform="translate(-266.861 -138.888)" fill="#263238"/>
      <path id="Path_13310" data-name="Path 13310" d="M429.935,222.111H409.727a4.045,4.045,0,0,1-4.073-4.359l2.015-30.584a4.745,4.745,0,0,1,4.659-4.288h20.194a4.045,4.045,0,0,1,4.073,4.288l-2.015,30.584a4.731,4.731,0,0,1-4.645,4.359Z" transform="translate(-208.391 -122.154)" fill="#263238"/>
      <rect id="Rectangle_3932" data-name="Rectangle 3932" width="7.389" height="1.429" transform="translate(81.442)" fill="#58aaff"/>
      <rect id="Rectangle_3933" data-name="Rectangle 3933" width="26.869" height="1.429" transform="translate(45.47)" fill="#58aaff"/>
      <path id="Path_13311" data-name="Path 13311" d="M451.482,533.127H284.554a16.764,16.764,0,0,1-16.879-18.065l23.353-353.107a19.637,19.637,0,0,1,19.251-18.065H477.207a16.75,16.75,0,0,1,16.764,18.065L470.733,515.062a19.637,19.637,0,0,1-19.251,18.065Z" transform="translate(-267.625 -138.888)" fill="#58aaff"/>
      <path id="Path_13312" data-name="Path 13312" d="M457.492,485.939h-176.6a9.518,9.518,0,0,1-9.59-10.261l20.28-307.416A11.148,11.148,0,0,1,302.469,158H479.116a9.518,9.518,0,0,1,9.59,10.262l-20.28,307.416a11.148,11.148,0,0,1-10.933,10.261Z" transform="translate(-266.06 -132.832)" fill="#fff"/>
      <path id="Path_13313" data-name="Path 13313" d="M414.567,158H379.495L294.53,485.939H329.6Z" transform="translate(-256.077 -132.832)" fill="#fafafa"/>
      <path id="Path_13314" data-name="Path 13314" d="M430.921,158H413.385L328.42,485.939h17.536Z" transform="translate(-241.533 -132.832)" fill="#fafafa"/>
      <path id="Path_13315" data-name="Path 13315" d="M431.487,363.014,393.357,218.8a14.992,14.992,0,0,0-18.293-10.647l-90.21,23.839L272.82,420.438l148.02-39.117A15.021,15.021,0,0,0,431.487,363.014Z" transform="translate(-265.395 -111.522)" fill="#f0f0f0"/>
      <ellipse id="Ellipse_848" data-name="Ellipse 848" cx="11.548" cy="10.805" rx="11.548" ry="10.805" transform="matrix(0.719, -0.695, 0.695, 0.719, 86.19, 370.017)" fill="#fff" opacity="0.2"/>
      <path id="Path_13316" data-name="Path 13316" d="M361.4,151.926a5.016,5.016,0,0,1-4.931,4.616,4.288,4.288,0,0,1-4.288-4.616,5,5,0,0,1,4.931-4.616,4.288,4.288,0,0,1,4.288,4.616Z" transform="translate(-231.339 -137.42)" fill="#fff" opacity="0.2"/>
      <path id="Path_13317" data-name="Path 13317" d="M358.7,151.3a2.744,2.744,0,0,1-2.7,2.544,2.344,2.344,0,0,1-2.372-2.544,2.744,2.744,0,0,1,2.7-2.544A2.344,2.344,0,0,1,358.7,151.3Z" transform="translate(-230.72 -136.798)" fill="#fff" opacity="0.2"/>
    </g>
    <g id="freepik--Character--inject-56" transform="translate(110.901 114.733)">
      <path id="Path_13318" data-name="Path 13318" d="M186.118,148.072c5.331-13.106,3.416-29.069-11.7-32.642a22.024,22.024,0,0,0-27.5,22.281c.6,14.292,10,26.2-6.474,36.558s-14.721,41.589,17.15,35.558S172.24,187.4,172.24,187.4s-7.818,6.374-10.333-.114C158.72,178.885,179.944,163.407,186.118,148.072Z" transform="translate(-79.112 -114.733)" fill="#263238"/>
      <path id="Path_13319" data-name="Path 13319" d="M130.29,186.47l-.7-.157c2.129-9.533,5.474-11.991,9-14.592s6.874-5.074,9.575-14.449c1.272-4.416.472-9.3-.314-14.02-1-6.017-2.029-12.248,1.072-17.822l.615.357c-2.973,5.345-1.958,11.433-.986,17.35.8,4.8,1.629,9.761.3,14.292-2.758,9.6-6.36,12.248-9.833,14.821S132.363,177.209,130.29,186.47Z" transform="translate(-79.365 -110.142)" fill="#263238"/>
      <path id="Path_13320" data-name="Path 13320" d="M201.514,188.43c.1.486.272,1.215.429,1.872l.5,2.015c.343,1.358.729,2.715,1.129,4.073.815,2.7,1.686,5.431,2.63,8.118a171.5,171.5,0,0,0,6.46,15.907l1.8,3.759a5.717,5.717,0,0,0,1.272,1.786,11.777,11.777,0,0,0,5.559,2.458,50.551,50.551,0,0,0,16.135,0l1.929,6.074a45.5,45.5,0,0,1-4.53,1.715,46.743,46.743,0,0,1-4.659,1.286,37.66,37.66,0,0,1-10,.929,21.266,21.266,0,0,1-11.1-3.5,16.178,16.178,0,0,1-4.6-4.888l-.229-.357-.143-.243-.286-.514-.586-1-1.158-2.029A140.645,140.645,0,0,1,194.2,209c-1.086-2.858-2.158-5.845-3.03-8.861-.429-1.429-.858-3.016-1.243-4.559s-.729-3-1.043-4.831Z" transform="translate(-53.919 -83.103)" fill="#ffc3bd"/>
      <path id="Path_13321" data-name="Path 13321" d="M193.46,174.715c14.42,6.431,14.292,28.04,14.292,28.04l-15.192,9.132s-11.433-16.921-10.576-24.61C182.827,179.26,185.285,171.1,193.46,174.715Z" transform="translate(-56.899 -89.368)" fill="#58aaff"/>
      <path id="Path_13322" data-name="Path 13322" d="M194.77,187.8c-3.945-3.987-7.417.615-10.59,5.717a111.243,111.243,0,0,0,7.417,13.048l6.231-3.744C199.058,198.065,198.7,191.805,194.77,187.8Z" transform="translate(-55.937 -84.021)" opacity="0.2"/>
      <path id="Path_13323" data-name="Path 13323" d="M222.508,218.309l10.147-5.059.114,13.277s-7.575,1.315-12.62-4Z" transform="translate(-40.499 -72.451)" fill="#ffc3bd"/>
      <path id="Path_13324" data-name="Path 13324" d="M239.8,215.608l-1.744,9.861-9.047,1.058L228.9,213.25Z" transform="translate(-36.744 -72.451)" fill="#ffc3bd"/>
      <path id="Path_13325" data-name="Path 13325" d="M156.81,417.628l12.548,1.2,5.845-29.2-12.548-1.2Z" transform="translate(-67.683 2.732)" fill="#ffc3bd"/>
      <path id="Path_13326" data-name="Path 13326" d="M99.24,392.163l10.2,7.432,17.022-24.153-10.219-7.432Z" transform="translate(-92.391 -6.032)" fill="#ffc3bd"/>
      <path id="Path_13327" data-name="Path 13327" d="M115.246,390.445l-8.4-11.5a1,1,0,0,0-1.3-.315l-10.076,5.345a2.044,2.044,0,0,0-.615,2.987c3,3.959,4.645,5.717,8.346,10.79,2.287,3.116,6.86,10.333,10,14.635s7.56,1.429,6.646-.643c-4.145-9.3-4.288-14.749-3.973-19.108a3.259,3.259,0,0,0-.629-2.187Z" transform="translate(-94.448 -1.527)" fill="#263238"/>
      <path id="Path_13328" data-name="Path 13328" d="M172.634,407.051H157.571a1.229,1.229,0,0,0-1.186.915l-3.273,11.876a1.872,1.872,0,0,0,1.829,2.387h34.7c5.5,0,6.646-5.56,4.373-6.074-10.2-2.258-16.093-5.374-19.251-8.346a3.087,3.087,0,0,0-2.129-.758Z" transform="translate(-69.301 10.723)" fill="#263238"/>
      <path id="Path_13329" data-name="Path 13329" d="M174.427,389.641l-3.016,15.049H158.62l3.259-16.25Z" transform="translate(-66.906 2.736)" opacity="0.2"/>
      <path id="Path_13330" data-name="Path 13330" d="M113.775,368.01l10.219,7.446L115.219,387.9,105,380.458Z" transform="translate(-89.919 -6.032)" opacity="0.2"/>
      <path id="Path_13331" data-name="Path 13331" d="M214.006,187.637c-.886,9.647-4.087,28.584-13.449,65.585l-51.365-4.445c2.472-19.28,3.63-31.771-1.2-68.272a8.875,8.875,0,0,1,8.261-10c3.7-.2,8.1-.329,12.52-.157a164.511,164.511,0,0,1,23.324,2.015c4.53.815,9.361,1.987,13.291,3.016A11.6,11.6,0,0,1,214.006,187.637Z" transform="translate(-71.499 -90.9)" fill="#58aaff"/>
      <path id="Path_13332" data-name="Path 13332" d="M148.89,186.18c.657,5.717,1.143,10.819,1.429,15.392,4.731-.414,8.218-5.6,8.575-16.45C157.122,179.877,152.906,181.778,148.89,186.18Z" transform="translate(-71.082 -85.884)" opacity="0.2"/>
      <path id="Path_13333" data-name="Path 13333" d="M197.132,229.271s17.379,76.89,5.717,131.1C195.088,396.671,177.809,470,177.809,470l-21.909-.557s10.462-76.961,14.849-107.188c7.5-51.765-11.29-136.186-11.29-136.186Z" transform="translate(-68.074 -66.949)" fill="#263238"/>
      <path id="Path_13334" data-name="Path 13334" d="M174.022,239.18,163.06,256.459a530.085,530.085,0,0,1,6.274,61.883C184.741,290.759,177.438,253.772,174.022,239.18Z" transform="translate(-65.001 -61.323)" opacity="0.2"/>
      <path id="Path_13335" data-name="Path 13335" d="M181.559,400.254l-27.069-.686,1.572-8.318,27.612,1.3Z" transform="translate(-68.679 3.942)" fill="#58aaff"/>
      <path id="Path_13336" data-name="Path 13336" d="M207.263,228.83s-10.19,81.535-32.3,126.053c-17.85,35.958-55.195,93.111-55.195,93.111L106.12,437.061s23.353-63.213,36.616-87.094c32.542-58.6,5.945-103.258,24.4-124.767Z" transform="translate(-89.438 -67.322)" fill="#263238"/>
      <rect id="Rectangle_3934" data-name="Rectangle 3934" width="293.453" height="179.119" rx="10.48" transform="translate(74.831 196.818) rotate(-22.79)" fill="#58aaff"/>
      <rect id="Rectangle_3935" data-name="Rectangle 3935" width="293.453" height="179.119" rx="10.48" transform="translate(74.831 196.818) rotate(-22.79)" opacity="0.1"/>
      <rect id="Rectangle_3936" data-name="Rectangle 3936" width="65.999" height="40.289" rx="5.04" transform="translate(101.443 207.669) rotate(-22.79)" fill="#fff" opacity="0.2"/>
      <rect id="Rectangle_3937" data-name="Rectangle 3937" width="55.952" height="14.535" rx="1.89" transform="translate(139.931 299.845) rotate(-22.79)" fill="#fff" opacity="0.4"/>
      <rect id="Rectangle_3938" data-name="Rectangle 3938" width="55.952" height="14.535" rx="1.89" transform="translate(200.565 274.377) rotate(-22.79)" fill="#fff" opacity="0.4"/>
      <rect id="Rectangle_3939" data-name="Rectangle 3939" width="55.952" height="14.535" rx="1.89" transform="translate(261.184 248.909) rotate(-22.79)" fill="#fff" opacity="0.4"/>
      <rect id="Rectangle_3940" data-name="Rectangle 3940" width="55.952" height="14.535" rx="1.89" transform="translate(321.818 223.44) rotate(-22.79)" fill="#fff" opacity="0.4"/>
      <g id="Group_12779" data-name="Group 12779" transform="translate(271.487 111.757)" opacity="0.6">
        <circle id="Ellipse_849" data-name="Ellipse 849" cx="20.151" cy="20.151" r="20.151" transform="translate(28.396 9.251) rotate(-13.27)" fill="#263238"/>
        <circle id="Ellipse_850" data-name="Ellipse 850" cx="20.151" cy="20.151" r="20.151" transform="matrix(0.6, -0.8, 0.8, 0.6, 0, 38.487)" fill="#fff"/>
      </g>
      <path id="Path_13337" data-name="Path 13337" d="M121.927,388.438,104.42,375.189l4.3-7.689,18.608,14.435Z" transform="translate(-90.168 -6.251)" fill="#58aaff"/>
      <path id="Path_13338" data-name="Path 13338" d="M149.283,223.148l-2.715,4.4c-.214.329.186.743.772.786L201.219,233c.457,0,.858-.157.915-.443l.858-4.559c.071-.314-.314-.615-.815-.657l-52.022-4.5A.958.958,0,0,0,149.283,223.148Z" transform="translate(-72.104 -68.343)" fill="#58aaff"/>
      <path id="Path_13339" data-name="Path 13339" d="M149.283,223.148l-2.715,4.4c-.214.329.186.743.772.786L201.219,233c.457,0,.858-.157.915-.443l.858-4.559c.071-.314-.314-.615-.815-.657l-52.022-4.5A.958.958,0,0,0,149.283,223.148Z" transform="translate(-72.104 -68.343)" opacity="0.5"/>
      <path id="Path_13340" data-name="Path 13340" d="M153.563,229.541l-1.429-.114c-.272,0-.472-.186-.443-.357l1.172-5.917c0-.186.286-.3.572-.272l1.429.114c.286,0,.486.186.443.357l-1.172,5.917A.546.546,0,0,1,153.563,229.541Z" transform="translate(-69.881 -68.319)" fill="#58aaff"/>
      <path id="Path_13341" data-name="Path 13341" d="M182.563,232.054l-1.429-.114c-.272,0-.472-.186-.443-.357l1.172-5.917a.514.514,0,0,1,.572-.272l1.429.114c.286,0,.486.186.443.357l-1.172,5.917C183.12,231.982,182.863,232.082,182.563,232.054Z" transform="translate(-57.435 -67.245)" fill="#58aaff"/>
      <path id="Path_13342" data-name="Path 13342" d="M168.064,230.805l-1.429-.129c-.286,0-.486-.186-.443-.357l1.172-5.917c0-.171.286-.3.557-.272l1.429.129c.272,0,.472.186.443.357l-1.172,5.917C168.593,230.705,168.35,230.82,168.064,230.805Z" transform="translate(-63.659 -67.783)" fill="#58aaff"/>
      <path id="Path_13343" data-name="Path 13343" d="M112.463,392.756a1.427,1.427,0,0,1-.486,0c-1.558-.314-2.858-2.958-3.544-4.5a.243.243,0,0,1,0-.272.214.214,0,0,1,.257,0c.486.172,4.745,1.815,5.074,3.373a.929.929,0,0,1-.314.929,1.758,1.758,0,0,1-.986.472Zm-3.33-4.173c.972,2.129,2.058,3.487,2.944,3.659a1.2,1.2,0,0,0,1.086-.4.457.457,0,0,0,.172-.472c-.2-.958-2.73-2.187-4.2-2.787Z" transform="translate(-88.463 2.522)" fill="#58aaff"/>
      <path id="Path_13344" data-name="Path 13344" d="M112.584,389.352a8.918,8.918,0,0,1-4.03-.429.251.251,0,0,1-.043-.429c.129-.086,3.073-2.229,4.845-1.829a1.515,1.515,0,0,1,1.043.757,1.015,1.015,0,0,1,0,1.258A2.859,2.859,0,0,1,112.584,389.352Zm-3.33-.758c1.429.414,4.1.443,4.759-.286.114-.114.214-.3,0-.672a1,1,0,0,0-.7-.515C112.112,386.879,110.054,388.066,109.254,388.594Z" transform="translate(-88.456 1.953)" fill="#58aaff"/>
      <path id="Path_13345" data-name="Path 13345" d="M172.712,409.678a20.982,20.982,0,0,1-4.116-.514.257.257,0,0,1,0-.472c.629-.3,6.088-2.858,7.46-1.887a.786.786,0,0,1,.357.772,1.786,1.786,0,0,1-.743,1.429,4.859,4.859,0,0,1-2.958.672Zm-3.259-.858c1.629.3,4.631.7,5.86-.229a1.429,1.429,0,0,0,.543-1.043c0-.2,0-.286-.129-.329C174.956,406.691,171.726,407.821,169.454,408.821Z" transform="translate(-62.691 10.525)" fill="#58aaff"/>
      <path id="Path_13346" data-name="Path 13346" d="M168.665,410.056a.215.215,0,0,1-.157,0,.229.229,0,0,1-.086-.243c0-.243,1.286-5.631,4.288-5.288.743.1.943.457.986.758.186,1.429-3.259,4.145-4.916,4.816Zm3.744-5.1c-1.9,0-3,3.144-3.373,4.4,1.786-.943,4.288-3.187,4.13-4.059,0-.071,0-.272-.557-.329Z" transform="translate(-62.703 9.633)" fill="#58aaff"/>
      <path id="Path_13347" data-name="Path 13347" d="M161.064,187.476l-.757,1.072-.829,1.215c-.557.829-1.115,1.672-1.644,2.544-1.086,1.715-2.072,3.5-3.073,5.288a93.834,93.834,0,0,0-5.2,11.133,95.326,95.326,0,0,0-3.759,11.648l-.672,2.858c0-.086-.086.214.071.757a16.078,16.078,0,0,0,2.129,4.288,70.034,70.034,0,0,0,7.746,9.3c2.858,3.03,6.031,5.96,9.19,8.875s6.474,5.717,9.79,8.475,6.7,5.545,10,8.232l-3.573,5.274a234.966,234.966,0,0,1-22.138-14.892c-3.573-2.687-7.074-5.517-10.462-8.575a72.8,72.8,0,0,1-9.676-10.3,25.3,25.3,0,0,1-4-7.3,13.105,13.105,0,0,1-.615-5.717v-.615l.071-.429.143-.872.3-1.729a93.639,93.639,0,0,1,3.544-13.563,107.192,107.192,0,0,1,5.559-12.863c1.072-2.087,2.244-4.1,3.5-6.088.615-1,1.258-1.987,1.929-2.973l1.058-1.429c.372-.5.686-.943,1.186-1.558Z" transform="translate(-77.683 -86.923)" fill="#ffc3bd"/>
      <path id="Path_13348" data-name="Path 13348" d="M157.685,171.117c-9.8,2.573-19.265,26.34-19.265,26.34l12.691,11.6s19.937-18.179,19.265-26.383C169.819,175.7,165.56,169.03,157.685,171.117Z" transform="translate(-75.576 -90.701)" fill="#58aaff"/>
      <path id="Path_13349" data-name="Path 13349" d="M164.156,170a24.955,24.955,0,0,1-5.459.5c-.386,7.06,4.145,13.877,15.278,23.024,2.673-8.332,8.575-10.133,8.575-10.133Z" transform="translate(-66.883 -91.013)" opacity="0.2"/>
      <path id="Path_13350" data-name="Path 13350" d="M180.324,171.57s1.3.186,4.4.9c2.072,3.187,4.759,13.006-1.343,20.008-2.372-8.575-8.032-9.661-8.032-9.661Z" transform="translate(-59.726 -90.339)" opacity="0.2"/>
      <path id="Path_13351" data-name="Path 13351" d="M164.523,170h-6.346c-2.072,3.187,5.059,12.019,16.178,21.166,2.673-8.332,8.575-7.832,8.575-7.832Z" transform="translate(-67.25 -91.013)" fill="#fff"/>
      <path id="Path_13352" data-name="Path 13352" d="M180.324,171.57s1.3.186,4.4.9c2.072,3.187,6.546,11.819.443,18.765-2.372-8.575-9.818-8.461-9.818-8.461Z" transform="translate(-59.726 -90.339)" fill="#fff"/>
      <path id="Path_13353" data-name="Path 13353" d="M167.1,152.05c.829,7.632,1.1,21.438-4.588,26.068,0,0,2.958,8.575,18.351,13.034,9.261-5.345,4.974-11.019,4.974-11.019-8.189-2.715-7.432-8.9-5.474-14.62Z" transform="translate(-65.237 -98.717)" fill="#ffc3bd"/>
      <path id="Path_13354" data-name="Path 13354" d="M169.8,155.9l7.86,7.961a23.871,23.871,0,0,0-1.086,4.073c-3.158-.729-7.732-4.016-7.775-7.389A13.592,13.592,0,0,1,169.8,155.9Z" transform="translate(-62.537 -97.064)" opacity="0.2"/>
      <path id="Path_13355" data-name="Path 13355" d="M178.413,130.994c2.5-2.758,7.46.757,9.29,7.517,2.744,10-4.573,10.719-8.4,5.717S176.327,133.295,178.413,130.994Z" transform="translate(-59.174 -108.159)" fill="#263238"/>
      <path id="Path_13356" data-name="Path 13356" d="M183.3,143.118a27.884,27.884,0,0,1,7.046,3.63C189.1,143.718,187.988,141.875,183.3,143.118Z" transform="translate(-56.314 -102.719)" fill="#263238"/>
      <path id="Path_13357" data-name="Path 13357" d="M184.31,143.859a22,22,0,0,1,6.174-.343C188.455,141.958,186.983,141.187,184.31,143.859Z" transform="translate(-55.881 -102.988)" fill="#263238"/>
      <path id="Path_13358" data-name="Path 13358" d="M161.188,150.238c3.187,12.191,4.288,17.422,11.748,22.524,11.248,7.689,25.525,1.115,26.054-11.791.472-11.6-4.816-29.584-17.865-32.128a17.15,17.15,0,0,0-19.937,21.395Z" transform="translate(-66.073 -108.824)" fill="#ffc3bd"/>
      <path id="Path_13359" data-name="Path 13359" d="M169.386,135.471l-3.53,4.1a6.117,6.117,0,0,1-8.575.629h0a6.117,6.117,0,0,1-.643-8.575l3.53-4.087a6.131,6.131,0,0,1,8.575-.643h0a6.131,6.131,0,0,1,.643,8.575Z" transform="translate(-68.382 -110.135)" fill="#fff"/>
      <path id="Path_13360" data-name="Path 13360" d="M171.89,139.874l-4.288,2.144a7.417,7.417,0,0,1-9.9-3.359h0a7.432,7.432,0,0,1,3.359-9.919l4.288-2.144a7.432,7.432,0,0,1,9.918,3.373h0A7.417,7.417,0,0,1,171.89,139.874Z" transform="translate(-67.628 -109.965)" fill="#58aaff"/>
      <path id="Path_13361" data-name="Path 13361" d="M166.838,160.5s8.8-2.015,5.059-14.892a3.373,3.373,0,0,1,3.173-4.288c9.919-.272,19.194-2.344,17.879-8.089-1.644-7.26-26.354-12.863-30.842,1.672C153.346,136.949,153.017,154.213,166.838,160.5Z" transform="translate(-68.064 -109.969)" fill="#263238"/>
      <path id="Path_13362" data-name="Path 13362" d="M163.59,148.424a27.883,27.883,0,0,1,7.046,3.63C169.392,149.052,168.278,147.209,163.59,148.424Z" transform="translate(-64.773 -100.436)" fill="#263238"/>
      <path id="Path_13363" data-name="Path 13363" d="M164.6,149.184a22,22,0,0,1,6.174-.343C168.759,147.312,167.287,146.526,164.6,149.184Z" transform="translate(-64.34 -100.696)" fill="#263238"/>
      <path id="Path_13364" data-name="Path 13364" d="M159.781,152.3a9.218,9.218,0,0,0,5.417,4.488c3.1.929,4.7-1.815,3.9-4.773-.729-2.658-3.216-6.331-6.346-5.974a4.145,4.145,0,0,0-2.973,6.26Z" transform="translate(-66.667 -101.308)" fill="#ffc3bd"/>
      <path id="Path_13365" data-name="Path 13365" d="M175.476,144.043c.2,1,.9,1.715,1.544,1.586s1.029-1.058.843-2.058-.9-1.715-1.558-1.586S175.276,143.028,175.476,144.043Z" transform="translate(-59.695 -103.043)" fill="#263238"/>
      <path id="Path_13366" data-name="Path 13366" d="M183.426,142.468c.2,1.015.886,1.715,1.544,1.586s1.029-1.043.829-2.044-.886-1.715-1.544-1.586S183.226,141.468,183.426,142.468Z" transform="translate(-56.283 -103.713)" fill="#263238"/>
      <path id="Path_13367" data-name="Path 13367" d="M183.8,140.852l2.272-1.172S185.2,141.809,183.8,140.852Z" transform="translate(-56.1 -104.026)" fill="#263238"/>
      <path id="Path_13368" data-name="Path 13368" d="M180.68,143.61a27.355,27.355,0,0,0,4.845,5.717,4.4,4.4,0,0,1-3.459,1.429Z" transform="translate(-57.439 -102.339)" fill="#ed847e"/>
      <path id="Path_13369" data-name="Path 13369" d="M180.138,152.706a8.289,8.289,0,0,1-5.717-2.187.253.253,0,0,1,.357-.357,8.146,8.146,0,0,0,7.146,1.844.247.247,0,0,1,.086.486,8.8,8.8,0,0,1-1.872.214Z" transform="translate(-60.156 -99.558)" fill="#263238"/>
      <path id="Path_13370" data-name="Path 13370" d="M170.84,141.776a.585.585,0,0,1-.257-.071.5.5,0,0,1-.171-.686,5.845,5.845,0,0,1,4.53-2.858.515.515,0,0,1,.514.486.5.5,0,0,1-.486.514,4.859,4.859,0,0,0-3.7,2.444A.5.5,0,0,1,170.84,141.776Z" transform="translate(-61.876 -104.678)" fill="#263238"/>
      <path id="Path_13371" data-name="Path 13371" d="M187.262,138.4a.471.471,0,0,1-.243,0,4.931,4.931,0,0,0-4.445-.286.537.537,0,1,1-.486-.958,5.831,5.831,0,0,1,5.388.3.486.486,0,0,1,.186.672.472.472,0,0,1-.4.272Z" transform="translate(-56.96 -105.332)" fill="#263238"/>
      <path id="Path_13372" data-name="Path 13372" d="M166.709,236.56l11.433.8-5.159,12.219s-9.547-3.016-9.933-10Z" transform="translate(-65.005 -62.447)" fill="#ffc3bd"/>
      <path id="Path_13373" data-name="Path 13373" d="M179.543,244.037l-5.531,8.346-4-3.044L175.2,237.12Z" transform="translate(-62.018 -62.207)" fill="#ffc3bd"/>
      <path id="Path_13374" data-name="Path 13374" d="M175.85,142.412l2.272-1.172S177.251,143.369,175.85,142.412Z" transform="translate(-59.512 -103.356)" fill="#263238"/>
    </g>
  </g>
</svg>
