<svg xmlns="http://www.w3.org/2000/svg" width="89.286" height="89" viewBox="0 0 89.286 89">
  <g id="sketch" transform="translate(0 -0.82)">
    <g id="Group_7206" data-name="Group 7206" transform="translate(62.87 63.587)">
      <g id="Group_7205" data-name="Group 7205">
        <path id="Path_8415" data-name="Path 8415" d="M376.651,360.849a1.31,1.31,0,0,0-1.428.284L360.9,375.455a1.311,1.311,0,0,0,.927,2.237H376.15a1.31,1.31,0,0,0,1.311-1.311V362.06A1.311,1.311,0,0,0,376.651,360.849Zm-11.66,14.222,9.848-9.848v9.848Z" transform="translate(-360.517 -360.749)" fill="#007bff"/>
      </g>
    </g>
    <g id="Group_7208" data-name="Group 7208" transform="translate(0 0.82)">
      <g id="Group_7207" data-name="Group 7207">
        <path id="Path_8416" data-name="Path 8416" d="M88.477,42.681a1.31,1.31,0,0,0-1.428.284L83.124,46.89V20.2a1.31,1.31,0,0,0-1.311-1.311H71.744L75.4,15.238l0,0,3.522-3.522a4,4,0,0,0,0-5.651L74.85,1.99a4,4,0,0,0-5.651,0L65.676,5.514,61.418,9.772,52.3,18.893H11.618V5.928a1.311,1.311,0,0,0-1.311-1.311A10.319,10.319,0,0,0,0,14.925V70.587a1.314,1.314,0,0,0,.031.282,9.926,9.926,0,0,0,9.9,9.172H49.973l-7.542,7.542a1.311,1.311,0,0,0,.927,2.237H87.976a1.311,1.311,0,0,0,1.311-1.311V43.892A1.311,1.311,0,0,0,88.477,42.681ZM71.053,3.844a1.376,1.376,0,0,1,1.944,0L77.07,7.917a1.376,1.376,0,0,1,0,1.944l-2.6,2.6L68.456,6.441ZM66.6,8.294l6.017,6.017-2.4,2.4L64.2,10.7ZM86.666,58.618H84.248a1.311,1.311,0,0,0,0,2.621h2.418v3.949H84.248a1.311,1.311,0,0,0,0,2.621h2.418v3.949H84.248a1.311,1.311,0,0,0,0,2.621h2.418v3.949H84.248a1.311,1.311,0,0,0,0,2.621h2.418V87.2H46.522L59.759,73.962a1.311,1.311,0,0,0-1.854-1.853L52.594,77.42H9.928a7.265,7.265,0,0,1-7.3-7.071q.011-.374.058-.74v0q.022-.174.052-.346l.007-.039q.027-.154.061-.306c.006-.028.013-.056.02-.085q.03-.129.064-.256c.013-.046.026-.092.039-.137.019-.067.039-.133.06-.2s.044-.131.066-.2c.016-.046.032-.091.049-.136.032-.086.066-.171.1-.255l.03-.073c.045-.1.091-.208.141-.31l.006-.013A7.715,7.715,0,0,1,8.744,63.06l.02,0c.108-.022.218-.041.328-.059l.055-.009c.1-.015.2-.027.3-.038l.085-.01c.1-.01.2-.016.293-.022l.093-.007q.193-.01.388-.01a1.311,1.311,0,0,0,1.311-1.311v-9.5a1.311,1.311,0,0,0-2.621,0v8.274A10.236,10.236,0,0,0,3.11,63.21c-.17.166-.332.339-.489.515v-48.8A7.7,7.7,0,0,1,9,7.35v39.5H9a1.311,1.311,0,0,0,2.621,0h0V21.514H49.676l-7.245,7.245a1.31,1.31,0,1,0,1.853,1.853l9.482-9.482h0l8.577-8.577,6.017,6.017-.706.706,0,0L41.229,45.7l-6.017-6.017,5.209-5.209a1.31,1.31,0,0,0-1.853-1.853l-6.135,6.135a1.317,1.317,0,0,0-.092.1c-.01.012-.018.025-.027.037s-.037.049-.054.075-.018.03-.027.046-.028.049-.041.074-.016.033-.024.05-.022.052-.032.078c0,.009-.008.018-.011.027L29.57,46.481l-1.741,4.931a1.325,1.325,0,0,0-.052.2H23.419a1.311,1.311,0,0,0,0,2.621H59.711a1.311,1.311,0,1,0,0-2.621H33.673l7.992-2.821.02-.008c.031-.012.062-.024.092-.038l.036-.017c.031-.016.062-.033.093-.051l.029-.017c.032-.02.062-.042.092-.066l.023-.017a1.314,1.314,0,0,0,.106-.095L69.123,21.514H80.5v28L61.757,68.257a1.31,1.31,0,0,0,0,1.853,1.331,1.331,0,0,0,.1.09,1.31,1.31,0,0,0,1.754-.09h0L86.666,47.055ZM38.832,47.011l-3.754,1.325-2.5-2.5L33.9,42.081Z" transform="translate(0 -0.82)" fill="#007bff"/>
      </g>
    </g>
  </g>
</svg>
