<svg id="User_03C" data-name="User 03C" xmlns="http://www.w3.org/2000/svg" xmlns:xlink="http://www.w3.org/1999/xlink" width="137" height="137" viewBox="0 0 137 137">
  <defs>
    <linearGradient id="linear-gradient" x1="0.5" x2="0.5" y2="1" gradientUnits="objectBoundingBox">
      <stop offset="0" stop-color="#806a6a"/>
      <stop offset="1" stop-color="#665654"/>
    </linearGradient>
    <linearGradient id="linear-gradient-2" x1="0.5" x2="0.5" y2="1" gradientUnits="objectBoundingBox">
      <stop offset="0" stop-color="#e6864e"/>
      <stop offset="1" stop-color="#eb965e"/>
    </linearGradient>
    <clipPath id="clip-path">
      <circle id="Mask" cx="68.5" cy="68.5" r="68.5" fill="url(#linear-gradient)"/>
    </clipPath>
    <linearGradient id="linear-gradient-3" x1="0.5" x2="0.5" y2="1" gradientUnits="objectBoundingBox">
      <stop offset="0" stop-color="#1d0024"/>
      <stop offset="1" stop-color="#100014"/>
    </linearGradient>
    <clipPath id="clip-path-2">
      <path id="Mask-2" data-name="Mask" d="M8.466,52.517c0-4.11-.14-24.382-.133-24.725-11.284,1.663-11.055-19.8.361-14.548,2.512,1.6,9.59,0,8.9-13.243C29.93,13.243,44.245-2.2,45.472,10.384c1.676,17.187-.01,35.173-10.691,35.174A20.017,20.017,0,0,1,31.3,45.21v7.307c0,4.567,8.22,6.85,8.22,6.85s-14.2,13.378-20.093,13.306S.246,59.367.246,59.367,8.466,57.083,8.466,52.517Z" fill="url(#linear-gradient-2)"/>
    </clipPath>
    <linearGradient id="linear-gradient-5" x1="0.189" y1="0.188" x2="0.536" y2="1.089" gradientUnits="objectBoundingBox">
      <stop offset="0" stop-color="#e68349"/>
      <stop offset="1" stop-color="#f09960"/>
    </linearGradient>
    <clipPath id="clip-path-3">
      <path id="Mask-3" data-name="Mask" d="M89.05,15.983c3.313,7.362,5.023,29.683,5.023,29.683H0S1.71,23.346,5.023,15.983C7.926,9.534,27.052,2.129,32.658,0,35.9,3.62,40.532,5.937,47.037,5.937S58.178,3.62,61.416,0C67.021,2.129,86.148,9.534,89.05,15.983Z" fill="#007bff"/>
    </clipPath>
    <linearGradient id="linear-gradient-6" x1="0.5" y1="1" x2="0.5" gradientUnits="objectBoundingBox">
      <stop offset="0" stop-color="#fcf2eb"/>
      <stop offset="1" stop-color="#fff9f5"/>
    </linearGradient>
  </defs>
  <circle id="Mask-4" data-name="Mask" cx="68.5" cy="68.5" r="68.5" fill="#97caff"/>
  <g id="User_03C-2" data-name="User 03C" clip-path="url(#clip-path)">
    <g id="Group_7" data-name="Group 7" transform="translate(15.067 14.613)">
      <path id="Combined_Shape" data-name="Combined Shape" d="M41.218,79.418c3.724-6.713,12.36-19.633,33.355-38.1C106.253,13.457,74.613-9.9,42,4.271,38.509,5.787,28.511.556,19.635,6.747c-5.725,3.994-3.341,6.883-5.518,9.932S3.14,19.862,1.484,27.64C.5,32.248,3.828,36.922,3.526,40.375S0,47.043,0,51.587A14.616,14.616,0,0,0,14.6,66.214,14.7,14.7,0,0,0,29.254,80.337a14.523,14.523,0,0,0,6.961-1.765C38.442,80.484,40.316,81.044,41.218,79.418Z" transform="matrix(0.999, 0.035, -0.035, 0.999, 2.805, 0)" fill="url(#linear-gradient-3)"/>
      <g id="Group_6" data-name="Group 6" transform="translate(33.549 21.463)">
        <path id="Mask-5" data-name="Mask" d="M8.466,52.517c0-4.11-.14-24.382-.133-24.725-11.284,1.663-11.055-19.8.361-14.548,2.512,1.6,9.59,0,8.9-13.243C29.93,13.243,44.245-2.2,45.472,10.384c1.676,17.187-.01,35.173-10.691,35.174A20.017,20.017,0,0,1,31.3,45.21v7.307c0,4.567,8.22,6.85,8.22,6.85s-14.2,13.378-20.093,13.306S.246,59.367.246,59.367,8.466,57.083,8.466,52.517Z" transform="translate(0 0)" fill="url(#linear-gradient-2)"/>
        <g id="Group_6-2" data-name="Group 6" transform="translate(0 0)" clip-path="url(#clip-path-2)">
          <path id="Path_2" data-name="Path 2" d="M16.047,6.34A44.971,44.971,0,0,1,0,0,20.686,20.686,0,0,0,16.193,10.9Z" transform="matrix(0.999, 0.035, -0.035, 0.999, 15.484, 38.314)" opacity="0.7" fill="url(#linear-gradient-5)" style="mix-blend-mode: multiply;isolation: isolate"/>
        </g>
      </g>
      <g id="Combined_Shape-2" data-name="Combined Shape" transform="translate(5.966 78.547)">
        <g id="Combined_Shape-3" data-name="Combined Shape" transform="translate(0.429)">
          <path id="Mask-6" data-name="Mask" d="M89.05,15.983c3.313,7.362,5.023,29.683,5.023,29.683H0S1.71,23.346,5.023,15.983C7.926,9.534,27.052,2.129,32.658,0,35.9,3.62,40.532,5.937,47.037,5.937S58.178,3.62,61.416,0C67.021,2.129,86.148,9.534,89.05,15.983Z" fill="#007bff"/>
        </g>
        <path id="Rectangle" d="M4.633,13.1C7.118,8.374,15.3,3.414,22.861.072c3.772-1.667,15.075,46.215,15.075,46.215H.07S-.386,22.644,4.633,13.1Z" transform="translate(-0.06 3.033)" fill="url(#linear-gradient-6)"/>
      </g>
    </g>
  </g>
</svg>
