<svg xmlns="http://www.w3.org/2000/svg" width="103.856" height="100.425" viewBox="0 0 103.856 100.425">
  <g id="work_from_home" transform="translate(0.041 0.001)">
    <g id="work-from-home">
      <path id="Path_8366" data-name="Path 8366" d="M109.108,65.886a1.667,1.667,0,0,0,.99.324,1.707,1.707,0,0,0,.757-.18,1.677,1.677,0,0,0,.916-1.494V54.494a1.671,1.671,0,0,0-.684-1.349L60.875,16.322a1.67,1.67,0,0,0-1.979,0L8.684,53.144A1.671,1.671,0,0,0,8,54.494V64.536a1.672,1.672,0,0,0,2.663,1.349l7.379-5.41v52.6H9.674a1.674,1.674,0,1,0,0,3.347H110.1a1.674,1.674,0,1,0,0-3.347h-8.369v-52.6ZM98.381,113.074H21.39V58.019L59.89,29.79l38.5,28.229ZM60.875,26.365a1.672,1.672,0,0,0-1.979,0L11.347,61.233V55.341L59.885,19.747l48.538,35.594v5.892Z" transform="translate(-8 -15.998)" fill="#fff"/>
      <path id="Path_8367" data-name="Path 8367" d="M135.8,159a31.8,31.8,0,1,0,31.8,31.8A31.8,31.8,0,0,0,135.8,159Zm0,60.254A28.453,28.453,0,1,1,164.254,190.8,28.453,28.453,0,0,1,135.8,219.254Z" transform="translate(-83.915 -129.082)" fill="#fff"/>
      <path id="Path_8368" data-name="Path 8368" d="M193.843,229.021H183.8v-3.347A1.674,1.674,0,0,0,182.127,224H165.39a1.674,1.674,0,0,0-1.674,1.674v3.347H153.674A1.674,1.674,0,0,0,152,230.7v15.064a1.674,1.674,0,0,0,1.674,1.674v10.042a1.674,1.674,0,0,0,1.674,1.674H192.17a1.674,1.674,0,0,0,1.674-1.674V247.432a1.674,1.674,0,0,0,1.674-1.674V230.7a1.674,1.674,0,0,0-1.675-1.674Zm-26.78-1.674h13.39v1.674h-13.39ZM190.5,255.8H157.021v-8.369h11.716v3.347a1.674,1.674,0,0,0,1.674,1.674h6.7a1.674,1.674,0,0,0,1.674-1.674v-3.347H190.5Zm-18.411-6.7v-6.7h3.347v6.7Zm20.085-5.021H178.78v-3.347a1.674,1.674,0,0,0-1.674-1.674h-6.7a1.674,1.674,0,0,0-1.674,1.674v3.347h-13.39V232.369h36.822Z" transform="translate(-121.873 -180.483)" fill="#fff"/>
    </g>
  </g>
</svg>
