<svg xmlns="http://www.w3.org/2000/svg" width="246.623" height="220.754" viewBox="0 0 246.623 220.754">
  <g id="Work_time-rafiki" data-name="Work time-rafiki" transform="translate(-56.11 -80.456)">
    <g id="freepik--Shadow--inject-43" transform="translate(56.11 286.811)">
      <ellipse id="freepik--path--inject-43" cx="123.312" cy="7.199" rx="123.312" ry="7.199" fill="#f5f5f5"/>
    </g>
    <g id="freepik--Hourglass--inject-43" transform="translate(135.723 170.298)">
      <path id="Path_3333" data-name="Path 3333" d="M242.839,320.73s-46.739,27.6-46.739,53.741h93.49C289.584,348.326,242.839,320.73,242.839,320.73Z" transform="translate(-186.681 -257.761)" fill="#007bff" opacity="0.2"/>
      <path id="Path_3334" data-name="Path 3334" d="M244.888,372.5s-43.158,10.691-43.158,20.816h86.316C288.046,383.191,244.888,372.5,244.888,372.5Z" transform="translate(-188.73 -276.606)" fill="#007bff" opacity="0.2"/>
      <path id="Path_3335" data-name="Path 3335" d="M278.51,332.71c8.777,8.63,25.834,27.754,25.834,46.122h-11.7C292.648,360.465,283.312,341.34,278.51,332.71Z" transform="translate(-216.679 -262.122)" fill="#fff" opacity="0.3"/>
      <path id="Path_3336" data-name="Path 3336" d="M242.839,289.971S196.1,262.375,196.1,236.23h93.49C289.584,262.375,242.839,289.971,242.839,289.971Z" transform="translate(-186.681 -227.002)" fill="#007bff" opacity="0.2"/>
      <path id="Path_3337" data-name="Path 3337" d="M255.932,303.993S232.07,292.545,232.07,281.67H279.8C279.8,292.526,255.932,303.993,255.932,303.993Z" transform="translate(-199.775 -243.543)" fill="#007bff" opacity="0.2"/>
      <path id="Path_3338" data-name="Path 3338" d="M246.808,282.352C238.038,273.721,221,254.6,221,236.23h11.7C232.67,254.6,241.988,273.721,246.808,282.352Z" transform="translate(-195.745 -227.002)" fill="#fff" opacity="0.3"/>
      <path id="Path_3339" data-name="Path 3339" d="M278.51,282.352c8.777-8.63,25.408-29.968,25.834-46.122h-3.116C299.765,255.927,285.455,274,278.51,282.352Z" transform="translate(-216.679 -227.002)" fill="#fff" opacity="0.3"/>
      <rect id="Rectangle_148" data-name="Rectangle 148" width="5.298" height="0.636" transform="translate(91.258)" fill="#007bff"/>
      <path id="Path_3340" data-name="Path 3340" d="M353.192,230.458h-.636a8.109,8.109,0,0,0-8.1-8.1h-5.59v-.636h5.59A8.751,8.751,0,0,1,353.192,230.458Z" transform="translate(-238.651 -221.72)" fill="#007bff"/>
      <rect id="Rectangle_149" data-name="Rectangle 149" width="112.315" height="14.004" rx="7.002" transform="translate(0 2.226)" fill="#007bff"/>
      <rect id="Rectangle_150" data-name="Rectangle 150" width="112.315" height="14.004" rx="7.002" transform="translate(0 109.708)" fill="#007bff"/>
    </g>
    <g id="freepik--Character--inject-43" transform="translate(95.826 80.456)">
      <path id="Path_3341" data-name="Path 3341" d="M138.252,295.867l-4.312-3.829,7.352-11.289,4.312,3.822Z" transform="translate(-124.157 -153.366)" fill="#ff8b7b"/>
      <path id="Path_3342" data-name="Path 3342" d="M129.231,292.8l5.482,3.816a.42.42,0,0,1,.134.579l-2.747,4.528a1.056,1.056,0,0,1-1.456.273c-1.908-1.355-2.614-2.016-4.9-3.86a84.785,84.785,0,0,1-6.487-5.654c-1.692-1.755.1-3.453.992-2.849,2.118,1.437,5.8,3.021,7.931,2.894A1.654,1.654,0,0,1,129.231,292.8Z" transform="translate(-118.557 -156.552)" fill="#263238"/>
      <path id="Path_3343" data-name="Path 3343" d="M147.778,284.579l-4.312-3.829-3.536,5.438,4.42,3.67Z" transform="translate(-126.337 -153.366)" opacity="0.2"/>
      <path id="Path_3344" data-name="Path 3344" d="M191.889,198.006s-28.937-1.978-32.524,7.829c-8.16,22.3-18.774,45.95-18.774,45.95l8.529,6.175s18.03-27.57,23.532-45.27c11.13,2.7,31.252,5.012,37.733-2.429,5.533-6.36,1.393-12.255,1.393-12.255Z" transform="translate(-126.578 -123.186)" fill="#263238"/>
      <path id="Path_3345" data-name="Path 3345" d="M180.944,225.35c-.674,2.722-1.7,10.519-2.334,15.69,1.406-2.722,2.741-5.482,3.943-8.179Z" transform="translate(-140.417 -133.199)" opacity="0.3"/>
      <path id="Path_3346" data-name="Path 3346" d="M147.6,289.989l-9.673-7.581,1.978-4.248,10.812,8.261Z" transform="translate(-125.609 -152.423)" fill="#007bff"/>
      <path id="Path_3347" data-name="Path 3347" d="M131.263,293.121a7.784,7.784,0,0,0,1.425.731.14.14,0,0,0,.178-.178c-.083-.216-.808-2.118-1.565-2.3a.528.528,0,0,0-.49.14.776.776,0,0,0-.286.719A1.628,1.628,0,0,0,131.263,293.121Zm1.227.35c-1-.432-1.622-.909-1.692-1.272a.5.5,0,0,1,.2-.464.242.242,0,0,1,.235-.07C131.645,291.767,132.173,292.714,132.491,293.471Z" transform="translate(-122.911 -157.227)" fill="#007bff"/>
      <path id="Path_3348" data-name="Path 3348" d="M133.746,293.635a.114.114,0,0,0,.064,0,.146.146,0,0,0,.127-.051c.045-.051,1.126-1.38.967-2.2a.7.7,0,0,0-.375-.49.528.528,0,0,0-.636.057,3.063,3.063,0,0,0-.178,2.608A.172.172,0,0,0,133.746,293.635Zm.706-2.436a.413.413,0,0,1,.178.267c.1.483-.42,1.316-.757,1.774a2.817,2.817,0,0,1,.191-2.061c.064-.057.153-.114.337,0Z" transform="translate(-124.001 -157.029)" fill="#007bff"/>
      <path id="Path_3349" data-name="Path 3349" d="M196.725,307.118l-5.565,1.113-1.03-14.9,5.654.178Z" transform="translate(-144.611 -157.945)" fill="#ff8b7b"/>
      <path id="Path_3350" data-name="Path 3350" d="M185.6,312l6.36-2.677a.432.432,0,0,1,.585.21l2.43,4.884a1.094,1.094,0,0,1-.566,1.425c-2.226.9-3.333,1.208-6.125,2.391a79.29,79.29,0,0,1-8.84,3.441c-2.48.617-3.04-1.87-2.035-2.353,2.379-1.145,6.322-4.636,7.384-6.563A1.762,1.762,0,0,1,185.6,312Z" transform="translate(-139.808 -163.751)" fill="#263238"/>
      <path id="Path_3351" data-name="Path 3351" d="M187.115,315.7a7.8,7.8,0,0,0,1.418-.839.141.141,0,0,0-.057-.254c-.229-.051-2.29-.464-2.868.1a.528.528,0,0,0-.146.5.782.782,0,0,0,.464.636A1.666,1.666,0,0,0,187.115,315.7Zm.973-.878c-.922.636-1.679.909-2.054.763a.5.5,0,0,1-.293-.432.254.254,0,0,1,.064-.248C186.117,314.609,187.262,314.685,188.088,314.825Z" transform="translate(-142.906 -165.62)" fill="#007bff"/>
      <path id="Path_3352" data-name="Path 3352" d="M188.944,313.84A.2.2,0,0,0,189,313.8a.146.146,0,0,0,0-.134c0-.07-.585-1.749-1.386-2.061a.706.706,0,0,0-.636.057.534.534,0,0,0-.305.6c.127.636,1.469,1.495,2.175,1.59A.127.127,0,0,0,188.944,313.84Zm-1.736-1.965a.426.426,0,0,1,.331,0c.477.184.916,1.094,1.132,1.641-.636-.21-1.609-.865-1.692-1.31a.291.291,0,0,1,.172-.293Z" transform="translate(-143.348 -164.577)" fill="#007bff"/>
      <path id="Path_3353" data-name="Path 3353" d="M195.79,293.514l-5.66-.184.541,7.784,5.635-.1Z" transform="translate(-144.611 -157.945)" opacity="0.2"/>
      <path id="Path_3354" data-name="Path 3354" d="M220.519,198.1s-41.339,3.911-39.851,16.358c2.175,17.954,3.765,49.391,3.765,49.391l10.538.413s3.956-27.64,1.641-46.026c10.7,0,33.955.566,38.045-4.967,4.853-6.563,2.608-15.168,2.608-15.168Z" transform="translate(-141.152 -123.28)" fill="#263238"/>
      <path id="Path_3355" data-name="Path 3355" d="M197.511,299.641l-12.65-.63-.452-5.5,13.871.954Z" transform="translate(-142.529 -158.01)" fill="#007bff"/>
      <path id="Path_3356" data-name="Path 3356" d="M209.629,138.147c-.089,1.138-.191,2.15-.331,3.212s-.273,2.1-.439,3.148c-.305,2.092-.725,4.172-1.2,6.264a58.917,58.917,0,0,1-1.774,6.284,33.484,33.484,0,0,1-2.881,6.36,15.9,15.9,0,0,1-2.544,3.237,9.794,9.794,0,0,1-.82.687c-.261.216-.522.4-.789.585a16.228,16.228,0,0,1-1.584.986,30.794,30.794,0,0,1-6.36,2.588c-1.049.324-2.105.585-3.18.82s-2.1.439-3.18.6a51.162,51.162,0,0,1-6.36.636,2.175,2.175,0,0,1-.763-4.242l.083-.032a102.185,102.185,0,0,0,10.958-4.172,29.893,29.893,0,0,0,4.694-2.658c.337-.242.636-.49.941-.738.14-.121.286-.242.407-.369a3.594,3.594,0,0,0,.318-.324,8.725,8.725,0,0,0,1.081-1.66,27.35,27.35,0,0,0,1.851-4.891c.515-1.787.96-3.651,1.329-5.546s.7-3.816,1.011-5.762.547-3.93.763-5.775v-.108a4.369,4.369,0,0,1,8.688.865Z" transform="translate(-139.44 -99.776)" fill="#007bff"/>
      <path id="Path_3357" data-name="Path 3357" d="M178,188l-3.18.2,2.544,5.851s5.5-.121,5.387-2.83l-.992-1.272A5.177,5.177,0,0,0,178,188Z" transform="translate(-139.038 -119.603)" fill="#ff8b7b"/>
      <path id="Path_3358" data-name="Path 3358" d="M169.34,188.8l2.747,5.38h3.275l-2.544-5.851Z" transform="translate(-137.043 -119.724)" fill="#ff8b7b"/>
      <path id="Path_3359" data-name="Path 3359" d="M223.448,125.41l6.15-1.272,4.9-.706a9.082,9.082,0,0,1,2.118-.1,9.273,9.273,0,0,1,8.1,6.773c1.227,4.452,2.334,9.915,3.18,14.755,1.183,6.722,1.793,16.822,1.908,26.006H220.669c-.636-16.631-4.172-27.347-5.374-33.994a9.3,9.3,0,0,1,5.145-10.042Z" transform="translate(-153.717 -96.057)" fill="#007bff"/>
      <path id="Path_3360" data-name="Path 3360" d="M223.83,130.664c.07,2.735.636,12.484,3.568,18.024.515-5.19,6.678-20.988,6.678-20.988Z" transform="translate(-156.878 -97.653)" fill="#f5f5f5"/>
      <path id="Path_3361" data-name="Path 3361" d="M262.537,152.007h0a.857.857,0,0,0-.038-.305l-.057-.458c-.032-.248-.064-.5-.1-.731l-.1-.681-.1-.636a3.733,3.733,0,0,0-.083-.534c-.064-.407-.127-.8-.2-1.189-.21-1.189-.432-2.423-.674-3.663v-.1c-.242-1.272-.49-2.5-.757-3.74v-.083c-.108-.534-.223-1.056-.343-1.584l-.134-.585-.229-1.011-.191-.789-.038-.165h0c-.254-1.043-.515-2.067-.782-3.034l-4.42-2.328c.509,1.952.992,4.1,1.45,6.3a6.456,6.456,0,0,0-1.45,1.037c-1.056.941-1.018,2.945.038,5.317a58.8,58.8,0,0,1,4.77,21.439c.134,3,.216,6.029.254,8.974h4.452C263.695,166.164,263.288,158.3,262.537,152.007Z" transform="translate(-167.691 -98.633)" opacity="0.3"/>
      <path id="Path_3362" data-name="Path 3362" d="M230.345,107.34l-2.5,3.816-3.4,5.183a5.31,5.31,0,0,1,1.049,1.533c.636,1.272,1.132,2.188-1.495,3.975a1.464,1.464,0,0,0-.452,1.654c.153.814.636,1.666,3.46,1.164a13.069,13.069,0,0,0,7.11-3.943c.941-.948.725-1.654-.184-2.633C231.369,115.322,230.6,110.9,230.345,107.34Z" transform="translate(-156.754 -90.242)" fill="#ff8b7b"/>
      <path id="Path_3363" data-name="Path 3363" d="M224.83,133.907l1.8,1.132,2.926-1.24a4.725,4.725,0,0,0-2.544-1.329,5.037,5.037,0,0,0-2.181,1.437Z" transform="translate(-157.242 -99.39)" fill="#263238"/>
      <path id="Path_3364" data-name="Path 3364" d="M228.21,129.172c1.342.553,2.016,1.8,2.627,3.237,0,0,6.43-4.872,6.563-8.083-.343-1.094-1.953-.9-1.953-.9S233.489,126.819,228.21,129.172Z" transform="translate(-158.472 -96.092)" fill="#fff"/>
      <path id="Path_3365" data-name="Path 3365" d="M226.217,130.49a3.263,3.263,0,0,0-2.035,3.18s-2.862-3.358-.534-5.9a8.447,8.447,0,0,1,2-.744A3.707,3.707,0,0,0,226.217,130.49Z" transform="translate(-156.48 -97.41)" fill="#fff"/>
      <path id="Path_3366" data-name="Path 3366" d="M227.633,135.68h-.82c-.267.458-.636,6.423-.782,9.6a28.41,28.41,0,0,0,1.724,5.4.266.266,0,0,0,0,.064c.045.1.089.2.14.293.089.191.178.382.28.56a35.876,35.876,0,0,1,1.367-5.807C228.7,142.11,227.633,135.68,227.633,135.68Z" transform="translate(-157.679 -100.558)" fill="#263238"/>
      <path id="Path_3367" data-name="Path 3367" d="M225.843,117.365l2.086-3.7c.038.089.089.2.14.3a10.131,10.131,0,0,1,.445,1.418c.382,1.647-.89,3.988-2.3,5.088-.057-.1-.108-.21-.165-.318a6.361,6.361,0,0,0-.96-1.475l-.083-.064Z" transform="translate(-157.307 -92.546)" opacity="0.2"/>
      <path id="Path_3368" data-name="Path 3368" d="M209.122,103.072c-.5-2.258,3.091-5.38,3.091-5.38l-4.255-1.482C206.038,97.59,207.285,101.527,209.122,103.072Z" transform="translate(-150.75 -86.191)" fill="#263238"/>
      <path id="Path_3369" data-name="Path 3369" d="M224.008,93.105c1,5.648,1.908,8.9-.216,12.51a7.447,7.447,0,0,1-13.184-.382c-2.385-4.655-3.625-13.1,1.227-16.809a7.536,7.536,0,0,1,12.173,4.681Z" transform="translate(-151.3 -82.749)" fill="#ff8b7b"/>
      <path id="Path_3370" data-name="Path 3370" d="M229.805,98.573l-2.671-.731V94.407s-3.377-1.908-2.856-4.293a26.077,26.077,0,0,1,1.088-3.943s5.355-.343,7,.343a11.634,11.634,0,0,1-1.38,1.272,12.173,12.173,0,0,1,3.244,3.32,4.452,4.452,0,0,0-1.832.884S233.093,96.7,229.805,98.573Z" transform="translate(-157.021 -82.505)" fill="#263238"/>
      <path id="Path_3371" data-name="Path 3371" d="M223.34,80.459c1.965,1.234.827,3.5.827,3.5l5.26.108C229.147,82.4,224.587,80.376,223.34,80.459Z" transform="translate(-156.7 -80.456)" fill="#263238"/>
      <path id="Path_3372" data-name="Path 3372" d="M216.025,89.344c-.375,1.056-4.636,2.353-8.522,2.48a17.63,17.63,0,0,1-5.673-1.068,6.487,6.487,0,0,1,1.908-1.355c-2.347-.579-5.317-2.639-6.137-4.318a9.718,9.718,0,0,1,5.342-.343,5.724,5.724,0,0,1-2.016-3.949s9.947,3.943,13.776,2.309c4.159-1.781,7.32,1.558,4.585,4.1S216.025,89.344,216.025,89.344Z" transform="translate(-147.33 -80.578)" fill="#263238"/>
      <path id="Path_3373" data-name="Path 3373" d="M235.23,101.909a5.088,5.088,0,0,1-1.138,3.434c-1.03,1.227-2.633.248-3-1.272-.331-1.38.1-3.511,1.456-4.172S235.16,100.364,235.23,101.909Z" transform="translate(-159.482 -87.463)" fill="#ff8b7b"/>
      <path id="Path_3374" data-name="Path 3374" d="M218.733,104.623a.822.822,0,0,1-.254.992c-.254.108-.636-.172-.782-.636a.8.8,0,0,1,.254-.992C218.206,103.878,218.587,104.152,218.733,104.623Z" transform="translate(-154.624 -89.013)" fill="#263238"/>
      <path id="Path_3375" data-name="Path 3375" d="M210.983,107.424c.14.439,0,.884-.254.986s-.636-.165-.782-.636,0-.884.254-.986S210.837,106.979,210.983,107.424Z" transform="translate(-151.803 -90.034)" fill="#263238"/>
      <path id="Path_3376" data-name="Path 3376" d="M214,107.43a14.882,14.882,0,0,1-.458,3.9,2.232,2.232,0,0,0,1.857-.439Z" transform="translate(-153.132 -90.275)" fill="#a02724"/>
      <path id="Path_3377" data-name="Path 3377" d="M218.608,114.255a4.038,4.038,0,0,0,2.353-2.073.14.14,0,0,0-.076-.178.134.134,0,0,0-.178.07,3.816,3.816,0,0,1-2.677,2.061.137.137,0,0,0,.057.267,4.163,4.163,0,0,0,.522-.146Z" transform="translate(-154.728 -91.935)" fill="#263238"/>
      <path id="Path_3378" data-name="Path 3378" d="M219.6,100.375a.273.273,0,0,0,.1-.1.267.267,0,0,0-.076-.375,2.639,2.639,0,0,0-2.455-.254.275.275,0,1,0,.235.5,2.067,2.067,0,0,1,1.908.216A.273.273,0,0,0,219.6,100.375Z" transform="translate(-154.393 -87.373)" fill="#263238"/>
      <path id="Path_3379" data-name="Path 3379" d="M208.949,103.418a.248.248,0,0,0,0-.134.273.273,0,0,0-.356-.146,2.608,2.608,0,0,0-1.6,1.87.273.273,0,0,0,.534.089,2.092,2.092,0,0,1,1.272-1.456A.273.273,0,0,0,208.949,103.418Z" transform="translate(-150.748 -88.705)" fill="#263238"/>
      <path id="Path_3380" data-name="Path 3380" d="M255.035,128.748c.7.865,1.31,1.647,1.908,2.48s1.221,1.66,1.806,2.506c1.189,1.685,2.3,3.434,3.377,5.215a55.161,55.161,0,0,1,2.989,5.6,34.528,34.528,0,0,1,2.321,6.36,16.848,16.848,0,0,1,.5,3.892,14.976,14.976,0,0,1-.56,3.88,25.712,25.712,0,0,1-2.747,6.258c-.547.935-1.138,1.832-1.755,2.7s-1.272,1.7-1.908,2.512a43.529,43.529,0,0,1-4.318,4.566A2.181,2.181,0,0,1,253.3,172l.057-.1a73.67,73.67,0,0,0,5.164-10.023,22.535,22.535,0,0,0,1.425-4.865,8.726,8.726,0,0,0,.083-2.029,9.9,9.9,0,0,0-.432-1.972,29.362,29.362,0,0,0-2.067-4.706c-.846-1.6-1.8-3.18-2.817-4.789s-2.086-3.18-3.18-4.725l-1.673-2.328c-.56-.757-1.145-1.565-1.673-2.258l-.038-.051a4.365,4.365,0,0,1,6.856-5.406Z" transform="translate(-165.391 -97.43)" fill="#007bff"/>
      <path id="Path_3381" data-name="Path 3381" d="M163.523,202.067l54.11-2.449a1.272,1.272,0,0,1,1.355,1.234l-56.7,2.544a1.272,1.272,0,0,1,1.234-1.329Z" transform="translate(-134.476 -123.832)" fill="#007bff"/>
      <g id="Group_1371" data-name="Group 1371" transform="translate(27.812 75.784)" opacity="0.6">
        <path id="Path_3382" data-name="Path 3382" d="M163.523,202.067l54.11-2.449a1.272,1.272,0,0,1,1.355,1.234l-56.7,2.544a1.272,1.272,0,0,1,1.234-1.329Z" transform="translate(-162.288 -199.616)" fill="#fff"/>
      </g>
      <path id="Path_3383" data-name="Path 3383" d="M150.328,163l38.5-1.743a1.2,1.2,0,0,1,1.119.808l7.39,23.449a.636.636,0,0,1-.591.878l-38.5,1.743a1.189,1.189,0,0,1-1.113-.8l-7.39-23.455a.636.636,0,0,1,.585-.878Z" transform="translate(-129.892 -109.87)" fill="#007bff"/>
      <path id="Path_3384" data-name="Path 3384" d="M150.328,163l38.5-1.743a1.2,1.2,0,0,1,1.119.808l7.39,23.449a.636.636,0,0,1-.591.878l-38.5,1.743a1.189,1.189,0,0,1-1.113-.8l-7.39-23.455a.636.636,0,0,1,.585-.878Z" transform="translate(-129.892 -109.87)" fill="#fff" opacity="0.6"/>
      <path id="Path_3385" data-name="Path 3385" d="M212.359,162.058l7.39,23.449a.636.636,0,0,1-.591.884L211.24,161.25A1.2,1.2,0,0,1,212.359,162.058Z" transform="translate(-152.295 -109.866)" fill="#007bff" opacity="0.5"/>
      <path id="Path_3386" data-name="Path 3386" d="M226.232,200.264l14.227-.636a1.272,1.272,0,0,1,1.355,1.234L225,201.619a1.272,1.272,0,0,1,1.234-1.355Z" transform="translate(-157.302 -123.835)" fill="#007bff" opacity="0.5"/>
      <path id="Path_3387" data-name="Path 3387" d="M253.118,197.244l-3.638.528,3.727,5.183s5.921-.948,5.234-3.574l-1.272-1.056a5.164,5.164,0,0,0-4.051-1.081Z" transform="translate(-166.215 -122.945)" fill="#ff8b7b"/>
      <path id="Path_3388" data-name="Path 3388" d="M242.48,199.662l4.56,3.975,3.619-.343-3.727-5.183Z" transform="translate(-163.667 -123.284)" fill="#ff8b7b"/>
    </g>
  </g>
</svg>
